<svg xmlns="http://www.w3.org/2000/svg" xmlns:xlink="http://www.w3.org/1999/xlink" viewBox="0 0 203.74 226.05"><defs><style>.cls-1{fill:url(#linear-gradient);}.cls-2{fill:url(#linear-gradient-2);}.cls-3{fill:url(#linear-gradient-3);}.cls-4{fill:url(#linear-gradient-4);}.cls-5{fill:url(#linear-gradient-5);}</style><linearGradient id="linear-gradient" x1="101.85" y1="-12.91" x2="101.85" y2="224.04" gradientUnits="userSpaceOnUse"><stop offset="0" stop-color="#ffd200"/><stop offset="0.08" stop-color="#ffb500"/><stop offset="0.2" stop-color="#ff8c00"/><stop offset="0.3" stop-color="#ff7300"/><stop offset="0.36" stop-color="#ff6a00"/><stop offset="0.48" stop-color="#fc4f0e"/><stop offset="0.65" stop-color="#f92f1e"/><stop offset="0.79" stop-color="#f81b27"/><stop offset="0.89" stop-color="#f7142b"/><stop offset="1" stop-color="#df162e"/></linearGradient><linearGradient id="linear-gradient-2" x1="24.84" y1="-12.91" x2="24.84" y2="224.04" xlink:href="#linear-gradient"/><linearGradient id="linear-gradient-3" x1="178.9" y1="-12.91" x2="178.9" y2="224.04" xlink:href="#linear-gradient"/><linearGradient id="linear-gradient-4" x1="145.06" y1="-12.91" x2="145.06" y2="224.04" xlink:href="#linear-gradient"/><linearGradient id="linear-gradient-5" x1="58.64" y1="-12.91" x2="58.64" y2="224.04" xlink:href="#linear-gradient"/></defs><g id="Layer_2" data-name="Layer 2"><g id="Layer_1-2" data-name="Layer 1"><path class="cls-1" d="M101.89,226.05c2.85,0,5.67-.15,8.46-.35V.35c-2.8-.21-5.62-.35-8.48-.35s-5.7.14-8.52.35V225.69c2.81.21,5.64.35,8.5.36Z"/><path class="cls-2" d="M11.56,50.9,9.12,48.47A112.82,112.82,0,0,0,.2,63.61c29.42,29.89,32.52,44.31,32.48,49.14C32.57,125,17.58,144.21,0,162a113.69,113.69,0,0,0,8.84,15.15c1-1,1.95-1.92,2.92-2.9,25.37-25.54,37.77-45.61,37.92-61.38S37.36,77,11.56,50.9Z"/><path class="cls-3" d="M192,174.29l2.92,2.9A113.69,113.69,0,0,0,203.74,162c-17.57-17.83-32.56-37.09-32.68-49.29-.11-11.9,14.79-31.15,32.46-49.18a112.88,112.88,0,0,0-8.9-15.1l-2.44,2.43c-25.8,26.05-38.27,46.34-38.12,62S166.61,148.75,192,174.29Z"/><path class="cls-4" d="M140.68,112.83c0-22,9.81-58.58,24.92-93.15A113,113,0,0,0,150.45,11c-16.54,37.27-26.78,76.91-26.78,101.87,0,24.15,11.09,64.23,27.93,101.7a113,113,0,0,0,14.84-8.77C150.85,170.73,140.68,134.07,140.68,112.83Z"/><path class="cls-5" d="M80,112.83C80,87.74,69.35,47.88,53,11.07a112.76,112.76,0,0,0-14.93,8.64C53.21,54.26,63,90.85,63,112.83c0,21.23-10.17,57.88-25.76,92.91a113.66,113.66,0,0,0,14.84,8.77C68.94,177.05,80,137,80,112.83Z"/></g></g></svg>