<svg id="Layer_1" data-name="Layer 1" xmlns="http://www.w3.org/2000/svg" viewBox="0 0 1366 820"><defs><style>.cls-1{fill:#eae1e7;}.cls-2{fill:#dfd3db;}.cls-3{fill:#bfa7b7;}.cls-4{fill:#33313a;}.cls-5{fill:#5f224a;}.cls-6{fill:#fff;}.cls-7{fill:none;stroke:#33323c;stroke-miterlimit:10;stroke-width:3px;}.cls-8{fill:#33323c;}.cls-9{fill:#33313b;}</style></defs><rect class="cls-1" width="1366" height="820" rx="10"/><rect class="cls-2" x="693.20126" y="53.99999" width="299.60022" height="155.5" rx="5.9976"/><rect class="cls-3" x="807.85759" y="24.55598" width="70.28743" height="259.60059" rx="7" transform="translate(997.35758 -688.64503) rotate(90)"/><rect class="cls-2" x="1012.80148" y="53.99999" width="299.19757" height="155.5" rx="5.9976"/><rect class="cls-3" x="1127.25652" y="24.75764" width="70.28743" height="259.19727" rx="7" transform="translate(1316.75651 -1008.04395) rotate(90)"/><path class="cls-4" d="M727.84063,80.07227a5.32025,5.32025,0,0,1-1.22364,3.28808,4.59019,4.59019,0,0,1-1.93261,1.332,8.11919,8.11919,0,0,1-3.03516.51563H719.1043v6.55176h-4.10352V74.91211h6.64844a6.45668,6.45668,0,0,1,4.55957,1.51172A4.79607,4.79607,0,0,1,727.84063,80.07227Zm-8.73633,2.01562h2.54492a1.8802,1.8802,0,0,0,2.01562-2.00391,2.04428,2.04428,0,0,0-.55175-1.47558,1.9321,1.9321,0,0,0-1.46387-.57617H719.1043Z"/><path class="cls-4" d="M731.38066,90.03223A6.51185,6.51185,0,0,1,729.35234,85.04,6.41954,6.41954,0,0,1,731.368,80.084a7.61264,7.61264,0,0,1,9.97266,0,6.43837,6.43837,0,0,1,2.0039,4.95606,6.57278,6.57278,0,0,1-1.99219,4.99219,6.92551,6.92551,0,0,1-4.96777,1.8955A7.04963,7.04963,0,0,1,731.38066,90.03223Zm6.97168-2.47266a3.49721,3.49721,0,0,0,.81641-2.49512,3.39778,3.39778,0,0,0-.83984-2.48437,2.70816,2.70816,0,0,0-1.99219-.85254,2.6703,2.6703,0,0,0-1.98047.85254,4.1087,4.1087,0,0,0,.02441,4.97949,2.72156,2.72156,0,0,0,2.00391.86426A2.60764,2.60764,0,0,0,738.35234,87.55957Z"/><path class="cls-4" d="M746.77617,90.00781a7.72092,7.72092,0,0,1,0-9.85156,5.66376,5.66376,0,0,1,4.332-1.93262,4.54581,4.54581,0,0,1,3.92383,1.89649V74h4.10449V91.75977H755.032V89.81641a4.63958,4.63958,0,0,1-3.98437,2.11132A5.61177,5.61177,0,0,1,746.77617,90.00781Zm7.36817-2.49609a3.25847,3.25847,0,0,0,.88769-2.44727,3.21956,3.21956,0,0,0-.88769-2.43652,2.85565,2.85565,0,0,0-4.08008.01172,3.26077,3.26077,0,0,0-.8877,2.44824,3.221,3.221,0,0,0,.8877,2.43652,2.8545,2.8545,0,0,0,4.08008-.01269Z"/><path class="cls-4" d="M769.07207,91.51953V88.47168q.64893-.57569,1.82324-1.584,1.17774-1.00782,1.82422-1.57129.64893-.564,1.5127-1.416a12.24735,12.24735,0,0,0,1.2959-1.45215,4.89855,4.89855,0,0,0,1.12793-2.71191q0-2.04052-1.79981-2.04a1.68034,1.68034,0,0,0-1.36816.61133,2.7125,2.7125,0,0,0-.50391,1.76465h-3.96a5.51135,5.51135,0,0,1,1.668-4.35645,6.36709,6.36709,0,0,1,4.37988-1.47559,5.63191,5.63191,0,0,1,4.22363,1.54786,5.1488,5.1488,0,0,1,1.51172,3.73144,5.7123,5.7123,0,0,1-.71875,2.9043q-.43359.72071-.74414,1.22461a8.04469,8.04469,0,0,1-1.0332,1.248q-.71923.74415-1.05469,1.07911-.33691.33691-1.23633,1.15234-.89941.81592-1.14062,1.05566h6.24023v3.33594Z"/><path class="cls-4" d="M1047.24,80.07227a5.32024,5.32024,0,0,1-1.22363,3.28808,4.59023,4.59023,0,0,1-1.93262,1.332,8.128,8.128,0,0,1-3.03613.51563h-2.54395v6.55176h-4.10449V74.91211h6.64844a6.45759,6.45759,0,0,1,4.56054,1.51172A4.79607,4.79607,0,0,1,1047.24,80.07227Zm-8.73633,2.01562h2.54395a1.87889,1.87889,0,0,0,2.01562-2.00391,2.04768,2.04768,0,0,0-.55078-1.47558,1.93576,1.93576,0,0,0-1.46484-.57617h-2.54395Z"/><path class="cls-4" d="M1050.78008,90.03223a6.50909,6.50909,0,0,1-2.0293-4.99219,6.42023,6.42023,0,0,1,2.0166-4.95606,7.61133,7.61133,0,0,1,9.97168,0A6.43834,6.43834,0,0,1,1062.743,85.04a6.57278,6.57278,0,0,1-1.99219,4.99219,6.92318,6.92318,0,0,1-4.96679,1.8955A7.0496,7.0496,0,0,1,1050.78008,90.03223Zm6.9707-2.47266a3.49285,3.49285,0,0,0,.81641-2.49512,3.39366,3.39366,0,0,0-.83985-2.48437,2.70812,2.70812,0,0,0-1.99218-.85254,2.66666,2.66666,0,0,0-1.9795.85254,4.10868,4.10868,0,0,0,.02442,4.97949,2.72,2.72,0,0,0,2.00391.86426A2.60561,2.60561,0,0,0,1057.75078,87.55957Z"/><path class="cls-4" d="M1066.17461,90.00781a7.72092,7.72092,0,0,1,0-9.85156,5.66521,5.66521,0,0,1,4.332-1.93262,4.54641,4.54641,0,0,1,3.92481,1.89649V74h4.10449V91.75977h-4.10449V89.81641a4.63959,4.63959,0,0,1-3.98438,2.11132A5.61526,5.61526,0,0,1,1066.17461,90.00781Zm7.36914-2.49609a3.25844,3.25844,0,0,0,.8877-2.44727,3.21953,3.21953,0,0,0-.8877-2.43652,2.85564,2.85564,0,0,0-4.08008.01172,3.26128,3.26128,0,0,0-.88867,2.44824,3.2215,3.2215,0,0,0,.88867,2.43652,2.8545,2.8545,0,0,0,4.08008-.01269Z"/><path class="cls-4" d="M1094.63945,77.4082a1.68962,1.68962,0,0,0-1.82421,1.77539h-3.98438a4.842,4.842,0,0,1,1.62012-3.89941,6.4178,6.4178,0,0,1,4.30761-1.37988,6.08656,6.08656,0,0,1,4.17579,1.31933,4.29567,4.29567,0,0,1,1.48828,3.36035,4.15613,4.15613,0,0,1-.7793,2.61622,4.08932,4.08932,0,0,1-1.5957,1.34375v.0957a4.03,4.03,0,0,1,2.6875,4.15234,4.64028,4.64028,0,0,1-1.57227,3.708,6.43378,6.43378,0,0,1-4.34375,1.35645,6.97566,6.97566,0,0,1-4.52441-1.416,5.1105,5.1105,0,0,1-1.752-4.22461h3.98438a2.41953,2.41953,0,0,0,.59961,1.668,2.08515,2.08515,0,0,0,1.59668.6123,2.00057,2.00057,0,0,0,1.53515-.55175,2.21741,2.21741,0,0,0,.51661-1.57227,1.73786,1.73786,0,0,0-.71973-1.52441,4.21118,4.21118,0,0,0-2.35254-.50391h-.76855V81.00781h.76855q2.73633,0,2.73535-1.91992a1.58987,1.58987,0,0,0-.49121-1.22363A1.85,1.85,0,0,0,1094.63945,77.4082Z"/><rect class="cls-2" x="54.00063" y="53.99999" width="299.6004" height="155.5" rx="5.9976"/><rect class="cls-3" x="168.65715" y="24.55623" width="70.28743" height="259.6001" rx="7" transform="translate(358.15714 -49.44459) rotate(90)"/><path class="cls-4" d="M88.64141,80.07227a5.31579,5.31579,0,0,1-1.22461,3.28808,4.58652,4.58652,0,0,1-1.93164,1.332A8.13164,8.13164,0,0,1,82.449,85.208H79.90508v6.55176H75.80059V74.91211H82.449a6.455,6.455,0,0,1,4.55957,1.51172A4.797,4.797,0,0,1,88.64141,80.07227Zm-8.73633,2.01562H82.449a1.96719,1.96719,0,0,0,1.47559-.55176,1.98724,1.98724,0,0,0,.54-1.45215,2.04836,2.04836,0,0,0-.55176-1.47558,1.93207,1.93207,0,0,0-1.46387-.57617H79.90508Z"/><path class="cls-4" d="M92.18047,90.03223A6.51181,6.51181,0,0,1,90.15215,85.04a6.42023,6.42023,0,0,1,2.0166-4.95606,7.61133,7.61133,0,0,1,9.97168,0A6.44176,6.44176,0,0,1,104.14434,85.04a6.57282,6.57282,0,0,1-1.99219,4.99219,6.92392,6.92392,0,0,1-4.96777,1.8955A7.0496,7.0496,0,0,1,92.18047,90.03223Zm6.97168-2.47266a3.497,3.497,0,0,0,.81543-2.49512,3.3937,3.3937,0,0,0-.83984-2.48437,2.70449,2.70449,0,0,0-1.99122-.85254,2.66357,2.66357,0,0,0-1.97949.85254,4.11058,4.11058,0,0,0,.02344,4.97949,2.7231,2.7231,0,0,0,2.00391.86426A2.60917,2.60917,0,0,0,99.15215,87.55957Z"/><path class="cls-4" d="M107.576,90.00781a7.71764,7.71764,0,0,1,0-9.85156,5.66375,5.66375,0,0,1,4.332-1.93262,4.54757,4.54757,0,0,1,3.9248,1.89649V74h4.10352V91.75977h-4.10352V89.81641a4.63956,4.63956,0,0,1-3.98437,2.11132A5.61526,5.61526,0,0,1,107.576,90.00781Zm7.36816-2.49609a3.25891,3.25891,0,0,0,.88867-2.44727,3.22,3.22,0,0,0-.88867-2.43652,2.85565,2.85565,0,0,0-4.08008.01172,3.26081,3.26081,0,0,0-.88769,2.44824,3.221,3.221,0,0,0,.88769,2.43652,2.8545,2.8545,0,0,0,4.08008-.01269Z"/><path class="cls-4" d="M132.5125,91.75977V78.53613h-2.9043v-3.8164h7.15235v17.04Z"/><path class="cls-4" d="M98.46563,159.82715H94.87578V145.085h3.58985v6.46826l4.873-6.46826h4.70313l-6.06836,7.37109,6.06836,7.3711h-4.61914l-4.957-6.50977Z"/><path class="cls-4" d="M117.95391,148.10938h3.59082v11.71777h-3.59082V158.105a3.83432,3.83432,0,0,1-3.54883,1.84814,4.251,4.251,0,0,1-3.26563-1.34374,5.15055,5.15055,0,0,1-1.25-3.6543v-6.8457h3.57032v6.36279a2.41863,2.41863,0,0,0,.59863,1.75342,2.50256,2.50256,0,0,0,3.29687,0,2.41859,2.41859,0,0,0,.59864-1.75342Z"/><path class="cls-4" d="M128.28594,149.64209a3.97443,3.97443,0,0,1,3.43359-1.65918,4.95581,4.95581,0,0,1,3.79,1.69092,6.755,6.755,0,0,1,0,8.62012,4.93324,4.93324,0,0,1-3.75879,1.68017,3.97273,3.97273,0,0,1-3.46484-1.84814v1.70117h-3.5918v-15.54h3.5918Zm4.34668,6.47852a2.81641,2.81641,0,0,0,.77637-2.13135,2.85234,2.85234,0,0,0-.77637-2.14209,2.4984,2.4984,0,0,0-3.57031-.01074,2.81457,2.81457,0,0,0-.77637,2.13183,2.85005,2.85005,0,0,0,.77637,2.14209,2.49784,2.49784,0,0,0,3.57031.01026Z"/><path class="cls-4" d="M144.32891,159.97412a5.66586,5.66586,0,0,1-4.19922-1.64844,5.94078,5.94078,0,0,1-1.63867-4.37841,5.85429,5.85429,0,0,1,1.62793-4.34717,5.7197,5.7197,0,0,1,4.21-1.61719,6.01834,6.01834,0,0,1,4.28515,1.59619,5.78115,5.78115,0,0,1,1.70118,4.43115,7.33891,7.33891,0,0,1-.084,1.13379H142.1668a2.04742,2.04742,0,0,0,1.96289,1.76416,2.86324,2.86324,0,0,0,1.01953-.13672,1.80582,1.80582,0,0,0,.49219-.27294,3.57,3.57,0,0,0,.41015-.45118h3.88477a5.14727,5.14727,0,0,1-2.01563,2.84522A6.00878,6.00878,0,0,1,144.32891,159.97412Zm1.5332-8.41064a2.28245,2.28245,0,0,0-1.49023-.51416,2.12252,2.12252,0,0,0-1.44922.51416,2.23556,2.23556,0,0,0-.73438,1.33349H146.577A1.91262,1.91262,0,0,0,145.86211,151.56348Z"/><path class="cls-4" d="M156.21563,148.10938V150.293a3.77471,3.77471,0,0,1,3.35937-2.31006v3.6543h-.88086a2.61263,2.61263,0,0,0-1.85937.58789,2.77513,2.77513,0,0,0-.61914,2.0581v5.54395h-3.59082V148.10938Z"/><path class="cls-4" d="M165.11992,148.10938v1.72167a3.83313,3.83313,0,0,1,3.54883-1.84814,4.25418,4.25418,0,0,1,3.26563,1.34424,5.15922,5.15922,0,0,1,1.249,3.65381v6.84619h-3.56934v-6.36279a2.42021,2.42021,0,0,0-.59961-1.75391,2.504,2.504,0,0,0-3.29687,0,2.42365,2.42365,0,0,0-.59766,1.75391v6.36279h-3.59179V148.10938Z"/><path class="cls-4" d="M181.20488,159.97412a5.66657,5.66657,0,0,1-4.20019-1.64844,5.94017,5.94017,0,0,1-1.6377-4.37841,5.85049,5.85049,0,0,1,1.62793-4.34717,5.71663,5.71663,0,0,1,4.21-1.61719,6.016,6.016,0,0,1,4.28418,1.59619,5.77762,5.77762,0,0,1,1.70118,4.43115,7.22037,7.22037,0,0,1-.084,1.13379H179.0418a2.04736,2.04736,0,0,0,1.96386,1.76416,2.86081,2.86081,0,0,0,1.01856-.13672,1.79878,1.79878,0,0,0,.49316-.27294,3.57828,3.57828,0,0,0,.40918-.45118h3.88575a5.14891,5.14891,0,0,1-2.01661,2.84522A6.00786,6.00786,0,0,1,181.20488,159.97412Zm1.53321-8.41064a2.28511,2.28511,0,0,0-1.49121-.51416,2.12426,2.12426,0,0,0-1.44922.51416,2.24062,2.24062,0,0,0-.73438,1.33349H183.452A1.91151,1.91151,0,0,0,182.73809,151.56348Z"/><path class="cls-4" d="M194.47734,156.78223h1.28125v3.04492h-1.82812a4.75288,4.75288,0,0,1-3.05469-.87158,3.64014,3.64014,0,0,1-1.082-2.99219v-4.87207H188.702v-2.98193h1.0918v-2.85645h3.5918v2.85645h2.35156v2.98193h-2.35156v4.87207Q193.38555,156.78223,194.47734,156.78223Z"/><path class="cls-4" d="M203.19219,159.97412a5.665,5.665,0,0,1-4.2002-1.64844,5.93631,5.93631,0,0,1-1.63769-4.37841,5.85369,5.85369,0,0,1,1.62695-4.34717,5.71891,5.71891,0,0,1,4.21094-1.61719,6.012,6.012,0,0,1,4.2832,1.59619,5.77762,5.77762,0,0,1,1.70117,4.43115,7.10449,7.10449,0,0,1-.084,1.13379H201.0291a2.0453,2.0453,0,0,0,1.96387,1.76416,2.85111,2.85111,0,0,0,1.01758-.13672,1.807,1.807,0,0,0,.49414-.27294,3.57828,3.57828,0,0,0,.40918-.45118h3.88574a5.14894,5.14894,0,0,1-2.0166,2.84522A6.01,6.01,0,0,1,203.19219,159.97412Zm1.5332-8.41064a2.28694,2.28694,0,0,0-1.49121-.51416,2.12252,2.12252,0,0,0-1.44922.51416,2.24185,2.24185,0,0,0-.73535,1.33349h4.38867A1.90678,1.90678,0,0,0,204.72539,151.56348Z"/><path class="cls-4" d="M210.68828,151.63721a3.20332,3.20332,0,0,1,1.32422-2.604,5.601,5.601,0,0,1,3.58008-1.05029,5.96743,5.96743,0,0,1,3.64355,1.0293,3.54048,3.54048,0,0,1,1.46973,2.814h-3.6748a1.03274,1.03274,0,0,0-.41993-.82959,2.07414,2.07414,0,0,0-1.07129-.22021q-1.40625,0-1.40625.86084,0,.77709,1.72071,1.0708a14.02284,14.02284,0,0,1,3.17187.90332,2.74768,2.74768,0,0,1,1.72168,2.646,3.19217,3.19217,0,0,1-1.40722,2.67725,5.81209,5.81209,0,0,1-3.54883,1.03955,6.18426,6.18426,0,0,1-3.57031-.97656,3.57961,3.57961,0,0,1-1.55372-2.88721h3.67481q.14649,1.0708,1.51172,1.0708a1.73714,1.73714,0,0,0,1.04-.29394.89467.89467,0,0,0,.40918-.75586q0-.46216-.68164-.73535a9.34688,9.34688,0,0,0-1.64844-.46192q-.9668-.189-1.94336-.47265a3.7009,3.7009,0,0,1-1.6582-.98682A2.5274,2.5274,0,0,1,210.68828,151.63721Z"/><path class="cls-4" d="M233.243,159.82715,228.01348,145.085h3.82226l3.65332,11.23535,3.6543-11.23535h3.82227l-5.22852,14.74219Z"/><path class="cls-4" d="M245.62188,158.31494a5.69675,5.69675,0,0,1-1.77442-4.36767,5.61751,5.61751,0,0,1,1.76465-4.33643,6.65871,6.65871,0,0,1,8.72461,0,5.63362,5.63362,0,0,1,1.75391,4.33643,5.75082,5.75082,0,0,1-1.74317,4.36767,6.0555,6.0555,0,0,1-4.34668,1.65918A6.16849,6.16849,0,0,1,245.62188,158.31494Zm6.10058-2.1626a3.0652,3.0652,0,0,0,.71387-2.18408,2.97032,2.97032,0,0,0-.73438-2.17383,2.36752,2.36752,0,0,0-1.74316-.74511,2.33551,2.33551,0,0,0-1.7334.74511,3.59993,3.59993,0,0,0,.02149,4.35791,2.38488,2.38488,0,0,0,1.7539.75586A2.28229,2.28229,0,0,0,251.72246,156.15234Z"/><path class="cls-4" d="M258.40117,159.82715v-15.54H261.991v15.54Z"/><path class="cls-4" d="M273.10039,148.10938h3.5918v11.71777h-3.5918V158.105a3.8333,3.8333,0,0,1-3.54883,1.84814,4.25237,4.25237,0,0,1-3.26562-1.34374,5.15446,5.15446,0,0,1-1.249-3.6543v-6.8457h3.56934v6.36279a2.41483,2.41483,0,0,0,.59961,1.75342,2.50257,2.50257,0,0,0,3.29688,0,2.42244,2.42244,0,0,0,.59765-1.75342Z"/><path class="cls-4" d="M283.43242,148.10938v1.72167a3.83518,3.83518,0,0,1,3.54883-1.84814,4.55376,4.55376,0,0,1,2.32031.58838,4.03937,4.03937,0,0,1,1.58594,1.67969,5.016,5.016,0,0,1,1.69043-1.64844,4.88078,4.88078,0,0,1,5.72266.70361,5.114,5.114,0,0,1,1.25976,3.67481v6.84619H295.991v-6.36279a2.42025,2.42025,0,0,0-.59961-1.75391,2.504,2.504,0,0,0-3.29688,0,2.42364,2.42364,0,0,0-.59765,1.75391v6.36279h-3.57032v-6.36279a2.41987,2.41987,0,0,0-.59863-1.75391,2.504,2.504,0,0,0-3.29687,0,2.41983,2.41983,0,0,0-.59864,1.75391v6.36279H279.8416V148.10938Z"/><path class="cls-4" d="M307.58281,159.97412a5.665,5.665,0,0,1-4.20019-1.64844,5.93627,5.93627,0,0,1-1.6377-4.37841,5.85366,5.85366,0,0,1,1.627-4.34717,5.7189,5.7189,0,0,1,4.21093-1.61719,6.012,6.012,0,0,1,4.28321,1.59619,5.77765,5.77765,0,0,1,1.70117,4.43115,7.10444,7.10444,0,0,1-.084,1.13379h-8.06347a2.04528,2.04528,0,0,0,1.96386,1.76416,2.851,2.851,0,0,0,1.01758-.13672,1.807,1.807,0,0,0,.49414-.27294,3.57828,3.57828,0,0,0,.40918-.45118h3.88575a5.14891,5.14891,0,0,1-2.01661,2.84522A6.00994,6.00994,0,0,1,307.58281,159.97412Zm1.53321-8.41064a2.287,2.287,0,0,0-1.49121-.51416,2.12252,2.12252,0,0,0-1.44922.51416,2.2418,2.2418,0,0,0-.73535,1.33349h4.38867A1.90682,1.90682,0,0,0,309.116,151.56348Z"/><rect class="cls-2" x="54.00063" y="553.38863" width="622.5276" height="206.5" rx="8.64541"/><path class="cls-4" d="M586.79766,574.25293h4.10351v16.89551h-4.10351L579.9334,580.5166v10.63184h-4.10449V574.25293h4.10449l6.86426,10.63184Z"/><path class="cls-4" d="M595.56914,589.4209a6.51453,6.51453,0,0,1-2.02734-4.99219,6.4195,6.4195,0,0,1,2.01562-4.95605,7.61261,7.61261,0,0,1,9.97266,0,6.44172,6.44172,0,0,1,2.00391,4.95605,6.5728,6.5728,0,0,1-1.99219,4.99219,6.92627,6.92627,0,0,1-4.96875,1.89551A7.04961,7.04961,0,0,1,595.56914,589.4209Zm6.97266-2.47266a3.50132,3.50132,0,0,0,.81543-2.49512,3.39778,3.39778,0,0,0-.83985-2.48437,2.70445,2.70445,0,0,0-1.99121-.85254,2.66723,2.66723,0,0,0-1.98047.85254,4.11058,4.11058,0,0,0,.02344,4.97949,2.72467,2.72467,0,0,0,2.00391.86426A2.61122,2.61122,0,0,0,602.5418,586.94824Z"/><path class="cls-4" d="M610.96563,589.39648a7.71764,7.71764,0,0,1,0-9.85156,5.66231,5.66231,0,0,1,4.332-1.93262,4.547,4.547,0,0,1,3.92383,1.89649v-6.12012H623.325v17.75977h-4.10351v-1.94336a4.6396,4.6396,0,0,1-3.98438,2.11133A5.61176,5.61176,0,0,1,610.96563,589.39648Zm7.36718-2.49609a3.25891,3.25891,0,0,0,.88868-2.44727,3.22,3.22,0,0,0-.88868-2.43652,2.85564,2.85564,0,0,0-4.08007.01172,3.2603,3.2603,0,0,0-.88672,2.44824,3.22055,3.22055,0,0,0,.88672,2.43653,2.85449,2.85449,0,0,0,4.08007-.0127Z"/><path class="cls-4" d="M632.61309,591.31641a6.47631,6.47631,0,0,1-4.79981-1.88379,6.7871,6.7871,0,0,1-1.87207-5.00391,6.68846,6.68846,0,0,1,1.86035-4.96777,6.53108,6.53108,0,0,1,4.81153-1.84864,6.87265,6.87265,0,0,1,4.8955,1.82422,6.60407,6.60407,0,0,1,1.94532,5.06446,8.27942,8.27942,0,0,1-.09668,1.2959h-9.21582a2.33742,2.33742,0,0,0,2.24414,2.01562,3.26117,3.26117,0,0,0,1.16406-.15625,2.0507,2.0507,0,0,0,.56348-.31152,4.10778,4.10778,0,0,0,.46777-.51563h4.44043a5.882,5.882,0,0,1-2.30371,3.25195A6.86843,6.86843,0,0,1,632.61309,591.31641Zm1.75293-9.61133a2.61137,2.61137,0,0,0-1.70508-.58887,2.42387,2.42387,0,0,0-1.65625.58887,2.56261,2.56261,0,0,0-.83985,1.52344h5.01661A2.18181,2.18181,0,0,0,634.366,581.70508Z"/><path class="cls-4" d="M651.06914,591.14844V577.9248h-2.9043v-3.8164h7.15235v17.04Z"/><rect class="cls-5" x="168.65672" y="145.5" width="70.28743" height="299.6012" rx="7" transform="translate(499.10103 91.50016) rotate(90)"/><path class="cls-6" d="M176.25957,285.9873v2.73h-5.334v3.17138h4.7041v2.73h-4.7041v3.42285h5.334v2.73h-8.9248V285.9873Z"/><path class="cls-6" d="M182.93731,289.05371v1.72168a3.83414,3.83414,0,0,1,3.54882-1.84814,4.25131,4.25131,0,0,1,3.26563,1.34423,5.15483,5.15483,0,0,1,1.249,3.65381v6.84619h-3.56933v-6.36279a2.424,2.424,0,0,0-.59864-1.7539,2.504,2.504,0,0,0-3.29687,0,2.424,2.424,0,0,0-.59863,1.7539v6.36279h-3.59082V289.05371Z"/><path class="cls-6" d="M194.73906,299.23828a6.75175,6.75175,0,0,1,0-8.62012,4.95345,4.95345,0,0,1,3.791-1.69091,3.97915,3.97915,0,0,1,3.43359,1.65918v-1.53272h3.58985V300.7085a6.24065,6.24065,0,0,1-1.34375,4.09521,4.33714,4.33714,0,0,1-1.83789,1.30176,7.28961,7.28961,0,0,1-2.69727.46191,7.37225,7.37225,0,0,1-4.26367-1.09179,4.31224,4.31224,0,0,1-1.78516-3.33887h3.52832q.50391,1.32274,2.52051,1.32275a2.20069,2.20069,0,0,0,1.63672-.66162,2.88341,2.88341,0,0,0,.65234-2.08935v-1.63819a4.06212,4.06212,0,0,1-3.48633,1.84815A4.9086,4.9086,0,0,1,194.73906,299.23828Zm6.44727-2.18359a2.85432,2.85432,0,0,0,.77734-2.14209,2.81876,2.81876,0,0,0-.77734-2.13184,2.4984,2.4984,0,0,0-3.57031.01074,2.85284,2.85284,0,0,0-.77735,2.14209,2.81686,2.81686,0,0,0,.77735,2.13135,2.49783,2.49783,0,0,0,3.57031-.01025Z"/><path class="cls-6" d="M211.98027,287.73047a2.15693,2.15693,0,1,1,.6084-1.50147A2.02773,2.02773,0,0,1,211.98027,287.73047Zm-3.27636,13.041V289.05371h3.59179v11.71777Z"/><path class="cls-6" d="M219.03594,289.05371v1.72168a3.8362,3.8362,0,0,1,3.54883-1.84814,4.24985,4.24985,0,0,1,3.26562,1.34423,5.15088,5.15088,0,0,1,1.25,3.65381v6.84619h-3.57031v-6.36279a2.42361,2.42361,0,0,0-.59766-1.7539,2.504,2.504,0,0,0-3.29687,0,2.42017,2.42017,0,0,0-.59961,1.7539v6.36279h-3.58985V289.05371Z"/><path class="cls-6" d="M235.12188,300.91846a5.66431,5.66431,0,0,1-4.19922-1.64844,5.93689,5.93689,0,0,1-1.63867-4.37842,5.85752,5.85752,0,0,1,1.627-4.34717,5.722,5.722,0,0,1,4.21094-1.61718,6.01432,6.01432,0,0,1,4.28418,1.59619,5.78115,5.78115,0,0,1,1.70117,4.43115,7.21916,7.21916,0,0,1-.084,1.13379h-8.06347a2.04535,2.04535,0,0,0,1.96289,1.76416,2.85346,2.85346,0,0,0,1.01855-.13672,1.81378,1.81378,0,0,0,.49317-.27295,3.56982,3.56982,0,0,0,.41015-.45117h3.88477a5.14724,5.14724,0,0,1-2.01563,2.84521A6.01082,6.01082,0,0,1,235.12188,300.91846Zm1.5332-8.41065a2.28436,2.28436,0,0,0-1.49024-.51416,2.12082,2.12082,0,0,0-1.44921.51416,2.23683,2.23683,0,0,0-.73536,1.3335H237.369A1.908,1.908,0,0,0,236.65508,292.50781Z"/><rect class="cls-5" x="118.29625" y="368.80478" width="70.28743" height="198.88026" rx="7" transform="translate(621.68488 314.80495) rotate(90)"/><path class="cls-6" d="M117.25664,467.98242v5.7334H113.6668V458.97363h5.8164a5.65218,5.65218,0,0,1,3.99024,1.32325,4.198,4.198,0,0,1,1.42773,3.1914,4.59945,4.59945,0,0,1-.77734,2.5,4.24152,4.24152,0,0,1-2.541,1.72168l3.61231,6.00586h-4.2002l-3.31836-5.7334Zm0-6.2793v3.54981h2.22656A1.64612,1.64612,0,0,0,121.24688,463.5a1.789,1.789,0,0,0-.48243-1.292,1.69155,1.69155,0,0,0-1.28125-.50489Z"/><path class="cls-6" d="M132.6707,473.86328a5.66616,5.66616,0,0,1-4.19921-1.64844,5.938,5.938,0,0,1-1.63868-4.3789,5.85791,5.85791,0,0,1,1.627-4.34766,5.72391,5.72391,0,0,1,4.21093-1.61719,6.01682,6.01682,0,0,1,4.28418,1.59668,5.78,5.78,0,0,1,1.70118,4.43067,7.23185,7.23185,0,0,1-.084,1.13476h-8.06348a2.04673,2.04673,0,0,0,1.9629,1.76368,2.84258,2.84258,0,0,0,1.01855-.13672,1.79964,1.79964,0,0,0,.49316-.27344,3.43451,3.43451,0,0,0,.41016-.45117h3.88477a5.14843,5.14843,0,0,1-2.01563,2.8457A6.01455,6.01455,0,0,1,132.6707,473.86328Zm1.53321-8.41113a2.28477,2.28477,0,0,0-1.49024-.51465,2.1212,2.1212,0,0,0-1.44922.51465,2.237,2.237,0,0,0-.73535,1.333h4.38867A1.9078,1.9078,0,0,0,134.20391,465.45215Z"/><path class="cls-6" d="M144.55742,463.53125a3.974,3.974,0,0,1,3.4336-1.66016,4.95631,4.95631,0,0,1,3.79,1.69141,6.755,6.755,0,0,1,0,8.62012,4.93543,4.93543,0,0,1-3.75879,1.68066,3.97319,3.97319,0,0,1-3.46485-1.84863v7.28711h-3.59179V461.99805h3.59179Zm4.34668,6.47852a2.8183,2.8183,0,0,0,.77637-2.13184,2.85042,2.85042,0,0,0-.77637-2.1416,2.49955,2.49955,0,0,0-3.57031-.01172,2.81694,2.81694,0,0,0-.77637,2.13281,2.84967,2.84967,0,0,0,.77637,2.1416,2.49841,2.49841,0,0,0,3.57031.01075Z"/><path class="cls-6" d="M155.62383,473.71582v-15.54h3.5918v15.54Z"/><path class="cls-6" d="M165.64141,460.6748a2.15445,2.15445,0,1,1,.60937-1.501A2.02576,2.02576,0,0,1,165.64141,460.6748Zm-3.27539,13.041V461.99805h3.58984v11.71777Z"/><path class="cls-6" d="M169.87285,472.22461a6.65871,6.65871,0,0,1,0-8.72461,5.69541,5.69541,0,0,1,4.21-1.62891,6.11322,6.11322,0,0,1,3.63379,1.06055,5.05016,5.05016,0,0,1,1.97364,3.03516h-3.88477A1.708,1.708,0,0,0,174.157,464.917a1.92507,1.92507,0,0,0-1.70117.80762,4.3606,4.3606,0,0,0,0,4.26367,1.851,1.851,0,0,0,1.62695.8086,2.01133,2.01133,0,0,0,1.05078-.23047,1.94708,1.94708,0,0,0,.67188-.82032h3.88477a5.2111,5.2111,0,0,1-1.99415,3.00391,5.928,5.928,0,0,1-3.61328,1.11328A5.67962,5.67962,0,0,1,169.87285,472.22461Z"/><path class="cls-6" d="M182.39922,472.18262a6.75172,6.75172,0,0,1,0-8.62012,4.95393,4.95393,0,0,1,3.791-1.69141,3.97872,3.97872,0,0,1,3.43359,1.66016v-1.5332h3.58984v11.71777h-3.58984v-1.70117a4.06257,4.06257,0,0,1-3.48633,1.84863A4.91078,4.91078,0,0,1,182.39922,472.18262Zm6.44727-2.1836a2.85392,2.85392,0,0,0,.77734-2.1416,2.82111,2.82111,0,0,0-.77734-2.13281,2.49956,2.49956,0,0,0-3.57032.01172,2.85088,2.85088,0,0,0-.77734,2.1416,2.81876,2.81876,0,0,0,.77734,2.13184,2.49843,2.49843,0,0,0,3.57032-.01075Z"/><rect class="cls-5" x="330.12004" y="368.80478" width="70.28743" height="198.88026" rx="7" transform="translate(833.50867 102.98116) rotate(90)"/><rect class="cls-5" x="541.94383" y="368.80478" width="70.28743" height="198.88026" rx="7" transform="translate(1045.33246 -108.84263) rotate(90)"/><rect class="cls-5" x="753.76762" y="368.80478" width="70.28743" height="198.88026" transform="translate(1257.15625 -320.66642) rotate(90)"/><rect class="cls-5" x="1177.4152" y="368.80478" width="70.28743" height="198.88026" rx="7" transform="translate(1680.80382 -744.314) rotate(90)"/><path class="cls-4" d="M737.6668,159.82715H734.075V145.085h3.5918v6.46826l4.87109-6.46826H747.243l-6.07031,7.37109,6.07031,7.3711h-4.62109l-4.95508-6.50977Z"/><path class="cls-4" d="M757.1541,148.10938h3.59082v11.71777H757.1541V158.105a3.83385,3.83385,0,0,1-3.5498,1.84814,4.25025,4.25025,0,0,1-3.26465-1.34374,5.15445,5.15445,0,0,1-1.249-3.6543v-6.8457H752.66v6.36279a2.41863,2.41863,0,0,0,.59863,1.75342,2.50257,2.50257,0,0,0,3.29688,0,2.42278,2.42278,0,0,0,.59863-1.75342Z"/><path class="cls-4" d="M767.48516,149.64209a3.97915,3.97915,0,0,1,3.43359-1.65918,4.9564,4.9564,0,0,1,3.791,1.69092,6.755,6.755,0,0,1,0,8.62012,4.93382,4.93382,0,0,1-3.75977,1.68017,3.975,3.975,0,0,1-3.46484-1.84814v1.70117h-3.58985v-15.54h3.58985Zm4.34765,6.47852a2.81688,2.81688,0,0,0,.77735-2.13135,2.85281,2.85281,0,0,0-.77735-2.14209,2.4984,2.4984,0,0,0-3.57031-.01074,2.81874,2.81874,0,0,0-.77734,2.13183,2.8543,2.8543,0,0,0,.77734,2.14209,2.49784,2.49784,0,0,0,3.57031.01026Z"/><path class="cls-4" d="M783.53008,159.97412a5.665,5.665,0,0,1-4.2002-1.64844,5.93631,5.93631,0,0,1-1.63769-4.37841,5.85369,5.85369,0,0,1,1.62695-4.34717,5.71891,5.71891,0,0,1,4.21094-1.61719,6.012,6.012,0,0,1,4.2832,1.59619,5.77762,5.77762,0,0,1,1.70117,4.43115,7.10449,7.10449,0,0,1-.084,1.13379H781.367a2.0453,2.0453,0,0,0,1.96387,1.76416,2.85107,2.85107,0,0,0,1.01758-.13672,1.807,1.807,0,0,0,.49414-.27294,3.57828,3.57828,0,0,0,.40918-.45118h3.88574a5.14894,5.14894,0,0,1-2.0166,2.84522A6.01,6.01,0,0,1,783.53008,159.97412Zm1.5332-8.41064a2.28694,2.28694,0,0,0-1.49121-.51416,2.12252,2.12252,0,0,0-1.44922.51416,2.24185,2.24185,0,0,0-.73535,1.33349h4.38867A1.90678,1.90678,0,0,0,785.06328,151.56348Z"/><path class="cls-4" d="M795.41582,148.10938V150.293a3.775,3.775,0,0,1,3.36035-2.31006v3.6543h-.88281a2.6058,2.6058,0,0,0-1.85742.58789,2.76676,2.76676,0,0,0-.62012,2.0581v5.54395H791.825V148.10938Z"/><path class="cls-4" d="M804.31914,148.10938v1.72167a3.8362,3.8362,0,0,1,3.54883-1.84814,4.24981,4.24981,0,0,1,3.26562,1.34424,5.15086,5.15086,0,0,1,1.25,3.65381v6.84619h-3.57031v-6.36279a2.42369,2.42369,0,0,0-.59765-1.75391,2.504,2.504,0,0,0-3.29688,0,2.42025,2.42025,0,0,0-.59961,1.75391v6.36279H800.7293V148.10938Z"/><path class="cls-4" d="M820.40508,159.97412a5.66433,5.66433,0,0,1-4.19922-1.64844,5.93692,5.93692,0,0,1-1.63867-4.37841,5.85753,5.85753,0,0,1,1.62695-4.34717,5.722,5.722,0,0,1,4.21094-1.61719,6.01435,6.01435,0,0,1,4.28418,1.59619,5.78114,5.78114,0,0,1,1.70117,4.43115,7.22041,7.22041,0,0,1-.084,1.13379H818.243a2.04535,2.04535,0,0,0,1.96289,1.76416,2.85346,2.85346,0,0,0,1.01855-.13672,1.81391,1.81391,0,0,0,.49317-.27294,3.56993,3.56993,0,0,0,.41016-.45118h3.88476a5.1473,5.1473,0,0,1-2.01562,2.84522A6.01089,6.01089,0,0,1,820.40508,159.97412Zm1.5332-8.41064a2.2843,2.2843,0,0,0-1.49023-.51416,2.12078,2.12078,0,0,0-1.44922.51416,2.23674,2.23674,0,0,0-.73535,1.33349h4.38867A1.90789,1.90789,0,0,0,821.93828,151.56348Z"/><path class="cls-4" d="M833.67656,156.78223h1.28125v3.04492h-1.82617a4.754,4.754,0,0,1-3.05566-.87158,3.63682,3.63682,0,0,1-1.08106-2.99219v-4.87207h-1.09277v-2.98193h1.09277v-2.85645h3.58985v2.85645h2.35254v2.98193h-2.35254v4.87207Q832.58477,156.78223,833.67656,156.78223Z"/><path class="cls-4" d="M842.39141,159.97412a5.66586,5.66586,0,0,1-4.19922-1.64844,5.94078,5.94078,0,0,1-1.63867-4.37841,5.85429,5.85429,0,0,1,1.62793-4.34717,5.7197,5.7197,0,0,1,4.21-1.61719,6.01834,6.01834,0,0,1,4.28515,1.59619,5.78115,5.78115,0,0,1,1.70118,4.43115,7.33891,7.33891,0,0,1-.084,1.13379H840.2293a2.04742,2.04742,0,0,0,1.96289,1.76416,2.86324,2.86324,0,0,0,1.01953-.13672,1.80582,1.80582,0,0,0,.49219-.27294,3.57,3.57,0,0,0,.41015-.45118h3.88477a5.14727,5.14727,0,0,1-2.01563,2.84522A6.00878,6.00878,0,0,1,842.39141,159.97412Zm1.5332-8.41064a2.28245,2.28245,0,0,0-1.49023-.51416,2.12252,2.12252,0,0,0-1.44922.51416,2.23556,2.23556,0,0,0-.73438,1.33349h4.38867A1.91262,1.91262,0,0,0,843.92461,151.56348Z"/><path class="cls-4" d="M849.88945,151.63721a3.204,3.204,0,0,1,1.32227-2.604,5.6095,5.6095,0,0,1,3.58105-1.05029,5.9635,5.9635,0,0,1,3.64356,1.0293,3.53777,3.53777,0,0,1,1.46973,2.814h-3.67481a1.03005,1.03005,0,0,0-.41992-.82959,2.07656,2.07656,0,0,0-1.07129-.22021q-1.40772,0-1.40723.86084,0,.77709,1.72266,1.0708a13.97669,13.97669,0,0,1,3.16992.90332,2.75026,2.75026,0,0,1,1.72266,2.646,3.19122,3.19122,0,0,1-1.40625,2.67725,5.81712,5.81712,0,0,1-3.54981,1.03955,6.17891,6.17891,0,0,1-3.56933-.97656,3.57533,3.57533,0,0,1-1.55469-2.88721h3.67578q.14649,1.0708,1.51172,1.0708a1.73607,1.73607,0,0,0,1.03906-.29394.89334.89334,0,0,0,.41016-.75586q0-.46216-.6836-.73535a9.29863,9.29863,0,0,0-1.64843-.46192q-.96534-.189-1.94141-.47265a3.70218,3.70218,0,0,1-1.66016-.98682A2.52617,2.52617,0,0,1,849.88945,151.63721Z"/><path class="cls-4" d="M872.44219,159.82715,867.21367,145.085h3.82227l3.6543,11.23535,3.65332-11.23535h3.82226l-5.22949,14.74219Z"/><path class="cls-4" d="M884.82207,158.31494a5.70019,5.70019,0,0,1-1.77441-4.36767,5.61681,5.61681,0,0,1,1.76367-4.33643,6.66133,6.66133,0,0,1,8.72656,0,5.63632,5.63632,0,0,1,1.75293,4.33643,5.75081,5.75081,0,0,1-1.74316,4.36767,6.05712,6.05712,0,0,1-4.34668,1.65918A6.16689,6.16689,0,0,1,884.82207,158.31494Zm6.10059-2.1626a3.06111,3.06111,0,0,0,.71484-2.18408,2.971,2.971,0,0,0-.73633-2.17383,2.36539,2.36539,0,0,0-1.74218-.74511,2.33187,2.33187,0,0,0-1.73243.74511,3.598,3.598,0,0,0,.02051,4.35791,2.38333,2.38333,0,0,0,1.75391.75586A2.28383,2.28383,0,0,0,890.92266,156.15234Z"/><path class="cls-4" d="M897.60039,159.82715v-15.54h3.5918v15.54Z"/><path class="cls-4" d="M912.30156,148.10938h3.58985v11.71777h-3.58985V158.105a3.83487,3.83487,0,0,1-3.5498,1.84814,4.24881,4.24881,0,0,1-3.26465-1.34374,5.15055,5.15055,0,0,1-1.25-3.6543v-6.8457h3.57031v6.36279a2.4224,2.4224,0,0,0,.59766,1.75342,2.50256,2.50256,0,0,0,3.29687,0,2.419,2.419,0,0,0,.59961-1.75342Z"/><path class="cls-4" d="M922.63262,148.10938v1.72167a3.83414,3.83414,0,0,1,3.54883-1.84814,4.56,4.56,0,0,1,2.32129.58838,4.04943,4.04943,0,0,1,1.585,1.67969,5.00717,5.00717,0,0,1,1.69043-1.64844,4.88077,4.88077,0,0,1,5.72265.70361,5.11391,5.11391,0,0,1,1.25977,3.67481v6.84619h-3.57031v-6.36279a2.42365,2.42365,0,0,0-.59766-1.75391,2.504,2.504,0,0,0-3.29688,0,2.42025,2.42025,0,0,0-.59961,1.75391v6.36279h-3.56933v-6.36279a2.42407,2.42407,0,0,0-.59863-1.75391,2.504,2.504,0,0,0-3.29688,0,2.424,2.424,0,0,0-.59863,1.75391v6.36279H919.0418V148.10938Z"/><path class="cls-4" d="M946.782,159.97412a5.66586,5.66586,0,0,1-4.19922-1.64844,5.94082,5.94082,0,0,1-1.63867-4.37841,5.85429,5.85429,0,0,1,1.62793-4.34717,5.71971,5.71971,0,0,1,4.21-1.61719,6.01837,6.01837,0,0,1,4.28516,1.59619,5.78114,5.78114,0,0,1,1.70117,4.43115,7.3402,7.3402,0,0,1-.084,1.13379h-8.06446a2.04742,2.04742,0,0,0,1.96289,1.76416,2.86321,2.86321,0,0,0,1.01953-.13672,1.80567,1.80567,0,0,0,.49219-.27294,3.56993,3.56993,0,0,0,.41016-.45118h3.88476a5.14725,5.14725,0,0,1-2.01562,2.84522A6.00881,6.00881,0,0,1,946.782,159.97412Zm1.53321-8.41064a2.28248,2.28248,0,0,0-1.49024-.51416,2.12252,2.12252,0,0,0-1.44922.51416,2.2355,2.2355,0,0,0-.73437,1.33349h4.38867A1.91262,1.91262,0,0,0,948.31524,151.56348Z"/><path class="cls-4" d="M1057.06524,159.82715h-3.59083V145.085h3.59083v6.46826l4.87207-6.46826h4.7041l-6.06934,7.37109,6.06934,7.3711h-4.62012l-4.95605-6.50977Z"/><path class="cls-4" d="M1076.55352,148.10938h3.58984v11.71777h-3.58984V158.105a3.83489,3.83489,0,0,1-3.54981,1.84814,4.24881,4.24881,0,0,1-3.26465-1.34374,5.15055,5.15055,0,0,1-1.25-3.6543v-6.8457h3.57032v6.36279a2.4224,2.4224,0,0,0,.59765,1.75342,2.50257,2.50257,0,0,0,3.29688,0,2.419,2.419,0,0,0,.59961-1.75342Z"/><path class="cls-4" d="M1086.88457,149.64209a3.97679,3.97679,0,0,1,3.43359-1.65918,4.95287,4.95287,0,0,1,3.79,1.69092,6.75172,6.75172,0,0,1,0,8.62012,4.93176,4.93176,0,0,1-3.75879,1.68017,3.97387,3.97387,0,0,1-3.46484-1.84814v1.70117h-3.59082v-15.54h3.59082Zm4.34668,6.47852a2.81687,2.81687,0,0,0,.77734-2.13135,2.8528,2.8528,0,0,0-.77734-2.14209,2.4984,2.4984,0,0,0-3.57031-.01074,2.81828,2.81828,0,0,0-.77637,2.13183,2.85383,2.85383,0,0,0,.77637,2.14209,2.49784,2.49784,0,0,0,3.57031.01026Z"/><path class="cls-4" d="M1102.92852,159.97412a5.66431,5.66431,0,0,1-4.19922-1.64844,5.93688,5.93688,0,0,1-1.63867-4.37841,5.85749,5.85749,0,0,1,1.627-4.34717,5.722,5.722,0,0,1,4.21094-1.61719,6.01437,6.01437,0,0,1,4.28418,1.59619,5.78114,5.78114,0,0,1,1.70117,4.43115,7.21916,7.21916,0,0,1-.084,1.13379h-8.06347a2.04535,2.04535,0,0,0,1.96289,1.76416,2.85346,2.85346,0,0,0,1.01855-.13672,1.81391,1.81391,0,0,0,.49317-.27294,3.57,3.57,0,0,0,.41015-.45118h3.88477a5.14727,5.14727,0,0,1-2.01563,2.84522A6.01086,6.01086,0,0,1,1102.92852,159.97412Zm1.5332-8.41064a2.2843,2.2843,0,0,0-1.49023-.51416,2.12078,2.12078,0,0,0-1.44922.51416,2.2368,2.2368,0,0,0-.73536,1.33349h4.38868A1.90792,1.90792,0,0,0,1104.46172,151.56348Z"/><path class="cls-4" d="M1114.81524,148.10938V150.293a3.77367,3.77367,0,0,1,3.35937-2.31006v3.6543h-.88184a2.6084,2.6084,0,0,0-1.85839.58789,2.771,2.771,0,0,0-.61914,2.0581v5.54395h-3.5918V148.10938Z"/><path class="cls-4" d="M1123.71856,148.10938v1.72167a3.83414,3.83414,0,0,1,3.54882-1.84814,4.25128,4.25128,0,0,1,3.26563,1.34424,5.15481,5.15481,0,0,1,1.249,3.65381v6.84619h-3.56933v-6.36279a2.424,2.424,0,0,0-.59864-1.75391,2.504,2.504,0,0,0-3.29687,0,2.424,2.424,0,0,0-.59863,1.75391v6.36279h-3.59082V148.10938Z"/><path class="cls-4" d="M1139.80352,159.97412a5.66585,5.66585,0,0,1-4.19922-1.64844,5.94078,5.94078,0,0,1-1.63867-4.37841,5.85425,5.85425,0,0,1,1.62793-4.34717,5.7197,5.7197,0,0,1,4.21-1.61719,6.01834,6.01834,0,0,1,4.28515,1.59619,5.78114,5.78114,0,0,1,1.70117,4.43115,7.339,7.339,0,0,1-.084,1.13379h-8.06445a2.04742,2.04742,0,0,0,1.96289,1.76416,2.86324,2.86324,0,0,0,1.01953-.13672,1.80582,1.80582,0,0,0,.49219-.27294,3.57,3.57,0,0,0,.41015-.45118h3.88477a5.14727,5.14727,0,0,1-2.01563,2.84522A6.00878,6.00878,0,0,1,1139.80352,159.97412Zm1.5332-8.41064a2.28245,2.28245,0,0,0-1.49023-.51416,2.12252,2.12252,0,0,0-1.44922.51416,2.23556,2.23556,0,0,0-.73438,1.33349h4.38867A1.91262,1.91262,0,0,0,1141.33672,151.56348Z"/><path class="cls-4" d="M1153.076,156.78223h1.28125v3.04492h-1.82715a4.751,4.751,0,0,1-3.05469-.87158,3.63708,3.63708,0,0,1-1.082-2.99219v-4.87207h-1.0918v-2.98193h1.0918v-2.85645h3.59082v2.85645h2.35254v2.98193h-2.35254v4.87207Q1151.98418,156.78223,1153.076,156.78223Z"/><path class="cls-4" d="M1161.79082,159.97412a5.66654,5.66654,0,0,1-4.20019-1.64844,5.94017,5.94017,0,0,1-1.6377-4.37841,5.85046,5.85046,0,0,1,1.62793-4.34717,5.71662,5.71662,0,0,1,4.21-1.61719,6.016,6.016,0,0,1,4.28418,1.59619,5.77762,5.77762,0,0,1,1.70117,4.43115,7.22041,7.22041,0,0,1-.084,1.13379h-8.06445a2.04733,2.04733,0,0,0,1.96386,1.76416,2.86085,2.86085,0,0,0,1.01856-.13672,1.79878,1.79878,0,0,0,.49316-.27294,3.57828,3.57828,0,0,0,.40918-.45118h3.88574a5.1489,5.1489,0,0,1-2.0166,2.84522A6.00788,6.00788,0,0,1,1161.79082,159.97412Zm1.5332-8.41064a2.28507,2.28507,0,0,0-1.49121-.51416,2.12426,2.12426,0,0,0-1.44922.51416,2.24061,2.24061,0,0,0-.73437,1.33349h4.38867A1.91149,1.91149,0,0,0,1163.324,151.56348Z"/><path class="cls-4" d="M1169.28789,151.63721a3.205,3.205,0,0,1,1.32324-2.604,5.60579,5.60579,0,0,1,3.58106-1.05029,5.96243,5.96243,0,0,1,3.64258,1.0293,3.54142,3.54142,0,0,1,1.4707,2.814h-3.67578a1.02741,1.02741,0,0,0-.41992-.82959,2.07259,2.07259,0,0,0-1.07032-.22021q-1.4077,0-1.40722.86084,0,.77709,1.72168,1.0708a13.99986,13.99986,0,0,1,3.1709.90332,2.74772,2.74772,0,0,1,1.72168,2.646,3.19122,3.19122,0,0,1-1.40625,2.67725,5.81409,5.81409,0,0,1-3.54883,1.03955,6.18219,6.18219,0,0,1-3.57032-.97656,3.57791,3.57791,0,0,1-1.55468-2.88721h3.67578q.14647,1.0708,1.51172,1.0708a1.734,1.734,0,0,0,1.03906-.29394.89334.89334,0,0,0,.41016-.75586c0-.30811-.22852-.55323-.68262-.73535a9.32276,9.32276,0,0,0-1.64844-.46192q-.96532-.189-1.94238-.47265a3.69888,3.69888,0,0,1-1.65918-.98682A2.52677,2.52677,0,0,1,1169.28789,151.63721Z"/><path class="cls-4" d="M1191.8416,159.82715l-5.22949-14.74219h3.82227l3.65429,11.23535,3.6543-11.23535h3.82227l-5.2295,14.74219Z"/><path class="cls-4" d="M1204.22149,158.31494a5.69747,5.69747,0,0,1-1.7754-4.36767,5.61751,5.61751,0,0,1,1.76465-4.33643,6.66,6.66,0,0,1,8.72559,0,5.637,5.637,0,0,1,1.75391,4.33643,5.75152,5.75152,0,0,1-1.74415,4.36767,6.05477,6.05477,0,0,1-4.3457,1.65918A6.16684,6.16684,0,0,1,1204.22149,158.31494Zm6.0996-2.1626a3.06107,3.06107,0,0,0,.71485-2.18408,2.97068,2.97068,0,0,0-.73535-2.17383,2.36754,2.36754,0,0,0-1.74317-.74511,2.33339,2.33339,0,0,0-1.73242.74511,3.59611,3.59611,0,0,0,.02149,4.35791,2.38174,2.38174,0,0,0,1.7539.75586A2.28023,2.28023,0,0,0,1210.32109,156.15234Z"/><path class="cls-4" d="M1216.99981,159.82715v-15.54h3.59082v15.54Z"/><path class="cls-4" d="M1231.7,148.10938h3.59082v11.71777H1231.7V158.105a3.83432,3.83432,0,0,1-3.54883,1.84814,4.25092,4.25092,0,0,1-3.26562-1.34374,5.15051,5.15051,0,0,1-1.25-3.6543v-6.8457h3.57031v6.36279a2.41863,2.41863,0,0,0,.59863,1.75342,2.50257,2.50257,0,0,0,3.29688,0,2.41863,2.41863,0,0,0,.59863-1.75342Z"/><path class="cls-4" d="M1242.032,148.10938v1.72167a3.83313,3.83313,0,0,1,3.54883-1.84814,4.55881,4.55881,0,0,1,2.32031.58838,4.05164,4.05164,0,0,1,1.58594,1.67969,5.01311,5.01311,0,0,1,1.68945-1.64844,4.88079,4.88079,0,0,1,5.72266.70361,5.114,5.114,0,0,1,1.25977,3.67481v6.84619h-3.56934v-6.36279a2.42407,2.42407,0,0,0-.59863-1.75391,2.504,2.504,0,0,0-3.29688,0,2.424,2.424,0,0,0-.59863,1.75391v6.36279h-3.56934v-6.36279a2.42021,2.42021,0,0,0-.59961-1.75391,2.504,2.504,0,0,0-3.29687,0,2.42365,2.42365,0,0,0-.59766,1.75391v6.36279h-3.59179V148.10938Z"/><path class="cls-4" d="M1266.18145,159.97412a5.66658,5.66658,0,0,1-4.2002-1.64844,5.94017,5.94017,0,0,1-1.63769-4.37841,5.85046,5.85046,0,0,1,1.62793-4.34717,5.71662,5.71662,0,0,1,4.21-1.61719,6.016,6.016,0,0,1,4.28418,1.59619,5.77765,5.77765,0,0,1,1.70117,4.43115,7.21916,7.21916,0,0,1-.084,1.13379h-8.06445a2.04735,2.04735,0,0,0,1.96387,1.76416,2.86079,2.86079,0,0,0,1.01855-.13672,1.799,1.799,0,0,0,.49317-.27294,3.57905,3.57905,0,0,0,.40918-.45118h3.88574a5.14894,5.14894,0,0,1-2.0166,2.84522A6.0079,6.0079,0,0,1,1266.18145,159.97412Zm1.5332-8.41064a2.28507,2.28507,0,0,0-1.49121-.51416,2.12426,2.12426,0,0,0-1.44922.51416,2.24062,2.24062,0,0,0-.73438,1.33349h4.38868A1.91152,1.91152,0,0,0,1267.71465,151.56348Z"/><path class="cls-6" d="M217.79818,189.68484a15.791,15.791,0,1,0-15.79111,15.7909h.00011A15.79274,15.79274,0,0,0,217.79818,189.68484Z"/><line class="cls-7" x1="202.00664" y1="189.28214" x2="202.00664" y2="246.09665"/><polygon class="cls-8" points="194.527 243.908 202.007 256.861 209.486 243.908 194.527 243.908"/><path class="cls-8" d="M194.11137,189.67691a7.89551,7.89551,0,1,1,7.89557,7.89545h-.00006A7.89639,7.89639,0,0,1,194.11137,189.67691Z"/><rect class="cls-5" x="807.85765" y="145.50049" width="70.28743" height="299.60022" rx="7" transform="translate(1138.30196 -547.70077) rotate(90)"/><path class="cls-6" d="M815.45977,285.9873v2.73h-5.334v3.17138h4.7041v2.73h-4.7041v3.42285h5.334v2.73H806.535V285.9873Z"/><path class="cls-6" d="M822.1375,289.05371v1.72168a3.83518,3.83518,0,0,1,3.54883-1.84814,4.25272,4.25272,0,0,1,3.26562,1.34423,5.15528,5.15528,0,0,1,1.25,3.65381v6.84619h-3.57031v-6.36279a2.41983,2.41983,0,0,0-.59863-1.7539,2.504,2.504,0,0,0-3.29688,0,2.41983,2.41983,0,0,0-.59863,1.7539v6.36279h-3.59082V289.05371Z"/><path class="cls-6" d="M833.93926,299.23828a6.755,6.755,0,0,1,0-8.62012,4.9558,4.9558,0,0,1,3.79-1.69091,3.97679,3.97679,0,0,1,3.43359,1.65918v-1.53272h3.5918V300.7085a6.2465,6.2465,0,0,1-1.34473,4.09521,4.33982,4.33982,0,0,1-1.83691,1.30176,8.56739,8.56739,0,0,1-6.96192-.62988,4.30942,4.30942,0,0,1-1.78515-3.33887h3.52832q.50391,1.32274,2.51953,1.32275a2.2051,2.2051,0,0,0,1.63867-.66162,2.88759,2.88759,0,0,0,.65039-2.08935v-1.63819a4.05742,4.05742,0,0,1-3.48633,1.84815A4.911,4.911,0,0,1,833.93926,299.23828Zm6.44629-2.18359a2.85057,2.85057,0,0,0,.77734-2.14209,2.81509,2.81509,0,0,0-.77734-2.13184,2.49725,2.49725,0,0,0-3.56934.01074,2.84863,2.84863,0,0,0-.77637,2.14209,2.81273,2.81273,0,0,0,.77637,2.13135,2.49667,2.49667,0,0,0,3.56934-.01025Z"/><path class="cls-6" d="M851.18047,287.73047a2.15446,2.15446,0,1,1,.60937-1.50147A2.02617,2.02617,0,0,1,851.18047,287.73047Zm-3.27539,13.041V289.05371h3.58984v11.71777Z"/><path class="cls-6" d="M858.23711,289.05371v1.72168a3.83313,3.83313,0,0,1,3.54883-1.84814,4.25417,4.25417,0,0,1,3.26562,1.34423,5.15924,5.15924,0,0,1,1.249,3.65381v6.84619h-3.56934v-6.36279a2.42017,2.42017,0,0,0-.59961-1.7539,2.504,2.504,0,0,0-3.29687,0,2.42361,2.42361,0,0,0-.59766,1.7539v6.36279h-3.5918V289.05371Z"/><path class="cls-6" d="M874.32207,300.91846a5.66654,5.66654,0,0,1-4.20019-1.64844,5.94018,5.94018,0,0,1-1.6377-4.37842,5.85049,5.85049,0,0,1,1.62793-4.34717,5.71665,5.71665,0,0,1,4.21-1.61718,6.01594,6.01594,0,0,1,4.28418,1.59619,5.77759,5.77759,0,0,1,1.70117,4.43115,7.22041,7.22041,0,0,1-.084,1.13379H872.159a2.04733,2.04733,0,0,0,1.96386,1.76416,2.86085,2.86085,0,0,0,1.01856-.13672,1.7985,1.7985,0,0,0,.49316-.27295,3.57732,3.57732,0,0,0,.40918-.45117h3.88574a5.14887,5.14887,0,0,1-2.0166,2.84521A6.00782,6.00782,0,0,1,874.32207,300.91846Zm1.5332-8.41065a2.28513,2.28513,0,0,0-1.49121-.51416,2.1243,2.1243,0,0,0-1.44922.51416,2.24064,2.24064,0,0,0-.73437,1.3335h4.38867A1.91151,1.91151,0,0,0,875.85527,292.50781Z"/><path class="cls-6" d="M856.99868,189.68484a15.791,15.791,0,1,0-15.7911,15.7909h.0001A15.79273,15.79273,0,0,0,856.99868,189.68484Z"/><line class="cls-7" x1="841.20732" y1="189.28214" x2="841.20732" y2="246.09665"/><polygon class="cls-8" points="833.728 243.908 841.207 256.861 848.687 243.908 833.728 243.908"/><path class="cls-8" d="M833.31187,189.67691a7.89551,7.89551,0,1,1,7.89557,7.89545h-.00006A7.89639,7.89639,0,0,1,833.31187,189.67691Z"/><rect class="cls-5" x="1127.25694" y="145.70141" width="70.28743" height="299.19836" rx="7" transform="translate(1457.70125 -867.10006) rotate(90)"/><path class="cls-6" d="M1134.8582,285.9873v2.73h-5.334v3.17138h4.70508v2.73h-4.70508v3.42285h5.334v2.73h-8.92382V285.9873Z"/><path class="cls-6" d="M1141.53594,289.05371v1.72168a3.8362,3.8362,0,0,1,3.54883-1.84814,4.24985,4.24985,0,0,1,3.26562,1.34423,5.15088,5.15088,0,0,1,1.25,3.65381v6.84619h-3.57031v-6.36279a2.42361,2.42361,0,0,0-.59766-1.7539,2.504,2.504,0,0,0-3.29687,0,2.42017,2.42017,0,0,0-.59961,1.7539v6.36279h-3.58985V289.05371Z"/><path class="cls-6" d="M1153.33867,299.23828a6.75175,6.75175,0,0,1,0-8.62012,4.95289,4.95289,0,0,1,3.79-1.69091,3.97682,3.97682,0,0,1,3.4336,1.65918v-1.53272h3.59082V300.7085a6.246,6.246,0,0,1-1.34375,4.09521,4.34323,4.34323,0,0,1-1.83789,1.30176,8.565,8.565,0,0,1-6.96094-.62988,4.30659,4.30659,0,0,1-1.78516-3.33887h3.52735q.5039,1.32274,2.5205,1.32275a2.20291,2.20291,0,0,0,1.6377-.66162,2.88767,2.88767,0,0,0,.65137-2.08935v-1.63819a4.05978,4.05978,0,0,1-3.48633,1.84815A4.90806,4.90806,0,0,1,1153.33867,299.23828Zm6.44629-2.18359a2.85054,2.85054,0,0,0,.77735-2.14209,2.81506,2.81506,0,0,0-.77735-2.13184,2.49724,2.49724,0,0,0-3.56933.01074,2.84906,2.84906,0,0,0-.77735,2.14209,2.81316,2.81316,0,0,0,.77735,2.13135,2.49666,2.49666,0,0,0,3.56933-.01025Z"/><path class="cls-6" d="M1170.57891,287.73047a2.15446,2.15446,0,1,1,.60937-1.50147A2.02555,2.02555,0,0,1,1170.57891,287.73047Zm-3.27539,13.041V289.05371h3.59082v11.71777Z"/><path class="cls-6" d="M1177.63555,289.05371v1.72168a3.83517,3.83517,0,0,1,3.54883-1.84814,4.25274,4.25274,0,0,1,3.26562,1.34423,5.15528,5.15528,0,0,1,1.25,3.65381v6.84619h-3.57031v-6.36279a2.41983,2.41983,0,0,0-.59863-1.7539,2.504,2.504,0,0,0-3.29688,0,2.41983,2.41983,0,0,0-.59863,1.7539v6.36279h-3.59082V289.05371Z"/><path class="cls-6" d="M1193.72149,300.91846a5.665,5.665,0,0,1-4.2002-1.64844,5.93632,5.93632,0,0,1-1.6377-4.37842,5.85373,5.85373,0,0,1,1.627-4.34717,5.71894,5.71894,0,0,1,4.21094-1.61718,6.01194,6.01194,0,0,1,4.2832,1.59619,5.77762,5.77762,0,0,1,1.70117,4.43115,7.10449,7.10449,0,0,1-.084,1.13379h-8.06348a2.04528,2.04528,0,0,0,1.96387,1.76416,2.851,2.851,0,0,0,1.01757-.13672,1.80678,1.80678,0,0,0,.49415-.27295,3.5774,3.5774,0,0,0,.40917-.45117h3.88575a5.14892,5.14892,0,0,1-2.0166,2.84521A6.0099,6.0099,0,0,1,1193.72149,300.91846Zm1.5332-8.41065a2.287,2.287,0,0,0-1.49121-.51416,2.12257,2.12257,0,0,0-1.44922.51416,2.24183,2.24183,0,0,0-.73535,1.3335h4.38867A1.90684,1.90684,0,0,0,1195.25469,292.50781Z"/><path class="cls-6" d="M1176.39758,189.68484a15.791,15.791,0,1,0-15.79111,15.7909h.00011A15.79274,15.79274,0,0,0,1176.39758,189.68484Z"/><line class="cls-7" x1="1160.60625" y1="189.28214" x2="1160.60625" y2="246.09665"/><polygon class="cls-8" points="1153.127 243.908 1160.606 256.861 1168.086 243.908 1153.127 243.908"/><path class="cls-8" d="M1152.71076,189.67691a7.89551,7.89551,0,1,1,7.89557,7.89545h-.00006A7.8964,7.8964,0,0,1,1152.71076,189.67691Z"/><path class="cls-6" d="M329.08086,467.98242v5.7334H325.49V458.97363h5.81738a5.64961,5.64961,0,0,1,3.98926,1.32325,4.19562,4.19562,0,0,1,1.42871,3.1914,4.59945,4.59945,0,0,1-.77734,2.5,4.24447,4.24447,0,0,1-2.541,1.72168l3.61133,6.00586h-4.19922l-3.31836-5.7334Zm0-6.2793v3.54981h2.22656a1.72259,1.72259,0,0,0,1.291-.4834,1.74035,1.74035,0,0,0,.47265-1.26953,1.78973,1.78973,0,0,0-.48339-1.292,1.68938,1.68938,0,0,0-1.28028-.50489Z"/><path class="cls-6" d="M344.49492,473.86328a5.66687,5.66687,0,0,1-4.20019-1.64844,5.93744,5.93744,0,0,1-1.6377-4.3789,5.85407,5.85407,0,0,1,1.627-4.34766,5.72084,5.72084,0,0,1,4.21093-1.61719,6.01448,6.01448,0,0,1,4.28321,1.59668,5.77654,5.77654,0,0,1,1.70117,4.43067,7.11692,7.11692,0,0,1-.084,1.13476h-8.06347a2.04665,2.04665,0,0,0,1.96386,1.76368,2.84012,2.84012,0,0,0,1.01758-.13672,1.79294,1.79294,0,0,0,.49414-.27344,3.44211,3.44211,0,0,0,.40918-.45117h3.88574a5.15,5.15,0,0,1-2.0166,2.8457A6.01362,6.01362,0,0,1,344.49492,473.86328Zm1.53321-8.41113a2.28741,2.28741,0,0,0-1.49122-.51465,2.12291,2.12291,0,0,0-1.44921.51465,2.242,2.242,0,0,0-.73536,1.333H346.741A1.90675,1.90675,0,0,0,346.02813,465.45215Z"/><path class="cls-6" d="M356.38066,463.53125a3.9764,3.9764,0,0,1,3.4336-1.66016,4.95337,4.95337,0,0,1,3.79,1.69141,6.75172,6.75172,0,0,1,0,8.62012,4.93393,4.93393,0,0,1-3.75879,1.68066,3.97433,3.97433,0,0,1-3.46485-1.84863v7.28711h-3.59082V461.99805h3.59082Zm4.34668,6.47852a2.81876,2.81876,0,0,0,.77735-2.13184,2.85089,2.85089,0,0,0-.77735-2.1416,2.49955,2.49955,0,0,0-3.57031-.01172,2.82062,2.82062,0,0,0-.77637,2.13281,2.85341,2.85341,0,0,0,.77637,2.1416,2.49841,2.49841,0,0,0,3.57031.01075Z"/><path class="cls-6" d="M367.44805,473.71582v-15.54h3.59082v15.54Z"/><path class="cls-6" d="M377.46563,460.6748a2.15694,2.15694,0,1,1,.60839-1.501A2.02795,2.02795,0,0,1,377.46563,460.6748Zm-3.27637,13.041V461.99805h3.59082v11.71777Z"/><path class="cls-6" d="M381.69609,472.22461a6.66175,6.66175,0,0,1,0-8.72461,5.69769,5.69769,0,0,1,4.21094-1.62891,6.1122,6.1122,0,0,1,3.63281,1.06055,5.04709,5.04709,0,0,1,1.97461,3.03516h-3.88476a1.7089,1.7089,0,0,0-1.64844-1.04981,1.92507,1.92507,0,0,0-1.70117.80762,4.3606,4.3606,0,0,0,0,4.26367,1.84988,1.84988,0,0,0,1.627.8086,2.01373,2.01373,0,0,0,1.05078-.23047,1.95425,1.95425,0,0,0,.67188-.82032h3.88476a5.21253,5.21253,0,0,1-1.99511,3.00391,5.92516,5.92516,0,0,1-3.61231,1.11328A5.68188,5.68188,0,0,1,381.69609,472.22461Z"/><path class="cls-6" d="M394.22344,472.18262a6.75172,6.75172,0,0,1,0-8.62012,4.95336,4.95336,0,0,1,3.79-1.69141,3.97637,3.97637,0,0,1,3.43359,1.66016v-1.5332h3.59082v11.71777h-3.59082v-1.70117a4.0602,4.0602,0,0,1-3.48633,1.84863A4.91023,4.91023,0,0,1,394.22344,472.18262Zm6.44629-2.1836a2.85013,2.85013,0,0,0,.77734-2.1416,2.8174,2.8174,0,0,0-.77734-2.13281,2.4984,2.4984,0,0,0-3.56934.01172,2.84715,2.84715,0,0,0-.77734,2.1416,2.81509,2.81509,0,0,0,.77734,2.13184,2.49726,2.49726,0,0,0,3.56934-.01075Z"/><path class="cls-6" d="M540.90508,467.98242v5.7334h-3.59082V458.97363h5.81738a5.64961,5.64961,0,0,1,3.98926,1.32325,4.19562,4.19562,0,0,1,1.42871,3.1914,4.59954,4.59954,0,0,1-.77734,2.5,4.24447,4.24447,0,0,1-2.541,1.72168l3.61133,6.00586h-4.19922l-3.31836-5.7334Zm0-6.2793v3.54981h2.22656a1.7226,1.7226,0,0,0,1.291-.4834,1.74035,1.74035,0,0,0,.47265-1.26953,1.7897,1.7897,0,0,0-.4834-1.292,1.68934,1.68934,0,0,0-1.28027-.50489Z"/><path class="cls-6" d="M556.31914,473.86328a5.66687,5.66687,0,0,1-4.20019-1.64844,5.93744,5.93744,0,0,1-1.6377-4.3789,5.85411,5.85411,0,0,1,1.62695-4.34766,5.72086,5.72086,0,0,1,4.21094-1.61719,6.01444,6.01444,0,0,1,4.2832,1.59668,5.77651,5.77651,0,0,1,1.70118,4.43067,7.11692,7.11692,0,0,1-.084,1.13476h-8.06347a2.04665,2.04665,0,0,0,1.96386,1.76368,2.84015,2.84015,0,0,0,1.01758-.13672,1.79294,1.79294,0,0,0,.49414-.27344,3.44211,3.44211,0,0,0,.40918-.45117h3.88574a5.15,5.15,0,0,1-2.0166,2.8457A6.01362,6.01362,0,0,1,556.31914,473.86328Zm1.5332-8.41113a2.28737,2.28737,0,0,0-1.49121-.51465,2.12294,2.12294,0,0,0-1.44922.51465,2.242,2.242,0,0,0-.73535,1.333h4.38868A1.90672,1.90672,0,0,0,557.85234,465.45215Z"/><path class="cls-6" d="M568.20488,463.53125a3.9764,3.9764,0,0,1,3.4336-1.66016,4.95337,4.95337,0,0,1,3.79,1.69141,6.75175,6.75175,0,0,1,0,8.62012,4.934,4.934,0,0,1-3.75879,1.68066,3.97433,3.97433,0,0,1-3.46485-1.84863v7.28711h-3.59082V461.99805h3.59082Zm4.34668,6.47852a2.81876,2.81876,0,0,0,.77735-2.13184,2.85089,2.85089,0,0,0-.77735-2.1416,2.49955,2.49955,0,0,0-3.57031-.01172,2.82062,2.82062,0,0,0-.77637,2.13281,2.85341,2.85341,0,0,0,.77637,2.1416,2.49841,2.49841,0,0,0,3.57031.01075Z"/><path class="cls-6" d="M579.27227,473.71582v-15.54h3.59082v15.54Z"/><path class="cls-6" d="M589.28984,460.6748a2.15691,2.15691,0,1,1,.6084-1.501A2.02794,2.02794,0,0,1,589.28984,460.6748Zm-3.27636,13.041V461.99805h3.59082v11.71777Z"/><path class="cls-6" d="M593.52031,472.22461a6.66175,6.66175,0,0,1,0-8.72461,5.69769,5.69769,0,0,1,4.21094-1.62891,6.1122,6.1122,0,0,1,3.63281,1.06055,5.04714,5.04714,0,0,1,1.97461,3.03516h-3.88476a1.7089,1.7089,0,0,0-1.64844-1.04981,1.92507,1.92507,0,0,0-1.70117.80762,4.3606,4.3606,0,0,0,0,4.26367,1.84988,1.84988,0,0,0,1.627.8086,2.01373,2.01373,0,0,0,1.05078-.23047,1.95425,1.95425,0,0,0,.67188-.82032h3.88476a5.21253,5.21253,0,0,1-1.99511,3.00391,5.92516,5.92516,0,0,1-3.61231,1.11328A5.68188,5.68188,0,0,1,593.52031,472.22461Z"/><path class="cls-6" d="M606.04766,472.18262a6.75172,6.75172,0,0,1,0-8.62012,4.95336,4.95336,0,0,1,3.79-1.69141,3.97637,3.97637,0,0,1,3.43359,1.66016v-1.5332h3.59082v11.71777h-3.59082v-1.70117a4.0602,4.0602,0,0,1-3.48633,1.84863A4.91023,4.91023,0,0,1,606.04766,472.18262Zm6.44629-2.1836a2.85013,2.85013,0,0,0,.77734-2.1416,2.8174,2.8174,0,0,0-.77734-2.13281,2.4984,2.4984,0,0,0-3.56934.01172,2.84715,2.84715,0,0,0-.77734,2.1416,2.81509,2.81509,0,0,0,.77734,2.13184,2.49726,2.49726,0,0,0,3.56934-.01075Z"/><path class="cls-6" d="M752.7293,467.98242v5.7334h-3.59082V458.97363h5.81738a5.64961,5.64961,0,0,1,3.98926,1.32325,4.19562,4.19562,0,0,1,1.42871,3.1914,4.59954,4.59954,0,0,1-.77734,2.5,4.24447,4.24447,0,0,1-2.541,1.72168l3.61133,6.00586h-4.19922l-3.31836-5.7334Zm0-6.2793v3.54981h2.22656a1.7226,1.7226,0,0,0,1.291-.4834,1.74035,1.74035,0,0,0,.47265-1.26953,1.7897,1.7897,0,0,0-.4834-1.292,1.68934,1.68934,0,0,0-1.28027-.50489Z"/><path class="cls-6" d="M768.14336,473.86328a5.66691,5.66691,0,0,1-4.2002-1.64844,5.93747,5.93747,0,0,1-1.63769-4.3789,5.85411,5.85411,0,0,1,1.62695-4.34766,5.72085,5.72085,0,0,1,4.21094-1.61719,6.01444,6.01444,0,0,1,4.2832,1.59668,5.77651,5.77651,0,0,1,1.70118,4.43067,7.11692,7.11692,0,0,1-.084,1.13476h-8.06348a2.04667,2.04667,0,0,0,1.96387,1.76368,2.84015,2.84015,0,0,0,1.01758-.13672,1.79294,1.79294,0,0,0,.49414-.27344,3.44211,3.44211,0,0,0,.40918-.45117h3.88574a5.15006,5.15006,0,0,1-2.0166,2.8457A6.01362,6.01362,0,0,1,768.14336,473.86328Zm1.5332-8.41113a2.28739,2.28739,0,0,0-1.49121-.51465,2.12294,2.12294,0,0,0-1.44922.51465,2.242,2.242,0,0,0-.73535,1.333h4.38867A1.90667,1.90667,0,0,0,769.67656,465.45215Z"/><path class="cls-6" d="M780.0291,463.53125a3.97638,3.97638,0,0,1,3.4336-1.66016,4.95337,4.95337,0,0,1,3.79,1.69141,6.75175,6.75175,0,0,1,0,8.62012,4.934,4.934,0,0,1-3.75879,1.68066,3.97433,3.97433,0,0,1-3.46485-1.84863v7.28711h-3.59082V461.99805h3.59082Zm4.34668,6.47852a2.81876,2.81876,0,0,0,.77735-2.13184,2.85089,2.85089,0,0,0-.77735-2.1416,2.49955,2.49955,0,0,0-3.57031-.01172,2.82062,2.82062,0,0,0-.77637,2.13281,2.85341,2.85341,0,0,0,.77637,2.1416,2.49841,2.49841,0,0,0,3.57031.01075Z"/><path class="cls-6" d="M791.09649,473.71582v-15.54h3.58984v15.54Z"/><path class="cls-6" d="M801.11309,460.6748a2.15691,2.15691,0,1,1,.6084-1.501A2.0273,2.0273,0,0,1,801.11309,460.6748Zm-3.27637,13.041V461.99805h3.5918v11.71777Z"/><path class="cls-6" d="M805.34453,472.22461a6.66175,6.66175,0,0,1,0-8.72461,5.69461,5.69461,0,0,1,4.21094-1.62891,6.11223,6.11223,0,0,1,3.63281,1.06055,5.04714,5.04714,0,0,1,1.97461,3.03516h-3.88574a1.708,1.708,0,0,0-1.64844-1.04981,1.9262,1.9262,0,0,0-1.70117.80762,4.36731,4.36731,0,0,0,0,4.26367,1.85047,1.85047,0,0,0,1.62793.8086,2.01224,2.01224,0,0,0,1.0498-.23047,1.94708,1.94708,0,0,0,.67188-.82032h3.88574A5.214,5.214,0,0,1,813.1668,472.75a5.92222,5.92222,0,0,1-3.61133,1.11328A5.67882,5.67882,0,0,1,805.34453,472.22461Z"/><path class="cls-6" d="M817.8709,472.18262a6.755,6.755,0,0,1,0-8.62012,4.95628,4.95628,0,0,1,3.79-1.69141,3.97637,3.97637,0,0,1,3.43359,1.66016v-1.5332h3.5918v11.71777h-3.5918v-1.70117a4.05785,4.05785,0,0,1-3.48633,1.84863A4.9132,4.9132,0,0,1,817.8709,472.18262Zm6.44629-2.1836a2.85013,2.85013,0,0,0,.77734-2.1416,2.8174,2.8174,0,0,0-.77734-2.13281,2.4984,2.4984,0,0,0-3.56934.01172,2.84668,2.84668,0,0,0-.77636,2.1416,2.81463,2.81463,0,0,0,.77636,2.13184,2.49726,2.49726,0,0,0,3.56934-.01075Z"/><path class="cls-6" d="M1177.866,467.98242v5.7334h-3.58985V458.97363h5.81641a5.65214,5.65214,0,0,1,3.99023,1.32325,4.198,4.198,0,0,1,1.42774,3.1914,4.59947,4.59947,0,0,1-.77735,2.5,4.24146,4.24146,0,0,1-2.541,1.72168l3.6123,6.00586h-4.20019l-3.31836-5.7334Zm0-6.2793v3.54981h2.22656a1.64612,1.64612,0,0,0,1.76367-1.75293,1.78906,1.78906,0,0,0-.48242-1.292,1.69157,1.69157,0,0,0-1.28125-.50489Z"/><path class="cls-6" d="M1193.28008,473.86328a5.66618,5.66618,0,0,1-4.19922-1.64844,5.93808,5.93808,0,0,1-1.63867-4.3789,5.85794,5.85794,0,0,1,1.627-4.34766,5.724,5.724,0,0,1,4.21094-1.61719,6.01682,6.01682,0,0,1,4.28418,1.59668,5.78,5.78,0,0,1,1.70117,4.43067,7.2331,7.2331,0,0,1-.084,1.13476H1191.118a2.04671,2.04671,0,0,0,1.96289,1.76368,2.84254,2.84254,0,0,0,1.01855-.13672,1.79973,1.79973,0,0,0,.49317-.27344,3.43451,3.43451,0,0,0,.41016-.45117h3.88476a5.14841,5.14841,0,0,1-2.01562,2.8457A6.01455,6.01455,0,0,1,1193.28008,473.86328Zm1.5332-8.41113a2.28475,2.28475,0,0,0-1.49023-.51465,2.12119,2.12119,0,0,0-1.44922.51465,2.23689,2.23689,0,0,0-.73535,1.333h4.38867A1.90781,1.90781,0,0,0,1194.81328,465.45215Z"/><path class="cls-6" d="M1205.1668,463.53125a3.974,3.974,0,0,1,3.43359-1.66016,4.95628,4.95628,0,0,1,3.79,1.69141,6.755,6.755,0,0,1,0,8.62012,4.9354,4.9354,0,0,1-3.75879,1.68066,3.97317,3.97317,0,0,1-3.46484-1.84863v7.28711h-3.5918V461.99805h3.5918Zm4.34668,6.47852a2.8183,2.8183,0,0,0,.77636-2.13184,2.85041,2.85041,0,0,0-.77636-2.1416,2.49956,2.49956,0,0,0-3.57032-.01172,2.81694,2.81694,0,0,0-.77636,2.13281,2.84966,2.84966,0,0,0,.77636,2.1416,2.49843,2.49843,0,0,0,3.57032.01075Z"/><path class="cls-6" d="M1216.2332,473.71582v-15.54h3.5918v15.54Z"/><path class="cls-6" d="M1226.25078,460.6748a2.15442,2.15442,0,1,1,.60938-1.501A2.02574,2.02574,0,0,1,1226.25078,460.6748Zm-3.27539,13.041V461.99805h3.58985v11.71777Z"/><path class="cls-6" d="M1230.48223,472.22461a6.65871,6.65871,0,0,1,0-8.72461,5.69541,5.69541,0,0,1,4.21-1.62891,6.11322,6.11322,0,0,1,3.63379,1.06055,5.0502,5.0502,0,0,1,1.97363,3.03516h-3.88477a1.708,1.708,0,0,0-1.64843-1.04981,1.92507,1.92507,0,0,0-1.70117.80762,4.36053,4.36053,0,0,0,0,4.26367,1.851,1.851,0,0,0,1.627.8086,2.01133,2.01133,0,0,0,1.05078-.23047,1.94706,1.94706,0,0,0,.67187-.82032h3.88477a5.21113,5.21113,0,0,1-1.99414,3.00391,5.92807,5.92807,0,0,1-3.61328,1.11328A5.67962,5.67962,0,0,1,1230.48223,472.22461Z"/><path class="cls-6" d="M1243.00859,472.18262a6.75175,6.75175,0,0,1,0-8.62012,4.95393,4.95393,0,0,1,3.791-1.69141,3.97871,3.97871,0,0,1,3.43359,1.66016v-1.5332h3.58985v11.71777h-3.58985v-1.70117a4.06256,4.06256,0,0,1-3.48632,1.84863A4.91079,4.91079,0,0,1,1243.00859,472.18262Zm6.44727-2.1836a2.85388,2.85388,0,0,0,.77734-2.1416,2.82108,2.82108,0,0,0-.77734-2.13281,2.49955,2.49955,0,0,0-3.57031.01172,2.85089,2.85089,0,0,0-.77735,2.1416,2.81876,2.81876,0,0,0,.77735,2.13184,2.49841,2.49841,0,0,0,3.57031-.01075Z"/><path class="cls-6" d="M184.216,331.69351a15.791,15.791,0,1,1,15.79114,15.79089H200.007A15.79273,15.79273,0,0,1,184.216,331.69351Z"/><path class="cls-7" d="M200.00713,324.67633a36.87461,36.87461,0,0,1-36.87451,36.8746H112.43828a36.87459,36.87459,0,0,0-36.87451,36.87461v18.79321"/><polygon class="cls-8" points="65.092 414.155 75.564 432.289 86.035 414.155 65.092 414.155"/><path class="cls-7" d="M372.52764,503.45737a36.87457,36.87457,0,0,1-36.87451,36.8746H158.95879a36.87461,36.87461,0,0,0-36.87451,36.87463v25.79322"/><polygon class="cls-8" points="111.613 599.936 122.084 618.07 132.555 599.936 111.613 599.936"/><path class="cls-7" d="M569.32793,503.45737a36.87384,36.87384,0,0,1-36.874,36.8746H355.75908a36.87461,36.87461,0,0,0-36.87451,36.87463v25.79322"/><polygon class="cls-8" points="308.413 599.936 318.885 618.07 329.356 599.936 308.413 599.936"/><path class="cls-7" d="M200.763,332.14362a36.88744,36.88744,0,0,0,36.11816,29.40731H753.59258a36.87459,36.87459,0,0,1,36.87451,36.87461v18.793"/><path class="cls-8" d="M193.014,333.38181a7.89571,7.89571,0,1,1,8.70556,6.99234A7.89655,7.89655,0,0,1,193.014,333.38181Z"/><polygon class="cls-8" points="779.995 414.155 790.467 432.289 800.938 414.155 779.995 414.155"/><path class="cls-6" d="M862.54111,331.08047A15.791,15.791,0,1,0,846.75,346.87137h.00012A15.79273,15.79273,0,0,0,862.54111,331.08047Z"/><path class="cls-7" d="M391.22832,416.60425a36.87516,36.87516,0,0,1,36.855-35.66635h381.793a36.87388,36.87388,0,0,0,36.874-36.87461V330.84644"/><polygon class="cls-8" points="401.864 413.649 391.209 431.676 380.922 413.437 401.864 413.649"/><path class="cls-8" d="M854.6458,331.24008a7.89551,7.89551,0,1,0-7.89551,7.89545A7.89605,7.89605,0,0,0,854.6458,331.24008Z"/><path class="cls-6" d="M1176.14133,331.08047a15.791,15.791,0,1,0-15.79114,15.7909h.00007A15.79275,15.79275,0,0,0,1176.14133,331.08047Z"/><path class="cls-7" d="M1160.35039,364.06329a36.87388,36.87388,0,0,0,36.874,36.87461h50.69483a36.88272,36.88272,0,0,1,33.80225,22.116"/><polygon class="cls-8" points="1270.331 422.669 1284.794 437.813 1290.68 417.717 1270.331 422.669"/><path class="cls-7" d="M588.34356,423.05389a36.88373,36.88373,0,0,1,33.80224-22.116h501.33057a36.87461,36.87461,0,0,0,36.87451-36.87461v-33.7174"/><polygon class="cls-8" points="599.734 422.669 585.271 437.813 579.385 417.717 599.734 422.669"/><path class="cls-8" d="M1168.24639,330.73361a7.89551,7.89551,0,1,0-7.89551,7.89542A7.8964,7.8964,0,0,0,1168.24639,330.73361Z"/><rect class="cls-3" x="72.93095" y="618.6012" width="90.38146" height="121.40872" rx="7"/><rect class="cls-3" x="173.31241" y="618.6012" width="90.38146" height="121.40872" rx="7"/><rect class="cls-3" x="273.69387" y="618.6012" width="90.38146" height="121.40872" rx="7"/><rect class="cls-3" x="374.58664" y="618.6012" width="90.38146" height="121.40872" rx="7"/><circle class="cls-5" cx="621.4343" cy="677.67661" r="36.16282"/><circle class="cls-5" cx="521.05284" cy="677.67661" r="36.16282"/><rect class="cls-2" x="689.47132" y="553.38863" width="622.5276" height="206.5" rx="8.64541"/><path class="cls-4" d="M1218.66875,574.25293h4.10352v16.89551h-4.10352l-6.86523-10.63184v10.63184H1207.7V574.25293h4.10352l6.86523,10.63184Z"/><path class="cls-4" d="M1227.44024,589.4209a6.51181,6.51181,0,0,1-2.02833-4.99219,6.4202,6.4202,0,0,1,2.01661-4.95605,7.6113,7.6113,0,0,1,9.97168,0,6.44171,6.44171,0,0,1,2.0039,4.95605,6.57277,6.57277,0,0,1-1.99219,4.99219,6.9239,6.9239,0,0,1-4.96777,1.89551A7.0496,7.0496,0,0,1,1227.44024,589.4209Zm6.97167-2.47266a3.4969,3.4969,0,0,0,.81543-2.49512,3.39366,3.39366,0,0,0-.83984-2.48437,2.70445,2.70445,0,0,0-1.99121-.85254,2.66357,2.66357,0,0,0-1.97949.85254,4.11054,4.11054,0,0,0,.02344,4.97949,2.72308,2.72308,0,0,0,2.0039.86426A2.60914,2.60914,0,0,0,1234.41191,586.94824Z"/><path class="cls-4" d="M1242.83574,589.39648a7.71767,7.71767,0,0,1,0-9.85156,5.66378,5.66378,0,0,1,4.332-1.93262,4.54757,4.54757,0,0,1,3.92481,1.89649v-6.12012h4.10351v17.75977h-4.10351v-1.94336a4.63959,4.63959,0,0,1-3.98438,2.11133A5.61527,5.61527,0,0,1,1242.83574,589.39648Zm7.36817-2.49609a3.25894,3.25894,0,0,0,.88867-2.44727,3.22,3.22,0,0,0-.88867-2.43652,2.85565,2.85565,0,0,0-4.08008.01172,3.26077,3.26077,0,0,0-.8877,2.44824,3.221,3.221,0,0,0,.8877,2.43653,2.85451,2.85451,0,0,0,4.08008-.0127Z"/><path class="cls-4" d="M1264.4832,591.31641a6.47556,6.47556,0,0,1-4.79882-1.88379,6.78768,6.78768,0,0,1-1.873-5.00391,6.69226,6.69226,0,0,1,1.86035-4.96777,6.53262,6.53262,0,0,1,4.81152-1.84864,6.87506,6.87506,0,0,1,4.89649,1.82422,6.60353,6.60353,0,0,1,1.94433,5.06446,8.16135,8.16135,0,0,1-.09668,1.2959h-9.21484a2.33544,2.33544,0,0,0,2.24316,2.01562,3.25758,3.25758,0,0,0,1.16407-.15625,2.03572,2.03572,0,0,0,.56347-.31152,4.02339,4.02339,0,0,0,.46875-.51563h4.43946a5.87727,5.87727,0,0,1-2.30371,3.25195A6.86638,6.86638,0,0,1,1264.4832,591.31641Zm1.75293-9.61133a2.60873,2.60873,0,0,0-1.7041-.58887,2.42215,2.42215,0,0,0-1.65625.58887,2.55252,2.55252,0,0,0-.83984,1.52344h5.01562A2.18174,2.18174,0,0,0,1266.23613,581.70508Z"/><path class="cls-4" d="M1280.29961,590.9082v-3.04785q.64746-.57569,1.82324-1.584,1.17627-1.00782,1.82422-1.57129.64893-.564,1.5127-1.416a12.13715,12.13715,0,0,0,1.29492-1.45215,4.901,4.901,0,0,0,1.1289-2.71191q0-2.04053-1.80078-2.04a1.6784,1.6784,0,0,0-1.36718.61133,2.7125,2.7125,0,0,0-.50391,1.76465h-3.96094a5.51466,5.51466,0,0,1,1.668-4.35645,6.36969,6.36969,0,0,1,4.38086-1.47558,5.6349,5.6349,0,0,1,4.22363,1.54785,5.1488,5.1488,0,0,1,1.51172,3.73144,5.70294,5.70294,0,0,1-.71972,2.9043q-.43214.7207-.74415,1.22461a8.02858,8.02858,0,0,1-1.03222,1.24805q-.71924.74414-1.05567,1.0791-.33692.33692-1.23632,1.15234-.89942.81592-1.13965,1.05567h6.23926v3.33593Z"/><rect class="cls-3" x="708.40164" y="618.6012" width="90.38146" height="121.40872" rx="7"/><rect class="cls-3" x="808.7831" y="618.6012" width="90.38146" height="121.40872" rx="7"/><rect class="cls-3" x="909.16456" y="618.6012" width="90.38146" height="121.40872" rx="7"/><rect class="cls-3" x="1010.05733" y="618.6012" width="90.38146" height="121.40872" rx="7"/><circle class="cls-5" cx="1256.90499" cy="677.67661" r="36.16282"/><circle class="cls-5" cx="1156.52353" cy="677.67661" r="36.16282"/><path class="cls-7" d="M149.05938,503.45737a36.87456,36.87456,0,0,0,36.87451,36.8746h-4.30518a36.87461,36.87461,0,0,1,36.87451,36.87463v25.79322"/><polygon class="cls-8" points="208.032 599.936 218.503 618.07 228.974 599.936 208.032 599.936"/><path class="cls-7" d="M1209.62236,503.45737a36.87456,36.87456,0,0,1-36.87451,36.8746H1066.05352A36.87461,36.87461,0,0,0,1029.179,577.2066v25.79322"/><polygon class="cls-8" points="1018.708 599.936 1029.179 618.07 1039.65 599.936 1018.708 599.936"/><path class="cls-7" d="M1002.22588,503.822a36.87466,36.87466,0,0,0,36.87451,36.87464h6.69434a36.87455,36.87455,0,0,1,36.87451,36.87457v25.79321"/><polygon class="cls-8" points="1072.198 600.301 1082.669 618.435 1093.141 600.301 1072.198 600.301"/><path class="cls-7" d="M823.13018,503.822a36.87465,36.87465,0,0,0,36.87451,36.87464h56.69482A36.87455,36.87455,0,0,1,953.574,577.57123v25.79321"/><polygon class="cls-8" points="943.102 600.301 953.574 618.435 964.045 600.301 943.102 600.301"/><path class="cls-6" d="M502.493,684.19141a7.39147,7.39147,0,0,1,0-10.30079,7.058,7.058,0,0,1,5.10937-2.02929,7.20764,7.20764,0,0,1,4.16016,1.24023,6.46628,6.46628,0,0,1,2.541,3.43946h-4.08008a2.68687,2.68687,0,0,0-2.56055-1.54,3.5714,3.5714,0,0,0-2.76953,1.10058,4.78328,4.78328,0,0,0,0,5.87891,3.56806,3.56806,0,0,0,2.76953,1.10058,2.68533,2.68533,0,0,0,2.56055-1.54h4.08008a6.4663,6.4663,0,0,1-2.541,3.43945,7.20049,7.20049,0,0,1-4.16016,1.24023A7.054,7.054,0,0,1,502.493,684.19141Z"/><path class="cls-6" d="M527.20293,676.36133a4.43307,4.43307,0,0,1-1.02051,2.74023,3.81794,3.81794,0,0,1-1.60937,1.10938,6.76064,6.76064,0,0,1-2.53028.42968h-2.12011v5.46094h-3.41992v-14.041h5.54a5.37634,5.37634,0,0,1,3.79981,1.26074A3.99617,3.99617,0,0,1,527.20293,676.36133Zm-7.28027,1.67969h2.12011a1.63423,1.63423,0,0,0,1.2295-.46,1.65361,1.65361,0,0,0,.45117-1.21,1.70728,1.70728,0,0,0-.46094-1.23047,1.61284,1.61284,0,0,0-1.21973-.47949h-2.12011Z"/><path class="cls-6" d="M529.202,680.44141v-8.38086h3.41993v8.38086a2.77467,2.77467,0,0,0,.62109,1.93945,2.33691,2.33691,0,0,0,1.81934.67969,2.40954,2.40954,0,0,0,1.84082-.67969,2.7257,2.7257,0,0,0,.63867-1.93945v-8.38086h3.4209v8.38086a5.79031,5.79031,0,0,1-.87012,3.209,5.22729,5.22729,0,0,1-2.2002,1.9707,6.7456,6.7456,0,0,1-2.88964.62012,5.91615,5.91615,0,0,1-4.12012-1.52051A5.47427,5.47427,0,0,1,529.202,680.44141Z"/><path class="cls-9" d="M101.23809,675.21289a1.91191,1.91191,0,0,0-1.26075.4082,1.43989,1.43989,0,0,0-.49218,1.17579,1.69529,1.69529,0,0,0,.457,1.23632,2.95985,2.95985,0,0,0,1.1875.71973q.73242.252,1.63281.47949a18.27128,18.27128,0,0,1,1.78711.55274,7.88125,7.88125,0,0,1,1.62012.80371,3.53945,3.53945,0,0,1,1.18847,1.35644,4.50877,4.50877,0,0,1,.45508,2.09961,4.70568,4.70568,0,0,1-1.73926,3.66016,6.70821,6.70821,0,0,1-4.584,1.52344,7.204,7.204,0,0,1-4.584-1.36719,4.6565,4.6565,0,0,1-1.74024-3.88867H99.534a1.90145,1.90145,0,0,0,2.06445,2.0166,1.96782,1.96782,0,0,0,1.3916-.46778,1.5533,1.5533,0,0,0,.50391-1.18847,1.59259,1.59259,0,0,0-.45606-1.17578,3.1807,3.1807,0,0,0-1.1875-.71973q-.73242-.26367-1.63281-.49219a16.44113,16.44113,0,0,1-1.78711-.56445,8.73844,8.73844,0,0,1-1.62109-.80371,3.41542,3.41542,0,0,1-1.1875-1.34473,4.42882,4.42882,0,0,1-.45606-2.07519,4.6041,4.6041,0,0,1,1.752-3.76856,6.89719,6.89719,0,0,1,4.47559-1.416,7.25309,7.25309,0,0,1,4.4043,1.23632,4.688,4.688,0,0,1,1.752,3.9004h-4.46387a2.2517,2.2517,0,0,0-.58789-1.4043A1.70575,1.70575,0,0,0,101.23809,675.21289Z"/><path class="cls-9" d="M116.76641,675.21289a1.9083,1.9083,0,0,0-1.26075.4082,1.43989,1.43989,0,0,0-.49218,1.17579,1.69871,1.69871,0,0,0,.45605,1.23632,2.96664,2.96664,0,0,0,1.1875.71973q.73242.252,1.63281.47949a18.37127,18.37127,0,0,1,1.78809.55274,7.906,7.906,0,0,1,1.62012.80371,3.5374,3.5374,0,0,1,1.1875,1.35644,4.49678,4.49678,0,0,1,.45605,2.09961,4.70568,4.70568,0,0,1-1.73926,3.66016,6.70821,6.70821,0,0,1-4.584,1.52344,7.20216,7.20216,0,0,1-4.584-1.36719,4.6565,4.6565,0,0,1-1.74024-3.88867h4.36719a1.90238,1.90238,0,0,0,2.06445,2.0166,1.97037,1.97037,0,0,0,1.39258-.46778,1.5533,1.5533,0,0,0,.50391-1.18847,1.58951,1.58951,0,0,0-.457-1.17578,3.16521,3.16521,0,0,0-1.1875-.71973q-.73244-.26367-1.63184-.49219a16.38934,16.38934,0,0,1-1.78809-.56445,8.72907,8.72907,0,0,1-1.62011-.80371,3.425,3.425,0,0,1-1.18848-1.34473,4.44072,4.44072,0,0,1-.45508-2.07519,4.6041,4.6041,0,0,1,1.75195-3.76856,6.89719,6.89719,0,0,1,4.47559-1.416A7.25,7.25,0,0,1,121.325,673.209a4.686,4.686,0,0,1,1.75293,3.9004h-4.46387a2.2571,2.2571,0,0,0-.58789-1.4043A1.70575,1.70575,0,0,0,116.76641,675.21289Z"/><path class="cls-9" d="M132.50957,672.21289a9.51028,9.51028,0,0,1,6.624,2.33984,8.42291,8.42291,0,0,1,0,12.15625,9.47725,9.47725,0,0,1-6.624,2.35157h-5.92871V672.21289Zm-1.82422,13.72852h1.82422a4.81138,4.81138,0,0,0,3.69629-1.44043,6.22675,6.22675,0,0,0,0-7.72754,4.80789,4.80789,0,0,0-3.69629-1.44043h-1.82422Z"/><path class="cls-9" d="M201.61992,675.21289a1.90828,1.90828,0,0,0-1.26074.4082,1.43989,1.43989,0,0,0-.49219,1.17579,1.69872,1.69872,0,0,0,.45606,1.23632,2.96664,2.96664,0,0,0,1.1875.71973q.73242.252,1.63281.47949a18.37212,18.37212,0,0,1,1.78809.55274,7.90592,7.90592,0,0,1,1.62011.80371,3.53723,3.53723,0,0,1,1.1875,1.35644,4.49678,4.49678,0,0,1,.45606,2.09961,4.70568,4.70568,0,0,1-1.73926,3.66016,6.70825,6.70825,0,0,1-4.584,1.52344,7.20217,7.20217,0,0,1-4.584-1.36719,4.65652,4.65652,0,0,1-1.74023-3.88867h4.36718a1.9024,1.9024,0,0,0,2.06446,2.0166,1.97039,1.97039,0,0,0,1.39258-.46778,1.55332,1.55332,0,0,0,.5039-1.18847,1.58947,1.58947,0,0,0-.457-1.17578,3.16513,3.16513,0,0,0-1.1875-.71973q-.73242-.26367-1.63184-.49219a16.38987,16.38987,0,0,1-1.78808-.56445,8.72917,8.72917,0,0,1-1.62012-.80371,3.425,3.425,0,0,1-1.18847-1.34473,4.4406,4.4406,0,0,1-.45508-2.07519,4.60407,4.60407,0,0,1,1.75195-3.76856,6.89719,6.89719,0,0,1,4.47559-1.416,7.25,7.25,0,0,1,4.40332,1.23632,4.686,4.686,0,0,1,1.75293,3.9004h-4.46387a2.2571,2.2571,0,0,0-.58789-1.4043A1.70579,1.70579,0,0,0,201.61992,675.21289Z"/><path class="cls-9" d="M217.14727,675.21289a1.90737,1.90737,0,0,0-1.25977.4082,1.43989,1.43989,0,0,0-.49219,1.17579,1.70216,1.70216,0,0,0,.45508,1.23632,2.97738,2.97738,0,0,0,1.18848.71973q.73242.252,1.63183.47949a18.30683,18.30683,0,0,1,1.78907.55274,7.89774,7.89774,0,0,1,1.61914.80371,3.52138,3.52138,0,0,1,1.1875,1.35644,4.48487,4.48487,0,0,1,.457,2.09961,4.70361,4.70361,0,0,1-1.74024,3.66016,6.70651,6.70651,0,0,1-4.584,1.52344,7.204,7.204,0,0,1-4.584-1.36719,4.65918,4.65918,0,0,1-1.74024-3.88867h4.36816a1.90165,1.90165,0,0,0,2.06348,2.0166,1.97037,1.97037,0,0,0,1.39258-.46778,1.5533,1.5533,0,0,0,.50391-1.18847,1.59259,1.59259,0,0,0-.45606-1.17578,3.16933,3.16933,0,0,0-1.18848-.71973q-.73242-.26367-1.63085-.49219a16.40519,16.40519,0,0,1-1.78907-.56445,8.72012,8.72012,0,0,1-1.61914-.80371,3.41757,3.41757,0,0,1-1.18847-1.34473,4.44067,4.44067,0,0,1-.45606-2.07519,4.6041,4.6041,0,0,1,1.752-3.76856,6.89813,6.89813,0,0,1,4.47657-1.416,7.252,7.252,0,0,1,4.40332,1.23632,4.69132,4.69132,0,0,1,1.75293,3.9004h-4.46485a2.2517,2.2517,0,0,0-.58789-1.4043A1.70575,1.70575,0,0,0,217.14727,675.21289Z"/><path class="cls-9" d="M232.89141,672.21289a9.50779,9.50779,0,0,1,6.623,2.33984,8.42291,8.42291,0,0,1,0,12.15625,9.47478,9.47478,0,0,1-6.623,2.35157H226.9627V672.21289Zm-1.82422,13.72852h1.82422a4.80917,4.80917,0,0,0,3.69531-1.44043,6.22675,6.22675,0,0,0,0-7.72754,4.80569,4.80569,0,0,0-3.69531-1.44043h-1.82422Z"/><path class="cls-9" d="M301.45391,675.21289a1.9083,1.9083,0,0,0-1.26075.4082,1.43989,1.43989,0,0,0-.49218,1.17579,1.69871,1.69871,0,0,0,.45605,1.23632,2.96664,2.96664,0,0,0,1.1875.71973q.73242.252,1.63281.47949a18.37127,18.37127,0,0,1,1.78809.55274,7.906,7.906,0,0,1,1.62012.80371,3.5374,3.5374,0,0,1,1.1875,1.35644,4.49678,4.49678,0,0,1,.45605,2.09961,4.70568,4.70568,0,0,1-1.73926,3.66016,6.70821,6.70821,0,0,1-4.584,1.52344,7.20216,7.20216,0,0,1-4.584-1.36719,4.6565,4.6565,0,0,1-1.74024-3.88867h4.36719a1.90238,1.90238,0,0,0,2.06445,2.0166,1.97037,1.97037,0,0,0,1.39258-.46778,1.5533,1.5533,0,0,0,.50391-1.18847,1.58951,1.58951,0,0,0-.457-1.17578,3.16521,3.16521,0,0,0-1.1875-.71973q-.73244-.26367-1.63184-.49219a16.38934,16.38934,0,0,1-1.78809-.56445,8.72907,8.72907,0,0,1-1.62011-.80371,3.425,3.425,0,0,1-1.18848-1.34473,4.44072,4.44072,0,0,1-.45508-2.07519,4.6041,4.6041,0,0,1,1.752-3.76856,6.89719,6.89719,0,0,1,4.47559-1.416,7.25,7.25,0,0,1,4.40332,1.23632,4.686,4.686,0,0,1,1.75293,3.9004h-4.46387a2.2571,2.2571,0,0,0-.58789-1.4043A1.70575,1.70575,0,0,0,301.45391,675.21289Z"/><path class="cls-9" d="M316.98125,675.21289a1.90734,1.90734,0,0,0-1.25976.4082,1.43986,1.43986,0,0,0-.49219,1.17579,1.70212,1.70212,0,0,0,.45508,1.23632,2.97727,2.97727,0,0,0,1.18847.71973q.73242.252,1.63184.47949a18.30665,18.30665,0,0,1,1.78906.55274,7.89774,7.89774,0,0,1,1.61914.80371,3.52138,3.52138,0,0,1,1.1875,1.35644,4.48474,4.48474,0,0,1,.457,2.09961,4.70363,4.70363,0,0,1-1.74023,3.66016,6.70654,6.70654,0,0,1-4.584,1.52344,7.204,7.204,0,0,1-4.584-1.36719,4.65917,4.65917,0,0,1-1.74023-3.88867h4.36816a1.90164,1.90164,0,0,0,2.06348,2.0166,1.97034,1.97034,0,0,0,1.39257-.46778,1.5533,1.5533,0,0,0,.50391-1.18847,1.59258,1.59258,0,0,0-.456-1.17578,3.16949,3.16949,0,0,0-1.18848-.71973q-.73242-.26367-1.63086-.49219a16.40434,16.40434,0,0,1-1.78906-.56445,8.7195,8.7195,0,0,1-1.61914-.80371,3.41759,3.41759,0,0,1-1.18848-1.34473,4.44079,4.44079,0,0,1-.45605-2.07519,4.60407,4.60407,0,0,1,1.75195-3.76856,6.8981,6.8981,0,0,1,4.47656-1.416,7.252,7.252,0,0,1,4.40332,1.23632,4.69129,4.69129,0,0,1,1.75293,3.9004h-4.46484a2.25181,2.25181,0,0,0-.58789-1.4043A1.70579,1.70579,0,0,0,316.98125,675.21289Z"/><path class="cls-9" d="M332.72539,672.21289a9.50782,9.50782,0,0,1,6.623,2.33984,8.42291,8.42291,0,0,1,0,12.15625,9.47481,9.47481,0,0,1-6.623,2.35157h-5.92871V672.21289Zm-1.82422,13.72852h1.82422a4.80917,4.80917,0,0,0,3.69531-1.44043,6.22675,6.22675,0,0,0,0-7.72754,4.80569,4.80569,0,0,0-3.69531-1.44043h-1.82422Z"/><path class="cls-9" d="M401.83477,675.21289a1.90737,1.90737,0,0,0-1.25977.4082,1.43989,1.43989,0,0,0-.49219,1.17579,1.70216,1.70216,0,0,0,.45508,1.23632,2.97738,2.97738,0,0,0,1.18848.71973q.73242.252,1.63183.47949a18.30683,18.30683,0,0,1,1.78907.55274,7.89774,7.89774,0,0,1,1.61914.80371,3.52138,3.52138,0,0,1,1.1875,1.35644,4.48487,4.48487,0,0,1,.457,2.09961,4.70361,4.70361,0,0,1-1.74024,3.66016,6.70651,6.70651,0,0,1-4.584,1.52344,7.204,7.204,0,0,1-4.584-1.36719,4.65918,4.65918,0,0,1-1.74024-3.88867h4.36816a1.90165,1.90165,0,0,0,2.06348,2.0166,1.97037,1.97037,0,0,0,1.39258-.46778,1.5533,1.5533,0,0,0,.50391-1.18847,1.59259,1.59259,0,0,0-.45606-1.17578,3.16933,3.16933,0,0,0-1.18848-.71973q-.73242-.26367-1.63085-.49219a16.40519,16.40519,0,0,1-1.78907-.56445,8.72012,8.72012,0,0,1-1.61914-.80371,3.41757,3.41757,0,0,1-1.18847-1.34473,4.44067,4.44067,0,0,1-.45606-2.07519,4.6041,4.6041,0,0,1,1.752-3.76856,6.89813,6.89813,0,0,1,4.47657-1.416,7.252,7.252,0,0,1,4.40332,1.23632,4.69132,4.69132,0,0,1,1.75293,3.9004h-4.46485a2.2517,2.2517,0,0,0-.58789-1.4043A1.70575,1.70575,0,0,0,401.83477,675.21289Z"/><path class="cls-9" d="M417.36211,675.21289a1.911,1.911,0,0,0-1.25977.4082,1.43989,1.43989,0,0,0-.49218,1.17579,1.69871,1.69871,0,0,0,.45605,1.23632,2.97056,2.97056,0,0,0,1.18848.71973q.73242.252,1.63183.47949a18.20673,18.20673,0,0,1,1.78809.55274,7.873,7.873,0,0,1,1.61914.80371,3.52353,3.52353,0,0,1,1.18848,1.35644,4.49678,4.49678,0,0,1,.45605,2.09961,4.70363,4.70363,0,0,1-1.74023,3.66016,6.70654,6.70654,0,0,1-4.584,1.52344,7.20594,7.20594,0,0,1-4.584-1.36719,4.65918,4.65918,0,0,1-1.74024-3.88867H415.659a1.9007,1.9007,0,0,0,2.06347,2.0166,1.9678,1.9678,0,0,0,1.3916-.46778,1.5533,1.5533,0,0,0,.50391-1.18847,1.59569,1.59569,0,0,0-.45508-1.17578,3.185,3.185,0,0,0-1.18848-.71973q-.73242-.26367-1.63183-.49219a16.457,16.457,0,0,1-1.78809-.56445,8.72907,8.72907,0,0,1-1.62011-.80371,3.40792,3.40792,0,0,1-1.1875-1.34473,4.4289,4.4289,0,0,1-.457-2.07519,4.60408,4.60408,0,0,1,1.752-3.76856,6.8981,6.8981,0,0,1,4.47656-1.416,7.2551,7.2551,0,0,1,4.4043,1.23632,4.69338,4.69338,0,0,1,1.75195,3.9004h-4.46484a2.24644,2.24644,0,0,0-.58789-1.4043A1.70579,1.70579,0,0,0,417.36211,675.21289Z"/><path class="cls-9" d="M433.10625,672.21289a9.51028,9.51028,0,0,1,6.624,2.33984,8.42291,8.42291,0,0,1,0,12.15625,9.47725,9.47725,0,0,1-6.624,2.35157h-5.92773V672.21289ZM431.282,685.94141h1.82422a4.80628,4.80628,0,0,0,3.69531-1.44043,6.22319,6.22319,0,0,0,0-7.72754,4.8028,4.8028,0,0,0-3.69531-1.44043H431.282Z"/><path class="cls-9" d="M735.6043,675.21289a1.90826,1.90826,0,0,0-1.26074.4082,1.43986,1.43986,0,0,0-.49219,1.17579,1.69871,1.69871,0,0,0,.45605,1.23632,2.96664,2.96664,0,0,0,1.1875.71973q.73242.252,1.63282.47949a18.37194,18.37194,0,0,1,1.78808.55274,7.906,7.906,0,0,1,1.62012.80371,3.5374,3.5374,0,0,1,1.1875,1.35644,4.49678,4.49678,0,0,1,.45605,2.09961,4.7057,4.7057,0,0,1-1.73925,3.66016,6.70826,6.70826,0,0,1-4.584,1.52344,7.20216,7.20216,0,0,1-4.584-1.36719,4.6565,4.6565,0,0,1-1.74024-3.88867h4.36719a1.90238,1.90238,0,0,0,2.06445,2.0166,1.97037,1.97037,0,0,0,1.39258-.46778,1.5533,1.5533,0,0,0,.50391-1.18847,1.58951,1.58951,0,0,0-.457-1.17578,3.16521,3.16521,0,0,0-1.1875-.71973q-.73244-.26367-1.63184-.49219a16.38934,16.38934,0,0,1-1.78809-.56445,8.72907,8.72907,0,0,1-1.62011-.80371,3.42513,3.42513,0,0,1-1.18848-1.34473,4.44072,4.44072,0,0,1-.45508-2.07519,4.60408,4.60408,0,0,1,1.752-3.76856,6.89714,6.89714,0,0,1,4.47558-1.416,7.25,7.25,0,0,1,4.40332,1.23632,4.68592,4.68592,0,0,1,1.75293,3.9004H737.452a2.2571,2.2571,0,0,0-.58789-1.4043A1.70575,1.70575,0,0,0,735.6043,675.21289Z"/><path class="cls-9" d="M751.13164,675.21289a1.90734,1.90734,0,0,0-1.25976.4082,1.43986,1.43986,0,0,0-.49219,1.17579,1.70212,1.70212,0,0,0,.45508,1.23632,2.97727,2.97727,0,0,0,1.18847.71973q.73242.252,1.63184.47949a18.30665,18.30665,0,0,1,1.78906.55274,7.89774,7.89774,0,0,1,1.61914.80371,3.52138,3.52138,0,0,1,1.1875,1.35644,4.48474,4.48474,0,0,1,.457,2.09961,4.7036,4.7036,0,0,1-1.74023,3.66016,6.70654,6.70654,0,0,1-4.584,1.52344,7.204,7.204,0,0,1-4.584-1.36719,4.65917,4.65917,0,0,1-1.74023-3.88867h4.36816a1.90164,1.90164,0,0,0,2.06348,2.0166,1.97034,1.97034,0,0,0,1.39257-.46778,1.5533,1.5533,0,0,0,.50391-1.18847,1.59258,1.59258,0,0,0-.45605-1.17578,3.16941,3.16941,0,0,0-1.18848-.71973q-.73242-.26367-1.63086-.49219a16.40434,16.40434,0,0,1-1.78906-.56445,8.7195,8.7195,0,0,1-1.61914-.80371,3.41759,3.41759,0,0,1-1.18848-1.34473,4.44079,4.44079,0,0,1-.45605-2.07519,4.60407,4.60407,0,0,1,1.75195-3.76856,6.89812,6.89812,0,0,1,4.47656-1.416,7.252,7.252,0,0,1,4.40332,1.23632,4.69129,4.69129,0,0,1,1.75293,3.9004H752.9793a2.25181,2.25181,0,0,0-.58789-1.4043A1.70579,1.70579,0,0,0,751.13164,675.21289Z"/><path class="cls-9" d="M766.87578,672.21289a9.50782,9.50782,0,0,1,6.62305,2.33984,8.42291,8.42291,0,0,1,0,12.15625,9.47481,9.47481,0,0,1-6.62305,2.35157h-5.92871V672.21289Zm-1.82422,13.72852h1.82422a4.80917,4.80917,0,0,0,3.69531-1.44043,6.22675,6.22675,0,0,0,0-7.72754,4.80569,4.80569,0,0,0-3.69531-1.44043h-1.82422Z"/><path class="cls-9" d="M835.98516,675.21289a1.90737,1.90737,0,0,0-1.25977.4082,1.43989,1.43989,0,0,0-.49219,1.17579,1.70216,1.70216,0,0,0,.45508,1.23632,2.97738,2.97738,0,0,0,1.18848.71973q.73242.252,1.63183.47949a18.30683,18.30683,0,0,1,1.78907.55274,7.89774,7.89774,0,0,1,1.61914.80371,3.52138,3.52138,0,0,1,1.1875,1.35644,4.48474,4.48474,0,0,1,.457,2.09961,4.70361,4.70361,0,0,1-1.74024,3.66016,6.70651,6.70651,0,0,1-4.584,1.52344,7.204,7.204,0,0,1-4.584-1.36719,4.65918,4.65918,0,0,1-1.74024-3.88867h4.36817a1.90163,1.90163,0,0,0,2.06347,2.0166,1.97037,1.97037,0,0,0,1.39258-.46778,1.5533,1.5533,0,0,0,.50391-1.18847,1.59259,1.59259,0,0,0-.45606-1.17578,3.16937,3.16937,0,0,0-1.18847-.71973q-.73244-.26367-1.63086-.49219a16.40519,16.40519,0,0,1-1.78907-.56445,8.72012,8.72012,0,0,1-1.61914-.80371,3.41757,3.41757,0,0,1-1.18847-1.34473,4.44079,4.44079,0,0,1-.45606-2.07519,4.6041,4.6041,0,0,1,1.752-3.76856,6.89813,6.89813,0,0,1,4.47657-1.416,7.252,7.252,0,0,1,4.40332,1.23632,4.69132,4.69132,0,0,1,1.75293,3.9004h-4.46485a2.2517,2.2517,0,0,0-.58789-1.4043A1.70575,1.70575,0,0,0,835.98516,675.21289Z"/><path class="cls-9" d="M851.5125,675.21289a1.911,1.911,0,0,0-1.25976.4082,1.43986,1.43986,0,0,0-.49219,1.17579,1.69871,1.69871,0,0,0,.45605,1.23632,2.97056,2.97056,0,0,0,1.18848.71973q.73242.252,1.63183.47949a18.20673,18.20673,0,0,1,1.78809.55274,7.873,7.873,0,0,1,1.61914.80371,3.52353,3.52353,0,0,1,1.18848,1.35644,4.49678,4.49678,0,0,1,.45605,2.09961,4.70363,4.70363,0,0,1-1.74023,3.66016,6.70654,6.70654,0,0,1-4.584,1.52344,7.20594,7.20594,0,0,1-4.584-1.36719,4.65917,4.65917,0,0,1-1.74023-3.88867h4.36914a1.9007,1.9007,0,0,0,2.06347,2.0166,1.9678,1.9678,0,0,0,1.3916-.46778,1.5533,1.5533,0,0,0,.50391-1.18847,1.59569,1.59569,0,0,0-.45508-1.17578,3.185,3.185,0,0,0-1.18847-.71973q-.73244-.26367-1.63184-.49219a16.457,16.457,0,0,1-1.78809-.56445,8.72907,8.72907,0,0,1-1.62011-.80371,3.408,3.408,0,0,1-1.1875-1.34473,4.4289,4.4289,0,0,1-.457-2.07519,4.60407,4.60407,0,0,1,1.75195-3.76856,6.8981,6.8981,0,0,1,4.47656-1.416,7.2551,7.2551,0,0,1,4.4043,1.23632,4.69338,4.69338,0,0,1,1.752,3.9004h-4.46484a2.24644,2.24644,0,0,0-.58789-1.4043A1.70579,1.70579,0,0,0,851.5125,675.21289Z"/><path class="cls-9" d="M867.25664,672.21289a9.51028,9.51028,0,0,1,6.624,2.33984,8.42291,8.42291,0,0,1,0,12.15625,9.47725,9.47725,0,0,1-6.624,2.35157h-5.92773V672.21289Zm-1.82422,13.72852h1.82422A4.80628,4.80628,0,0,0,870.952,684.501a6.22319,6.22319,0,0,0,0-7.72754,4.8028,4.8028,0,0,0-3.69531-1.44043h-1.82422Z"/><path class="cls-9" d="M935.81914,675.21289a1.90734,1.90734,0,0,0-1.25976.4082,1.43986,1.43986,0,0,0-.49219,1.17579,1.70212,1.70212,0,0,0,.45508,1.23632,2.97727,2.97727,0,0,0,1.18847.71973q.73242.252,1.63184.47949a18.30665,18.30665,0,0,1,1.78906.55274,7.89774,7.89774,0,0,1,1.61914.80371,3.52138,3.52138,0,0,1,1.1875,1.35644,4.48474,4.48474,0,0,1,.457,2.09961,4.7036,4.7036,0,0,1-1.74023,3.66016,6.70654,6.70654,0,0,1-4.584,1.52344,7.204,7.204,0,0,1-4.584-1.36719,4.65917,4.65917,0,0,1-1.74023-3.88867H934.115a1.90164,1.90164,0,0,0,2.06348,2.0166,1.97034,1.97034,0,0,0,1.39257-.46778,1.5533,1.5533,0,0,0,.50391-1.18847,1.59258,1.59258,0,0,0-.45605-1.17578,3.16941,3.16941,0,0,0-1.18848-.71973q-.73242-.26367-1.63086-.49219a16.40434,16.40434,0,0,1-1.78906-.56445,8.7195,8.7195,0,0,1-1.61914-.80371,3.41759,3.41759,0,0,1-1.18848-1.34473,4.44079,4.44079,0,0,1-.45605-2.07519,4.60407,4.60407,0,0,1,1.75195-3.76856,6.89812,6.89812,0,0,1,4.47656-1.416,7.252,7.252,0,0,1,4.40332,1.23632,4.69129,4.69129,0,0,1,1.75293,3.9004H937.6668a2.25181,2.25181,0,0,0-.58789-1.4043A1.70579,1.70579,0,0,0,935.81914,675.21289Z"/><path class="cls-9" d="M951.34649,675.21289a1.911,1.911,0,0,0-1.25977.4082,1.43986,1.43986,0,0,0-.49219,1.17579,1.69872,1.69872,0,0,0,.45606,1.23632,2.97052,2.97052,0,0,0,1.18847.71973q.73242.252,1.63184.47949a18.20673,18.20673,0,0,1,1.78809.55274,7.87349,7.87349,0,0,1,1.61914.80371,3.52351,3.52351,0,0,1,1.18847,1.35644,4.49678,4.49678,0,0,1,.45606,2.09961,4.70361,4.70361,0,0,1-1.74024,3.66016,6.70651,6.70651,0,0,1-4.584,1.52344,7.206,7.206,0,0,1-4.584-1.36719,4.6592,4.6592,0,0,1-1.74023-3.88867h4.36914a1.90071,1.90071,0,0,0,2.06348,2.0166,1.96784,1.96784,0,0,0,1.3916-.46778,1.55329,1.55329,0,0,0,.5039-1.18847,1.59572,1.59572,0,0,0-.45507-1.17578,3.18507,3.18507,0,0,0-1.18848-.71973q-.73242-.26367-1.63184-.49219a16.45615,16.45615,0,0,1-1.78808-.56445,8.72886,8.72886,0,0,1-1.62012-.80371,3.40807,3.40807,0,0,1-1.1875-1.34473,4.4289,4.4289,0,0,1-.457-2.07519,4.60407,4.60407,0,0,1,1.75195-3.76856,6.89813,6.89813,0,0,1,4.47657-1.416A7.25507,7.25507,0,0,1,955.907,673.209a4.69339,4.69339,0,0,1,1.752,3.9004h-4.46485a2.24638,2.24638,0,0,0-.58789-1.4043A1.70577,1.70577,0,0,0,951.34649,675.21289Z"/><path class="cls-9" d="M967.09063,672.21289a9.51029,9.51029,0,0,1,6.624,2.33984,8.42291,8.42291,0,0,1,0,12.15625,9.47727,9.47727,0,0,1-6.624,2.35157h-5.92774V672.21289Zm-1.82422,13.72852h1.82422a4.80629,4.80629,0,0,0,3.69531-1.44043,6.22323,6.22323,0,0,0,0-7.72754,4.80282,4.80282,0,0,0-3.69531-1.44043h-1.82422Z"/><path class="cls-9" d="M1036.2,675.21289a1.911,1.911,0,0,0-1.25976.4082,1.43986,1.43986,0,0,0-.49219,1.17579,1.69871,1.69871,0,0,0,.45605,1.23632,2.97056,2.97056,0,0,0,1.18848.71973q.73242.252,1.63183.47949a18.20673,18.20673,0,0,1,1.78809.55274,7.873,7.873,0,0,1,1.61914.80371,3.52353,3.52353,0,0,1,1.18848,1.35644,4.49678,4.49678,0,0,1,.45605,2.09961,4.70363,4.70363,0,0,1-1.74023,3.66016,6.70654,6.70654,0,0,1-4.584,1.52344,7.20594,7.20594,0,0,1-4.584-1.36719,4.65917,4.65917,0,0,1-1.74023-3.88867h4.36914a1.9007,1.9007,0,0,0,2.06347,2.0166,1.9678,1.9678,0,0,0,1.3916-.46778,1.5533,1.5533,0,0,0,.50391-1.18847,1.59569,1.59569,0,0,0-.45508-1.17578,3.185,3.185,0,0,0-1.18847-.71973q-.73244-.26367-1.63184-.49219a16.457,16.457,0,0,1-1.78809-.56445,8.72907,8.72907,0,0,1-1.62011-.80371,3.408,3.408,0,0,1-1.1875-1.34473,4.4289,4.4289,0,0,1-.457-2.07519,4.60407,4.60407,0,0,1,1.752-3.76856,6.8981,6.8981,0,0,1,4.47656-1.416,7.2551,7.2551,0,0,1,4.4043,1.23632,4.69338,4.69338,0,0,1,1.752,3.9004h-4.46484a2.24644,2.24644,0,0,0-.58789-1.4043A1.70579,1.70579,0,0,0,1036.2,675.21289Z"/><path class="cls-9" d="M1051.72832,675.21289a1.91188,1.91188,0,0,0-1.26074.4082,1.43986,1.43986,0,0,0-.49219,1.17579,1.69533,1.69533,0,0,0,.457,1.23632,2.95992,2.95992,0,0,0,1.1875.71973q.73242.252,1.63282.47949a18.2711,18.2711,0,0,1,1.7871.55274,7.88125,7.88125,0,0,1,1.62012.80371,3.53947,3.53947,0,0,1,1.18848,1.35644,4.50889,4.50889,0,0,1,.45508,2.09961,4.70568,4.70568,0,0,1-1.73926,3.66016,6.70826,6.70826,0,0,1-4.584,1.52344,7.204,7.204,0,0,1-4.584-1.36719,4.65652,4.65652,0,0,1-1.74023-3.88867h4.36816a1.90145,1.90145,0,0,0,2.06445,2.0166,1.9678,1.9678,0,0,0,1.3916-.46778,1.5533,1.5533,0,0,0,.50391-1.18847,1.59258,1.59258,0,0,0-.45605-1.17578,3.18078,3.18078,0,0,0-1.1875-.71973q-.73244-.26367-1.63282-.49219a16.44113,16.44113,0,0,1-1.78711-.56445,8.73844,8.73844,0,0,1-1.62109-.80371,3.4155,3.4155,0,0,1-1.1875-1.34473,4.42882,4.42882,0,0,1-.45605-2.07519,4.60407,4.60407,0,0,1,1.752-3.76856,6.89716,6.89716,0,0,1,4.47558-1.416,7.25309,7.25309,0,0,1,4.4043,1.23632,4.688,4.688,0,0,1,1.75195,3.9004H1053.576a2.25176,2.25176,0,0,0-.58789-1.4043A1.70579,1.70579,0,0,0,1051.72832,675.21289Z"/><path class="cls-9" d="M1067.47149,672.21289a9.51281,9.51281,0,0,1,6.625,2.33984,8.42293,8.42293,0,0,1,0,12.15625,9.47977,9.47977,0,0,1-6.625,2.35157h-5.92774V672.21289Zm-1.82422,13.72852h1.82422a4.80848,4.80848,0,0,0,3.69628-1.44043,6.22319,6.22319,0,0,0,0-7.72754,4.805,4.805,0,0,0-3.69628-1.44043h-1.82422Z"/><path class="cls-6" d="M614.21367,672.06055v14.041h-3.41992v-7.91992l-3.25976,7.91992h-2.53907l-3.26074-7.91992v7.91992h-3.41992v-14.041h3.91992l4.04,9.68066,4.01953-9.68066Z"/><path class="cls-6" d="M625.71367,672.02148v2.59961h-5.08008v3.01953h4.48047v2.60059h-4.48047V683.501h5.08008v2.60058h-8.5V672.02148Z"/><path class="cls-6" d="M644.55352,672.06055v14.041h-3.41993v-7.91992l-3.25976,7.91992h-2.53906l-3.26075-7.91992v7.91992H628.6541v-14.041H632.574l4.04,9.68066,4.01953-9.68066Z"/><path class="cls-6" d="M1138.87188,684.19141a7.39145,7.39145,0,0,1,0-10.30079,7.058,7.058,0,0,1,5.10937-2.02929,7.20764,7.20764,0,0,1,4.16016,1.24023,6.46627,6.46627,0,0,1,2.541,3.43946h-4.08008a2.68685,2.68685,0,0,0-2.56054-1.54,3.5714,3.5714,0,0,0-2.76953,1.10058,4.78328,4.78328,0,0,0,0,5.87891,3.56806,3.56806,0,0,0,2.76953,1.10058,2.68531,2.68531,0,0,0,2.56054-1.54h4.08008a6.46628,6.46628,0,0,1-2.541,3.43945,7.20049,7.20049,0,0,1-4.16016,1.24023A7.054,7.054,0,0,1,1138.87188,684.19141Z"/><path class="cls-6" d="M1163.58184,676.36133a4.43307,4.43307,0,0,1-1.02051,2.74023,3.818,3.818,0,0,1-1.60938,1.10938,6.76059,6.76059,0,0,1-2.53027.42968h-2.12012v5.46094h-3.41992v-14.041h5.54a5.37634,5.37634,0,0,1,3.79981,1.26074A3.99617,3.99617,0,0,1,1163.58184,676.36133Zm-7.28028,1.67969h2.12012a1.63421,1.63421,0,0,0,1.22949-.46,1.65361,1.65361,0,0,0,.45117-1.21,1.70727,1.70727,0,0,0-.46093-1.23047,1.61284,1.61284,0,0,0-1.21973-.47949h-2.12012Z"/><path class="cls-6" d="M1165.58086,680.44141v-8.38086h3.41992v8.38086a2.77463,2.77463,0,0,0,.6211,1.93945,2.3369,2.3369,0,0,0,1.81933.67969,2.40951,2.40951,0,0,0,1.84082-.67969,2.7257,2.7257,0,0,0,.63867-1.93945v-8.38086h3.4209v8.38086a5.79039,5.79039,0,0,1-.87011,3.209,5.22729,5.22729,0,0,1-2.2002,1.9707,6.74565,6.74565,0,0,1-2.88965.62012,5.91616,5.91616,0,0,1-4.12012-1.52051A5.4743,5.4743,0,0,1,1165.58086,680.44141Z"/><path class="cls-6" d="M1250.59258,672.06055v14.041h-3.41992v-7.91992l-3.25977,7.91992h-2.53906l-3.26074-7.91992v7.91992h-3.41993v-14.041h3.91993l4.04,9.68066,4.01953-9.68066Z"/><path class="cls-6" d="M1262.09258,672.02148v2.59961h-5.08008v3.01953h4.48047v2.60059h-4.48047V683.501h5.08008v2.60058h-8.5V672.02148Z"/><path class="cls-6" d="M1280.93242,672.06055v14.041h-3.41992v-7.91992l-3.25976,7.91992h-2.53907l-3.26074-7.91992v7.91992H1265.033v-14.041h3.91992l4.04,9.68066,4.01953-9.68066Z"/><path class="cls-7" d="M846.74981,331.08035v12.98294a36.8746,36.8746,0,0,0,36.87451,36.87461h50.69482a36.87515,36.87515,0,0,1,36.855,35.66635"/><polygon class="cls-8" points="960.539 413.649 971.194 431.676 981.481 413.437 960.539 413.649"/><rect class="cls-5" x="965.59141" y="368.80478" width="70.28743" height="198.88026" rx="7" transform="translate(1468.98004 -532.49021) rotate(90)"/><path class="cls-6" d="M966.04277,467.98242v5.7334H962.452V458.97363h5.81641a5.64888,5.64888,0,0,1,3.99023,1.32325,4.19467,4.19467,0,0,1,1.42774,3.1914,4.59813,4.59813,0,0,1-.77637,2.5,4.24442,4.24442,0,0,1-2.541,1.72168l3.6123,6.00586h-4.20117l-3.31738-5.7334Zm0-6.2793v3.54981h2.22559A1.6448,1.6448,0,0,0,970.032,463.5a1.789,1.789,0,0,0-.48242-1.292,1.69009,1.69009,0,0,0-1.28125-.50489Z"/><path class="cls-6" d="M981.45586,473.86328a5.66772,5.66772,0,0,1-4.19922-1.64844,5.94194,5.94194,0,0,1-1.63867-4.3789,5.8547,5.8547,0,0,1,1.62793-4.34766,5.72165,5.72165,0,0,1,4.21-1.61719,6.02084,6.02084,0,0,1,4.28516,1.59668,5.78,5.78,0,0,1,1.70117,4.43067,7.35182,7.35182,0,0,1-.084,1.13476h-8.06445a2.04879,2.04879,0,0,0,1.96289,1.76368,2.85227,2.85227,0,0,0,1.01953-.13672,1.79159,1.79159,0,0,0,.49219-.27344,3.43451,3.43451,0,0,0,.41016-.45117h3.88476a5.14841,5.14841,0,0,1-2.01562,2.8457A6.01249,6.01249,0,0,1,981.45586,473.86328Zm1.5332-8.41113a2.28288,2.28288,0,0,0-1.49023-.51465,2.12292,2.12292,0,0,0-1.44922.51465,2.23565,2.23565,0,0,0-.73437,1.333h4.38867A1.91252,1.91252,0,0,0,982.98906,465.45215Z"/><path class="cls-6" d="M993.34258,463.53125a3.97637,3.97637,0,0,1,3.43359-1.66016,4.95978,4.95978,0,0,1,3.791,1.69141,6.75828,6.75828,0,0,1,0,8.62012,4.93742,4.93742,0,0,1-3.75977,1.68066,3.97432,3.97432,0,0,1-3.46484-1.84863v7.28711h-3.59082V461.99805h3.59082Zm4.34766,6.47852a2.81833,2.81833,0,0,0,.77636-2.13184,2.85045,2.85045,0,0,0-.77636-2.1416,2.49956,2.49956,0,0,0-3.57032-.01172,2.8174,2.8174,0,0,0-.77734,2.13281,2.85013,2.85013,0,0,0,.77734,2.1416,2.49843,2.49843,0,0,0,3.57032.01075Z"/><path class="cls-6" d="M1004.41,473.71582v-15.54h3.59082v15.54Z"/><path class="cls-6" d="M1014.42656,460.6748a2.15442,2.15442,0,1,1,.60938-1.501A2.0251,2.0251,0,0,1,1014.42656,460.6748Zm-3.27539,13.041V461.99805h3.59082v11.71777Z"/><path class="cls-6" d="M1018.659,472.22461a6.65871,6.65871,0,0,1,0-8.72461,5.69233,5.69233,0,0,1,4.21-1.62891,6.11324,6.11324,0,0,1,3.63379,1.06055,5.0502,5.0502,0,0,1,1.97363,3.03516h-3.88574a1.70712,1.70712,0,0,0-1.64844-1.04981,1.92619,1.92619,0,0,0-1.70117.80762,4.36724,4.36724,0,0,0,0,4.26367,1.85159,1.85159,0,0,0,1.62793.8086,2.00987,2.00987,0,0,0,1.0498-.23047,1.9401,1.9401,0,0,0,.67188-.82032h3.88574a5.21259,5.21259,0,0,1-1.99512,3.00391,5.92513,5.92513,0,0,1-3.6123,1.11328A5.67656,5.67656,0,0,1,1018.659,472.22461Z"/><path class="cls-6" d="M1031.18438,472.18262a6.755,6.755,0,0,1,0-8.62012,4.95683,4.95683,0,0,1,3.791-1.69141,3.97873,3.97873,0,0,1,3.4336,1.66016v-1.5332h3.59082v11.71777H1038.409v-1.70117a4.06023,4.06023,0,0,1-3.48633,1.84863A4.91372,4.91372,0,0,1,1031.18438,472.18262Zm6.44726-2.1836a2.85388,2.85388,0,0,0,.77735-2.1416,2.82108,2.82108,0,0,0-.77735-2.13281,2.49955,2.49955,0,0,0-3.57031.01172,2.85042,2.85042,0,0,0-.77637,2.1416,2.8183,2.8183,0,0,0,.77637,2.13184,2.49841,2.49841,0,0,0,3.57031-.01075Z"/></svg>