<?xml version="1.0" encoding="utf-8"?>
<!-- Generator: Adobe Illustrator 21.1.0, SVG Export Plug-In . SVG Version: 6.00 Build 0)  -->
<svg version="1.1" id="Layer_1" xmlns="http://www.w3.org/2000/svg" xmlns:xlink="http://www.w3.org/1999/xlink" x="0px" y="0px"
	 viewBox="0 0 416 76" style="enable-background:new 0 0 416 76;" xml:space="preserve">
<style type="text/css">
	.st0{fill:#FFFFFF;}
	.st1{opacity:0.8;}
</style>
<g id="XMLID_1_">
	<g id="XMLID_575_">
		<path id="XMLID_643_" class="st0" d="M102.2,33c3.3,0,5.9-1.3,8-3.9l4.3,4.4c-3.4,3.8-7.3,5.7-11.9,5.7s-8.3-1.4-11.3-4.3
			s-4.4-6.5-4.4-10.9s1.5-8.1,4.5-11s6.7-4.4,11.1-4.4c4.9,0,9,1.9,12.2,5.6l-4.1,4.7c-2.1-2.6-4.7-3.9-7.8-3.9
			c-2.5,0-4.6,0.8-6.4,2.4s-2.7,3.8-2.7,6.6s0.8,5,2.5,6.7C97.8,32.1,99.8,33,102.2,33z"/>
		<path id="XMLID_641_" class="st0" d="M119.7,38.8V9.1h6.6v23.8H139v5.9L119.7,38.8L119.7,38.8z"/>
		<path id="XMLID_638_" class="st0" d="M168,34.7c-3,2.9-6.7,4.4-11.1,4.4s-8.1-1.5-11.1-4.4s-4.5-6.6-4.5-10.9
			c0-4.4,1.5-8,4.5-10.9s6.7-4.4,11.1-4.4S165,10,168,12.9s4.5,6.6,4.5,10.9C172.5,28.2,171,31.8,168,34.7z M165.7,23.8
			c0-2.6-0.9-4.9-2.6-6.8s-3.8-2.8-6.3-2.8s-4.6,0.9-6.3,2.8c-1.7,1.9-2.6,4.1-2.6,6.8c0,2.6,0.9,4.9,2.6,6.8s3.8,2.8,6.3,2.8
			s4.6-0.9,6.3-2.8C164.9,28.7,165.7,26.5,165.7,23.8z"/>
		<path id="XMLID_636_" class="st0" d="M186,31.2c1.1,1.4,2.6,2.1,4.5,2.1s3.4-0.7,4.4-2.1c1.1-1.4,1.6-3.3,1.6-5.6V9.2h6.6v16.6
			c0,4.3-1.2,7.6-3.6,9.9s-5.4,3.5-9.1,3.5s-6.8-1.2-9.2-3.5c-2.4-2.3-3.6-5.6-3.6-9.9V9.2h6.6v16.4C184.3,27.9,184.9,29.8,186,31.2
			z"/>
		<path id="XMLID_633_" class="st0" d="M232.7,13c2.8,2.6,4.3,6.2,4.3,10.8s-1.4,8.3-4.1,11c-2.8,2.7-7,4-12.6,4H210V9.1h10.5
			C225.8,9.1,229.9,10.4,232.7,13z M227.9,30.7c1.6-1.5,2.4-3.8,2.4-6.7c0-2.9-0.8-5.2-2.4-6.7c-1.6-1.6-4.1-2.4-7.5-2.4h-3.7V33
			h4.2C223.9,33,226.2,32.2,227.9,30.7z"/>
		<path id="XMLID_631_" class="st0" d="M274.7,9.1h6.6v29.7h-6.6l-14.2-18.6v18.6h-6.6V9.1h6.2l14.6,19.1V9.1z"/>
		<path id="XMLID_628_" class="st0" d="M309.8,38.8l-2.8-6.4h-12.5l-2.8,6.4h-7.1l12.8-29.7h6.4l12.8,29.7H309.8z M300.9,18
			l-3.7,8.6h7.4L300.9,18z"/>
		<path id="XMLID_626_" class="st0" d="M330.8,14.9v24h-6.6v-24h-8.4V9.2h23.5v5.7H330.8z"/>
		<path id="XMLID_624_" class="st0" d="M344,9.1h6.6v29.7H344V9.1z"/>
		<path id="XMLID_622_" class="st0" d="M368.9,28l7.6-18.9h7.2l-11.9,29.7h-5.6L354.3,9.1h7.2L368.9,28z"/>
		<path id="XMLID_620_" class="st0" d="M408.6,9.1V15h-14.8v6.1h13.3v5.7h-13.3V33h15.3v5.9h-21.9V9.2h21.4V9.1z"/>
		<path id="XMLID_618_" class="st0" d="M94.6,64.1c1.8,0,3.3-0.7,4.5-2.2l2.4,2.5c-1.9,2.1-4.1,3.2-6.7,3.2s-4.7-0.8-6.3-2.4
			c-1.7-1.6-2.5-3.7-2.5-6.1c0-2.5,0.8-4.5,2.5-6.2s3.8-2.5,6.2-2.5c2.7,0,5,1,6.9,3.1l-2.3,2.6c-1.2-1.5-2.6-2.2-4.4-2.2
			c-1.4,0-2.6,0.5-3.6,1.4s-1.5,2.1-1.5,3.7s0.5,2.8,1.4,3.7C92.1,63.7,93.3,64.1,94.6,64.1z"/>
		<path id="XMLID_615_" class="st0" d="M118,65.1c-1.7,1.6-3.8,2.5-6.2,2.5c-2.5,0-4.5-0.8-6.2-2.5c-1.7-1.6-2.5-3.7-2.5-6.1
			s0.8-4.5,2.5-6.1s3.8-2.5,6.2-2.5c2.5,0,4.5,0.8,6.2,2.5c1.7,1.6,2.5,3.7,2.5,6.1S119.7,63.5,118,65.1z M116.8,59
			c0-1.5-0.5-2.8-1.4-3.8c-1-1-2.1-1.6-3.5-1.6s-2.6,0.5-3.5,1.6c-1,1-1.4,2.3-1.4,3.8s0.5,2.7,1.4,3.8c1,1,2.1,1.6,3.5,1.6
			s2.6-0.5,3.5-1.6C116.3,61.8,116.8,60.5,116.8,59z"/>
		<path id="XMLID_613_" class="st0" d="M138.6,56.9l-4.5,9.1h-2.2l-4.5-9.1v10.5h-3.7V50.7h5l4.3,9.1l4.3-9.1h5v16.7h-3.7
			L138.6,56.9L138.6,56.9z"/>
		<path id="XMLID_610_" class="st0" d="M157.9,52.3c1.2,1,1.8,2.5,1.8,4.6s-0.6,3.6-1.8,4.5c-1.2,1-3,1.4-5.5,1.4h-2.2v4.6h-3.7
			V50.7h5.9C154.9,50.8,156.7,51.3,157.9,52.3z M155.2,58.8c0.4-0.5,0.7-1.2,0.7-2.2s-0.3-1.6-0.9-2s-1.5-0.6-2.7-0.6h-2.1v5.6h2.5
			C153.9,59.6,154.7,59.3,155.2,58.8z"/>
		<path id="XMLID_608_" class="st0" d="M167,63.1c0.6,0.8,1.5,1.2,2.5,1.2s1.9-0.4,2.5-1.2c0.6-0.8,0.9-1.8,0.9-3.2v-9.2h3.7V60
			c0,2.4-0.7,4.3-2,5.6c-1.3,1.3-3,1.9-5.1,1.9s-3.8-0.7-5.1-2s-2-3.2-2-5.6v-9.3h3.7v9.2C166.1,61.3,166.4,62.4,167,63.1z"/>
		<path id="XMLID_606_" class="st0" d="M187.5,54v13.4h-3.7V54h-4.7v-3.2h13.2V54H187.5z"/>
		<path id="XMLID_604_" class="st0" d="M195,50.8h3.7v16.7H195V50.8z"/>
		<path id="XMLID_602_" class="st0" d="M214.4,50.8h3.7v16.7h-3.7l-7.9-10.4v10.4h-3.7V50.8h3.5l8.2,10.7V50.8H214.4z"/>
		<path id="XMLID_600_" class="st0" d="M233.1,59h3.7v5.9c-1.7,1.8-3.9,2.8-6.9,2.8c-2.4,0-4.5-0.8-6.2-2.4s-2.5-3.7-2.5-6.1
			c0-2.5,0.8-4.5,2.5-6.2s3.7-2.5,6.1-2.5s4.5,0.8,6.2,2.4l-1.9,2.8c-0.7-0.7-1.4-1.1-2.1-1.3c-0.6-0.2-1.3-0.4-2-0.4
			c-1.4,0-2.6,0.5-3.6,1.4c-1,1-1.5,2.2-1.5,3.8c0,1.6,0.5,2.8,1.4,3.8c0.9,0.9,2,1.4,3.3,1.4s2.4-0.2,3.2-0.7V59H233.1z"/>
		<path id="XMLID_598_" class="st0" d="M257.8,50.8v3.3h-7.7v3.6h7.3V61h-7.3v6.5h-3.7V50.8L257.8,50.8L257.8,50.8z"/>
		<path id="XMLID_595_" class="st0" d="M275,65.1c-1.7,1.6-3.8,2.5-6.2,2.5c-2.5,0-4.5-0.8-6.2-2.5c-1.7-1.6-2.5-3.7-2.5-6.1
			s0.8-4.5,2.5-6.1s3.8-2.5,6.2-2.5c2.5,0,4.5,0.8,6.2,2.5c1.7,1.6,2.5,3.7,2.5,6.1S276.7,63.5,275,65.1z M273.7,59
			c0-1.5-0.5-2.8-1.4-3.8c-1-1-2.1-1.6-3.5-1.6s-2.6,0.5-3.5,1.6c-1,1-1.4,2.3-1.4,3.8s0.5,2.7,1.4,3.8c1,1,2.1,1.6,3.5,1.6
			s2.6-0.5,3.5-1.6C273.3,61.8,273.7,60.5,273.7,59z"/>
		<path id="XMLID_593_" class="st0" d="M285.1,63.1c0.6,0.8,1.5,1.2,2.5,1.2s1.9-0.4,2.5-1.2c0.6-0.8,0.9-1.8,0.9-3.2v-9.2h3.7V60
			c0,2.4-0.7,4.3-2,5.6c-1.3,1.3-3,1.9-5.1,1.9s-3.8-0.7-5.1-2c-1.3-1.3-2-3.2-2-5.6v-9.3h3.7v9.2C284.1,61.3,284.5,62.4,285.1,63.1
			z"/>
		<path id="XMLID_591_" class="st0" d="M310.2,50.8h3.7v16.7h-3.7l-7.9-10.4v10.4h-3.7V50.8h3.5l8.2,10.7V50.8H310.2z"/>
		<path id="XMLID_588_" class="st0" d="M330.7,53c1.6,1.5,2.4,3.5,2.4,6.1s-0.8,4.6-2.3,6.1s-3.9,2.3-7.1,2.3H318V50.8h5.9
			C326.9,50.8,329.2,51.5,330.7,53z M328,62.9c0.9-0.9,1.4-2.1,1.4-3.7s-0.5-2.9-1.4-3.8s-2.3-1.3-4.2-1.3h-2.1v10.1h2.4
			C325.8,64.1,327.1,63.7,328,62.9z"/>
		<path id="XMLID_585_" class="st0" d="M347.7,67.4l-1.5-3.6h-7l-1.5,3.6h-4l7.2-16.7h3.6l7.2,16.7H347.7z M342.7,55.7l-2.1,4.8h4.2
			L342.7,55.7z"/>
		<path id="XMLID_583_" class="st0" d="M359.5,54v13.4h-3.7V54H351v-3.2h13.2V54H359.5z"/>
		<path id="XMLID_581_" class="st0" d="M366.9,50.8h3.7v16.7h-3.7V50.8z"/>
		<path id="XMLID_578_" class="st0" d="M388.7,65.1c-1.7,1.6-3.8,2.5-6.2,2.5c-2.5,0-4.5-0.8-6.2-2.5c-1.7-1.6-2.5-3.7-2.5-6.1
			s0.8-4.5,2.5-6.1s3.8-2.5,6.2-2.5c2.5,0,4.5,0.8,6.2,2.5c1.7,1.6,2.5,3.7,2.5,6.1S390.4,63.5,388.7,65.1z M387.5,59
			c0-1.5-0.5-2.8-1.4-3.8c-1-1-2.1-1.6-3.5-1.6s-2.6,0.5-3.5,1.6c-1,1-1.4,2.3-1.4,3.8s0.5,2.7,1.4,3.8c1,1,2.1,1.6,3.5,1.6
			s2.6-0.5,3.5-1.6C387,61.8,387.5,60.5,387.5,59z"/>
		<path id="XMLID_576_" class="st0" d="M406,50.8h3.7v16.7H406l-7.9-10.4v10.4h-3.7V50.8h3.5l8.2,10.7L406,50.8L406,50.8z"/>
	</g>
</g>
<g id="XMLID_197_">
	<g id="XMLID_392_">
		<polygon id="XMLID_397_" class="st0" points="15.5,47.7 6.4,47.7 6.4,69.1 27.7,69.1 27.7,59.9 15.5,59.9 		"/>
		<polygon id="XMLID_395_" class="st0" points="61.3,47.8 61.3,59.9 49.1,59.9 49.1,59.8 49.1,69.1 70.4,69.1 70.4,47.7 61.2,47.7 
					"/>
		<polygon id="XMLID_394_" class="st0" points="6.4,26.4 15.6,26.4 15.5,26.3 15.5,14.2 15.5,14.2 27.7,14.2 27.7,14.2 27.7,5 
			6.4,5 		"/>
		<polygon id="XMLID_393_" class="st0" points="49.1,5 49.1,14.2 61.3,14.2 61.3,26.4 70.4,26.4 70.4,5 		"/>
	</g>
	<g id="XMLID_200_" class="st1">
		<polygon id="XMLID_391_" class="st0" points="47.9,26.4 35.7,14.2 49.1,14.2 49.1,5 27.7,5 27.7,14.2 39.9,26.4 		"/>
		<polygon id="XMLID_390_" class="st0" points="36.9,47.7 28.9,47.7 39,57.8 41,59.9 36.9,59.9 27.7,59.9 27.7,69.1 49.1,69.1 
			49.1,59.8 43,53.8 		"/>
		<polygon id="XMLID_389_" class="st0" points="61.3,26.4 61.3,35.5 61.3,39.7 59.2,37.6 49.1,27.5 49.1,35.6 55.1,41.6 61.2,47.7 
			70.4,47.7 70.4,26.4 		"/>
		<polygon id="XMLID_388_" class="st0" points="27.7,38.5 15.6,26.4 6.4,26.4 6.4,47.7 15.5,47.7 15.5,34.4 27.7,46.6 		"/>
	</g>
</g>
</svg>
