<?xml version="1.0" encoding="UTF-8" standalone="no"?>
<!DOCTYPE svg PUBLIC "-//W3C//DTD SVG 1.1//EN" "http://www.w3.org/Graphics/SVG/1.1/DTD/svg11.dtd">
<svg width="100%" height="100%" viewBox="0 0 825 349" version="1.1" xmlns="http://www.w3.org/2000/svg" xmlns:xlink="http://www.w3.org/1999/xlink" xml:space="preserve" xmlns:serif="http://www.serif.com/" style="fill-rule:evenodd;clip-rule:evenodd;stroke-linecap:round;stroke-linejoin:round;stroke-miterlimit:1.5;">
    <g transform="matrix(1,0,0,1,-88.6573,-155.775)">
        <g transform="matrix(2.2532,0,0,1.75755,-131.698,-691.81)">
            <path d="M290.354,487.635C290.354,484.665 288.473,482.254 286.157,482.254L101.994,482.254C99.678,482.254 97.797,484.665 97.797,487.635L97.797,675.055C97.797,678.025 99.678,680.436 101.994,680.436L286.157,680.436C288.473,680.436 290.354,678.025 290.354,675.055L290.354,487.635Z" style="fill:rgb(235,235,235);"/>
        </g>
        <g transform="matrix(1.3406,0,0,1,-32.5594,0)">
            <g transform="matrix(0.934492,0,0,1,46.7676,61.0866)">
                <path d="M58.034,183.837C58.034,181.092 60.26,178.866 63.005,178.866L376.087,178.866C377.405,178.866 378.669,179.39 379.602,180.322C380.534,181.254 381.058,182.519 381.058,183.837L381.058,203.722C381.058,206.467 378.832,208.693 376.087,208.693L63.005,208.693C60.26,208.693 58.034,206.467 58.034,203.722L58.034,183.837Z" style="fill:rgb(44,170,193);fill-opacity:0.78;"/>
            </g>
            <g transform="matrix(0.745935,0,0,1,25.6606,96.8696)">
                <text x="201.959px" y="161.888px" style="font-family:'Lato-Bold', 'Lato', sans-serif;font-weight:700;font-size:16px;fill:white;">MET<tspan x="234.751px 245.863px 253.695px " y="161.888px 161.888px 161.888px ">AL </tspan>MET<tspan x="290.375px 301.487px 313.295px 323.279px 331.751px 342.327px " y="161.888px 161.888px 161.888px 161.888px 161.888px 161.888px ">ADATA </tspan>SER<tspan x="374.119px " y="161.888px ">V</tspan>ER</text>
            </g>
        </g>
        <g transform="matrix(1.3406,0,0,1,-32.5594,37.7717)">
            <g transform="matrix(0.934492,0,0,1,46.7676,61.0866)">
                <path d="M58.034,183.837C58.034,181.092 60.26,178.866 63.005,178.866L376.087,178.866C377.405,178.866 378.669,179.39 379.602,180.322C380.534,181.254 381.058,182.519 381.058,183.837L381.058,203.722C381.058,206.467 378.832,208.693 376.087,208.693L63.005,208.693C60.26,208.693 58.034,206.467 58.034,203.722L58.034,183.837Z" style="fill:rgb(44,170,193);fill-opacity:0.78;"/>
            </g>
            <g transform="matrix(0.745935,0,0,1,25.6606,96.8696)">
                <text x="181.187px" y="161.888px" style="font-family:'Lato-Bold', 'Lato', sans-serif;font-weight:700;font-size:16px;fill:white;">MET<tspan x="213.979px 225.091px 232.923px 236.811px 247.147px " y="161.888px 161.888px 161.888px 161.888px 161.888px ">AL CO</tspan>NTR<tspan x="292.131px " y="161.888px ">O</tspan>LLER MANA<tspan x="394.387px " y="161.888px ">G</tspan>ER</text>
            </g>
        </g>
        <g transform="matrix(1.3406,0,0,1,-32.5594,75.5433)">
            <g transform="matrix(0.934492,0,0,1,46.7676,61.0866)">
                <path d="M58.034,183.837C58.034,181.092 60.26,178.866 63.005,178.866L376.087,178.866C377.405,178.866 378.669,179.39 379.602,180.322C380.534,181.254 381.058,182.519 381.058,183.837L381.058,203.722C381.058,206.467 378.832,208.693 376.087,208.693L63.005,208.693C60.26,208.693 58.034,206.467 58.034,203.722L58.034,183.837Z" style="fill:rgb(44,170,193);fill-opacity:0.78;"/>
            </g>
            <g transform="matrix(0.745935,0,0,1,25.6606,96.8696)">
                <text x="254.623px" y="161.888px" style="font-family:'Lato-Bold', 'Lato', sans-serif;font-weight:700;font-size:16px;fill:white;">CL<tspan x="273.199px " y="161.888px ">U</tspan>STER <tspan x="326.295px " y="161.888px ">A</tspan>PI</text>
            </g>
        </g>
        <g transform="matrix(1.3406,0,0,1,-32.5594,113.315)">
            <g transform="matrix(0.934492,0,0,1,46.7676,61.0866)">
                <path d="M58.034,183.837C58.034,181.092 60.26,178.866 63.005,178.866L376.087,178.866C377.405,178.866 378.669,179.39 379.602,180.322C380.534,181.254 381.058,182.519 381.058,183.837L381.058,203.722C381.058,206.467 378.832,208.693 376.087,208.693L63.005,208.693C60.26,208.693 58.034,206.467 58.034,203.722L58.034,183.837Z" style="fill:rgb(44,170,193);fill-opacity:0.78;"/>
            </g>
            <g transform="matrix(0.745935,0,0,1,25.6606,96.8696)">
                <text x="180.187px" y="161.888px" style="font-family:'Lato-Bold', 'Lato', sans-serif;font-weight:700;font-size:16px;fill:white;">CL<tspan x="198.763px " y="161.888px ">U</tspan>STER <tspan x="251.859px " y="161.888px ">A</tspan>PI PR<tspan x="301.539px 314.091px " y="161.888px 161.888px ">OV</tspan>IDER (MET<tspan x="402.675px " y="161.888px ">A</tspan>L)</text>
            </g>
        </g>
        <g transform="matrix(1.3406,0,0,1,-32.5594,151.087)">
            <g transform="matrix(0.934492,0,0,1,46.7676,61.0866)">
                <path d="M58.034,183.837C58.034,181.092 60.26,178.866 63.005,178.866L376.087,178.866C377.405,178.866 378.669,179.39 379.602,180.322C380.534,181.254 381.058,182.519 381.058,183.837L381.058,203.722C381.058,206.467 378.832,208.693 376.087,208.693L63.005,208.693C60.26,208.693 58.034,206.467 58.034,203.722L58.034,183.837Z" style="fill:rgb(44,170,193);fill-opacity:0.78;"/>
            </g>
            <g transform="matrix(0.745935,0,0,1,25.6606,96.8696)">
                <text x="132.351px" y="161.888px" style="font-family:'Lato-Bold', 'Lato', sans-serif;font-weight:700;font-size:16px;fill:white;">CL<tspan x="150.927px " y="161.888px ">U</tspan>STER <tspan x="204.023px " y="161.888px ">A</tspan>PI BOO<tspan x="269.671px " y="161.888px ">T</tspan>STRAP<tspan x="328.479px " y="161.888px "> </tspan>PR<tspan x="352.399px 364.951px " y="161.888px 161.888px ">OV</tspan>IDER (T<tspan x="429.215px 440.327px 448.231px " y="161.888px 161.888px 161.888px ">ALO</tspan>S)</text>
            </g>
        </g>
        <g transform="matrix(1.3406,0,0,1,-32.5594,188.858)">
            <g transform="matrix(0.934492,0,0,1,46.7676,61.0866)">
                <path d="M58.034,183.837C58.034,181.092 60.26,178.866 63.005,178.866L376.087,178.866C377.405,178.866 378.669,179.39 379.602,180.322C380.534,181.254 381.058,182.519 381.058,183.837L381.058,203.722C381.058,206.467 378.832,208.693 376.087,208.693L63.005,208.693C60.26,208.693 58.034,206.467 58.034,203.722L58.034,183.837Z" style="fill:rgb(44,170,193);fill-opacity:0.78;"/>
            </g>
            <g transform="matrix(0.745935,0,0,1,25.6606,96.8696)">
                <text x="201.959px" y="161.888px" style="font-family:'Lato-Bold', 'Lato', sans-serif;font-weight:700;font-size:16px;fill:white;">MET<tspan x="234.751px 245.863px 253.695px " y="161.888px 161.888px 161.888px ">AL </tspan>MET<tspan x="290.375px 301.487px 313.295px 323.279px 331.751px 342.327px " y="161.888px 161.888px 161.888px 161.888px 161.888px 161.888px ">ADATA </tspan>SER<tspan x="374.119px " y="161.888px ">V</tspan>ER</text>
            </g>
        </g>
        <g transform="matrix(1,0,0,1,1.84121,28.5074)">
            <text x="120.227px" y="169.318px" style="font-family:'Lato-Bold', 'Lato', sans-serif;font-weight:700;font-size:26px;fill:rgb(108,108,108);">AR<tspan x="154.742px " y="169.318px ">G</tspan>ES MANA<tspan x="289.305px " y="169.318px ">G</tspan>EMENT<tspan x="397.491px " y="169.318px "> </tspan>PLANE</text>
        </g>
    </g>
    <g transform="matrix(1,0,0,1,-52.3216,-76.7567)">
        <g>
            <g transform="matrix(1,0,0,1,-36.151,-195.484)">
                <path d="M740.165,305.475C740.165,301.846 737.219,298.9 733.59,298.9L615.237,298.9C611.608,298.9 608.661,301.846 608.661,305.475L608.661,423.828C608.661,427.457 611.608,430.403 615.237,430.403L733.59,430.403C737.219,430.403 740.165,427.457 740.165,423.828L740.165,305.475Z" style="fill:rgb(235,235,235);"/>
            </g>
            <g transform="matrix(1,0,0,1,471.51,-34.3764)">
                <text x="126.008px" y="161.888px" style="font-family:'Lato-Bold', 'Lato', sans-serif;font-weight:700;font-size:16px;fill:rgb(108,108,108);">CL<tspan x="144.584px " y="161.888px ">U</tspan>STER 1</text>
            </g>
        </g>
        <g>
            <g transform="matrix(0.662713,0,0,0.662713,189.434,-80.2977)">
                <rect x="616.854" y="335.056" width="30.193" height="30.193" style="fill:rgb(231,128,153);"/>
            </g>
            <g transform="matrix(0.662713,0,0,0.662713,219.46,-80.2977)">
                <rect x="616.854" y="335.056" width="30.193" height="30.193" style="fill:rgb(231,128,153);"/>
            </g>
            <g transform="matrix(0.662713,0,0,0.662713,249.486,-80.2977)">
                <rect x="616.854" y="335.056" width="30.193" height="30.193" style="fill:rgb(231,128,153);"/>
            </g>
        </g>
        <g transform="matrix(1,0,0,1,7.50649,-1.83203)">
            <g transform="matrix(0.662713,0,0,0.662713,189.434,-38.4995)">
                <rect x="616.854" y="335.056" width="30.193" height="30.193" style="fill:rgb(231,128,153);stroke:rgb(232,175,189);stroke-width:1.51px;"/>
            </g>
            <g transform="matrix(0.662713,0,0,0.662713,194.174,-33.95)">
                <rect x="616.854" y="335.056" width="30.193" height="30.193" style="fill:rgb(231,128,153);stroke:rgb(232,175,189);stroke-width:1.51px;"/>
            </g>
            <g transform="matrix(0.662713,0,0,0.662713,199.451,-28.495)">
                <rect x="616.854" y="335.056" width="30.193" height="30.193" style="fill:rgb(231,128,153);stroke:rgb(232,175,189);stroke-width:1.51px;"/>
            </g>
        </g>
        <g transform="matrix(1,0,0,1,42.5286,-1.83203)">
            <g transform="matrix(0.662713,0,0,0.662713,189.434,-38.4995)">
                <rect x="616.854" y="335.056" width="30.193" height="30.193" style="fill:rgb(231,128,153);stroke:rgb(232,175,189);stroke-width:1.51px;"/>
            </g>
            <g transform="matrix(0.662713,0,0,0.662713,194.174,-33.95)">
                <rect x="616.854" y="335.056" width="30.193" height="30.193" style="fill:rgb(231,128,153);stroke:rgb(232,175,189);stroke-width:1.51px;"/>
            </g>
            <g transform="matrix(0.662713,0,0,0.662713,199.451,-28.495)">
                <rect x="616.854" y="335.056" width="30.193" height="30.193" style="fill:rgb(231,128,153);stroke:rgb(232,175,189);stroke-width:1.51px;"/>
            </g>
        </g>
    </g>
    <g transform="matrix(1,0,0,1,-52.3216,86.7374)">
        <g>
            <g transform="matrix(1,0,0,1,-36.151,-195.484)">
                <path d="M740.165,305.475C740.165,301.846 737.219,298.9 733.59,298.9L615.237,298.9C611.608,298.9 608.661,301.846 608.661,305.475L608.661,423.828C608.661,427.457 611.608,430.403 615.237,430.403L733.59,430.403C737.219,430.403 740.165,427.457 740.165,423.828L740.165,305.475Z" style="fill:rgb(235,235,235);"/>
            </g>
            <g transform="matrix(1,0,0,1,471.51,-34.3764)">
                <text x="126.008px" y="161.888px" style="font-family:'Lato-Bold', 'Lato', sans-serif;font-weight:700;font-size:16px;fill:rgb(108,108,108);">CL<tspan x="144.584px " y="161.888px ">U</tspan>STER 3</text>
            </g>
        </g>
        <g>
            <g transform="matrix(0.662713,0,0,0.662713,189.434,-80.2977)">
                <rect x="616.854" y="335.056" width="30.193" height="30.193" style="fill:rgb(231,128,153);"/>
            </g>
            <g transform="matrix(0.662713,0,0,0.662713,219.46,-80.2977)">
                <rect x="616.854" y="335.056" width="30.193" height="30.193" style="fill:rgb(231,128,153);"/>
            </g>
            <g transform="matrix(0.662713,0,0,0.662713,249.486,-80.2977)">
                <rect x="616.854" y="335.056" width="30.193" height="30.193" style="fill:rgb(231,128,153);"/>
            </g>
        </g>
        <g transform="matrix(1,0,0,1,7.50649,-1.83203)">
            <g transform="matrix(0.662713,0,0,0.662713,189.434,-38.4995)">
                <rect x="616.854" y="335.056" width="30.193" height="30.193" style="fill:rgb(231,128,153);stroke:rgb(232,175,189);stroke-width:1.51px;"/>
            </g>
            <g transform="matrix(0.662713,0,0,0.662713,194.174,-33.95)">
                <rect x="616.854" y="335.056" width="30.193" height="30.193" style="fill:rgb(231,128,153);stroke:rgb(232,175,189);stroke-width:1.51px;"/>
            </g>
            <g transform="matrix(0.662713,0,0,0.662713,199.451,-28.495)">
                <rect x="616.854" y="335.056" width="30.193" height="30.193" style="fill:rgb(231,128,153);stroke:rgb(232,175,189);stroke-width:1.51px;"/>
            </g>
        </g>
        <g transform="matrix(1,0,0,1,42.5286,-1.83203)">
            <g transform="matrix(0.662713,0,0,0.662713,189.434,-38.4995)">
                <rect x="616.854" y="335.056" width="30.193" height="30.193" style="fill:rgb(231,128,153);stroke:rgb(232,175,189);stroke-width:1.51px;"/>
            </g>
            <g transform="matrix(0.662713,0,0,0.662713,194.174,-33.95)">
                <rect x="616.854" y="335.056" width="30.193" height="30.193" style="fill:rgb(231,128,153);stroke:rgb(232,175,189);stroke-width:1.51px;"/>
            </g>
            <g transform="matrix(0.662713,0,0,0.662713,199.451,-28.495)">
                <rect x="616.854" y="335.056" width="30.193" height="30.193" style="fill:rgb(231,128,153);stroke:rgb(232,175,189);stroke-width:1.51px;"/>
            </g>
        </g>
    </g>
    <g transform="matrix(1,0,0,1,120.095,-76.7567)">
        <g>
            <g transform="matrix(1,0,0,1,-36.151,-195.484)">
                <path d="M740.165,305.475C740.165,301.846 737.219,298.9 733.59,298.9L615.237,298.9C611.608,298.9 608.661,301.846 608.661,305.475L608.661,423.828C608.661,427.457 611.608,430.403 615.237,430.403L733.59,430.403C737.219,430.403 740.165,427.457 740.165,423.828L740.165,305.475Z" style="fill:rgb(235,235,235);"/>
            </g>
            <g transform="matrix(1,0,0,1,471.51,-34.3764)">
                <text x="126.008px" y="161.888px" style="font-family:'Lato-Bold', 'Lato', sans-serif;font-weight:700;font-size:16px;fill:rgb(108,108,108);">CL<tspan x="144.584px " y="161.888px ">U</tspan>STER 2</text>
            </g>
        </g>
        <g>
            <g transform="matrix(0.662713,0,0,0.662713,189.434,-80.2977)">
                <rect x="616.854" y="335.056" width="30.193" height="30.193" style="fill:rgb(231,128,153);"/>
            </g>
            <g transform="matrix(0.662713,0,0,0.662713,219.46,-80.2977)">
                <rect x="616.854" y="335.056" width="30.193" height="30.193" style="fill:rgb(231,128,153);"/>
            </g>
            <g transform="matrix(0.662713,0,0,0.662713,249.486,-80.2977)">
                <rect x="616.854" y="335.056" width="30.193" height="30.193" style="fill:rgb(231,128,153);"/>
            </g>
        </g>
        <g transform="matrix(1,0,0,1,7.50649,-1.83203)">
            <g transform="matrix(0.662713,0,0,0.662713,189.434,-38.4995)">
                <rect x="616.854" y="335.056" width="30.193" height="30.193" style="fill:rgb(231,128,153);stroke:rgb(232,175,189);stroke-width:1.51px;"/>
            </g>
            <g transform="matrix(0.662713,0,0,0.662713,194.174,-33.95)">
                <rect x="616.854" y="335.056" width="30.193" height="30.193" style="fill:rgb(231,128,153);stroke:rgb(232,175,189);stroke-width:1.51px;"/>
            </g>
            <g transform="matrix(0.662713,0,0,0.662713,199.451,-28.495)">
                <rect x="616.854" y="335.056" width="30.193" height="30.193" style="fill:rgb(231,128,153);stroke:rgb(232,175,189);stroke-width:1.51px;"/>
            </g>
        </g>
        <g transform="matrix(1,0,0,1,42.5286,-1.83203)">
            <g transform="matrix(0.662713,0,0,0.662713,189.434,-38.4995)">
                <rect x="616.854" y="335.056" width="30.193" height="30.193" style="fill:rgb(231,128,153);stroke:rgb(232,175,189);stroke-width:1.51px;"/>
            </g>
            <g transform="matrix(0.662713,0,0,0.662713,194.174,-33.95)">
                <rect x="616.854" y="335.056" width="30.193" height="30.193" style="fill:rgb(231,128,153);stroke:rgb(232,175,189);stroke-width:1.51px;"/>
            </g>
            <g transform="matrix(0.662713,0,0,0.662713,199.451,-28.495)">
                <rect x="616.854" y="335.056" width="30.193" height="30.193" style="fill:rgb(231,128,153);stroke:rgb(232,175,189);stroke-width:1.51px;"/>
            </g>
        </g>
    </g>
    <g transform="matrix(1,0,0,1,120.095,86.7374)">
        <g>
            <g transform="matrix(1,0,0,1,-36.151,-195.484)">
                <path d="M740.165,305.475C740.165,301.846 737.219,298.9 733.59,298.9L615.237,298.9C611.608,298.9 608.661,301.846 608.661,305.475L608.661,423.828C608.661,427.457 611.608,430.403 615.237,430.403L733.59,430.403C737.219,430.403 740.165,427.457 740.165,423.828L740.165,305.475Z" style="fill:rgb(235,235,235);"/>
            </g>
            <g transform="matrix(1,0,0,1,471.51,-34.3764)">
                <text x="126.008px" y="161.888px" style="font-family:'Lato-Bold', 'Lato', sans-serif;font-weight:700;font-size:16px;fill:rgb(108,108,108);">CL<tspan x="144.584px " y="161.888px ">U</tspan>STER 4</text>
            </g>
        </g>
        <g>
            <g transform="matrix(0.662713,0,0,0.662713,189.434,-80.2977)">
                <rect x="616.854" y="335.056" width="30.193" height="30.193" style="fill:rgb(231,128,153);"/>
            </g>
            <g transform="matrix(0.662713,0,0,0.662713,219.46,-80.2977)">
                <rect x="616.854" y="335.056" width="30.193" height="30.193" style="fill:rgb(231,128,153);"/>
            </g>
            <g transform="matrix(0.662713,0,0,0.662713,249.486,-80.2977)">
                <rect x="616.854" y="335.056" width="30.193" height="30.193" style="fill:rgb(231,128,153);"/>
            </g>
        </g>
        <g transform="matrix(1,0,0,1,7.50649,-1.83203)">
            <g transform="matrix(0.662713,0,0,0.662713,189.434,-38.4995)">
                <rect x="616.854" y="335.056" width="30.193" height="30.193" style="fill:rgb(231,128,153);stroke:rgb(232,175,189);stroke-width:1.51px;"/>
            </g>
            <g transform="matrix(0.662713,0,0,0.662713,194.174,-33.95)">
                <rect x="616.854" y="335.056" width="30.193" height="30.193" style="fill:rgb(231,128,153);stroke:rgb(232,175,189);stroke-width:1.51px;"/>
            </g>
            <g transform="matrix(0.662713,0,0,0.662713,199.451,-28.495)">
                <rect x="616.854" y="335.056" width="30.193" height="30.193" style="fill:rgb(231,128,153);stroke:rgb(232,175,189);stroke-width:1.51px;"/>
            </g>
        </g>
        <g transform="matrix(1,0,0,1,42.5286,-1.83203)">
            <g transform="matrix(0.662713,0,0,0.662713,189.434,-38.4995)">
                <rect x="616.854" y="335.056" width="30.193" height="30.193" style="fill:rgb(231,128,153);stroke:rgb(232,175,189);stroke-width:1.51px;"/>
            </g>
            <g transform="matrix(0.662713,0,0,0.662713,194.174,-33.95)">
                <rect x="616.854" y="335.056" width="30.193" height="30.193" style="fill:rgb(231,128,153);stroke:rgb(232,175,189);stroke-width:1.51px;"/>
            </g>
            <g transform="matrix(0.662713,0,0,0.662713,199.451,-28.495)">
                <rect x="616.854" y="335.056" width="30.193" height="30.193" style="fill:rgb(231,128,153);stroke:rgb(232,175,189);stroke-width:1.51px;"/>
            </g>
        </g>
    </g>
</svg>
