<svg version="1.1" viewBox="0.0 0.0 576.0 576.0" fill="none" stroke="none" stroke-linecap="square" stroke-miterlimit="10" xmlns:xlink="http://www.w3.org/1999/xlink" xmlns="http://www.w3.org/2000/svg"><clipPath id="g6d60629b59_0_0.0"><path d="m0 0l576.0 0l0 576.0l-576.0 0l0 -576.0z" clip-rule="nonzero"/></clipPath><g clip-path="url(#g6d60629b59_0_0.0)"><path fill="#ffffff" d="m0 0l576.0 0l0 576.0l-576.0 0z" fill-rule="evenodd"/><path fill="#666666" d="m538.8719 137.88635l0 0c0 -0.80226135 0.6503906 -1.4526215 1.4526367 -1.4526215l13.08783 0c0.3852539 0 0.75476074 0.15304565 1.0271606 0.42546082c0.27246094 0.27243042 0.42547607 0.64190674 0.42547607 1.0271606l0 5.8103333c0 0.8022766 -0.6503296 1.4526367 -1.4526367 1.4526367l-13.08783 0c-0.8022461 0 -1.4526367 -0.6503601 -1.4526367 -1.4526367z" fill-rule="evenodd"/><path stroke="#666666" stroke-width="4.0" stroke-linejoin="round" stroke-linecap="butt" d="m538.8719 137.88635l0 0c0 -0.80226135 0.6503906 -1.4526215 1.4526367 -1.4526215l13.08783 0c0.3852539 0 0.75476074 0.15304565 1.0271606 0.42546082c0.27246094 0.27243042 0.42547607 0.64190674 0.42547607 1.0271606l0 5.8103333c0 0.8022766 -0.6503296 1.4526367 -1.4526367 1.4526367l-13.08783 0c-0.8022461 0 -1.4526367 -0.6503601 -1.4526367 -1.4526367z" fill-rule="evenodd"/><path fill="#666666" d="m538.8719 127.39837l0 0c0 -4.416374 3.5802002 -7.996559 7.996582 -7.996559l0 0c2.1207886 0 4.154724 0.84249115 5.654358 2.3421402c1.4996948 1.4996414 2.342163 3.5335999 2.342163 5.654419l0 0c0 4.416374 -3.5802002 7.996559 -7.996521 7.996559l0 0c-4.416382 0 -7.996582 -3.580185 -7.996582 -7.996559z" fill-rule="evenodd"/><path stroke="#ffffff" stroke-width="2.0" stroke-linejoin="round" stroke-linecap="butt" d="m538.8719 127.39837l0 0c0 -4.416374 3.5802002 -7.996559 7.996582 -7.996559l0 0c2.1207886 0 4.154724 0.84249115 5.654358 2.3421402c1.4996948 1.4996414 2.342163 3.5335999 2.342163 5.654419l0 0c0 4.416374 -3.5802002 7.996559 -7.996521 7.996559l0 0c-4.416382 0 -7.996582 -3.580185 -7.996582 -7.996559z" fill-rule="evenodd"/><path fill="#efefef" d="m72.56956 19.889763l357.95276 0l0 209.73227l-357.95276 0z" fill-rule="evenodd"/><path stroke="#ffffff" stroke-width="2.0" stroke-linejoin="round" stroke-linecap="butt" d="m72.56956 19.889763l357.95276 0l0 209.73227l-357.95276 0z" fill-rule="evenodd"/><path fill="#efefef" d="m56.569553 35.889763l357.95276 0l0 209.73227l-357.95276 0z" fill-rule="evenodd"/><path stroke="#ffffff" stroke-width="2.0" stroke-linejoin="round" stroke-linecap="butt" d="m56.569553 35.889763l357.95276 0l0 209.73227l-357.95276 0z" fill-rule="evenodd"/><path fill="#eeeeee" d="m40.569553 51.889763l357.95276 0l0 209.73227l-357.95276 0z" fill-rule="evenodd"/><path stroke="#ffffff" stroke-width="2.0" stroke-linejoin="round" stroke-linecap="butt" d="m40.569553 51.889763l357.95276 0l0 209.73227l-357.95276 0z" fill-rule="evenodd"/><path fill="#000000" fill-opacity="0.0" d="m44.572178 54.97113l212.91339 0l0 29.826767l-212.91339 0z" fill-rule="evenodd"/><path fill="#000000" d="m61.931553 75.55113q0.15625 0 0.265625 0.125l0.78125 0.84375q-0.640625 0.796875 -1.59375 1.234375q-0.9375 0.421875 -2.25 0.421875q-1.1875 0 -2.125 -0.40625q-0.9375 -0.40625 -1.609375 -1.125q-0.65625 -0.71875 -1.015625 -1.71875q-0.359375 -1.0 -0.359375 -2.171875q0 -1.203125 0.390625 -2.1875q0.40625 -1.0 1.125 -1.71875q0.71875 -0.71875 1.71875 -1.109375q1.0 -0.40625 2.203125 -0.40625q1.1875 0 2.0625 0.390625q0.890625 0.375 1.515625 1.0l-0.65625 0.90625q-0.0625 0.09375 -0.15625 0.15625q-0.09375 0.0625 -0.25 0.0625q-0.171875 0 -0.34375 -0.125q-0.171875 -0.140625 -0.453125 -0.28125q-0.265625 -0.15625 -0.6875 -0.28125q-0.40625 -0.140625 -1.046875 -0.140625q-0.75 0 -1.375 0.265625q-0.625 0.25 -1.078125 0.734375q-0.453125 0.484375 -0.703125 1.1875q-0.25 0.6875 -0.25 1.546875q0 0.890625 0.25 1.59375q0.25 0.6875 0.6875 1.171875q0.4375 0.46875 1.015625 0.734375q0.59375 0.25 1.265625 0.25q0.40625 0 0.71875 -0.046875q0.328125 -0.046875 0.609375 -0.140625q0.28125 -0.09375 0.515625 -0.234375q0.25 -0.15625 0.5 -0.390625q0.0625 -0.0625 0.140625 -0.09375q0.09375 -0.046875 0.1875 -0.046875zm12.701893 -2.796875q0 1.15625 -0.390625 2.15625q-0.390625 1.0 -1.09375 1.71875q-0.703125 0.71875 -1.6875 1.140625q-0.984375 0.40625 -2.1875 0.40625q-1.203125 0 -2.203125 -0.40625q-0.984375 -0.421875 -1.703125 -1.140625q-0.703125 -0.71875 -1.09375 -1.71875q-0.3906288 -1.0 -0.3906288 -2.15625q0 -1.171875 0.3906288 -2.15625q0.390625 -1.0 1.09375 -1.71875q0.71875 -0.734375 1.703125 -1.140625q1.0 -0.40625 2.203125 -0.40625q1.203125 0 2.1875 0.421875q0.984375 0.40625 1.6875 1.125q0.703125 0.71875 1.09375 1.71875q0.390625 0.984375 0.390625 2.15625zm-2.015625 0q0 -0.875 -0.234375 -1.5625q-0.234375 -0.703125 -0.671875 -1.171875q-0.421875 -0.484375 -1.046875 -0.734375q-0.625 -0.265625 -1.390625 -0.265625q-0.78125 0 -1.40625 0.265625q-0.625 0.25 -1.0625 0.734375q-0.4375 0.46875 -0.671875 1.171875q-0.234375 0.6875 -0.234375 1.5625q0 0.875 0.234375 1.5625q0.234375 0.6875 0.671875 1.171875q0.4375 0.484375 1.0625 0.75q0.625 0.25 1.40625 0.25q0.765625 0 1.390625 -0.25q0.625 -0.265625 1.046875 -0.75q0.4375 -0.484375 0.671875 -1.171875q0.234375 -0.6875 0.234375 -1.5625zm4.6081543 -5.296875q0.125 0 0.203125 0.015625q0.09375 0 0.15625 0.03125q0.078125 0.03125 0.140625 0.09375q0.078125 0.0625 0.15625 0.171875l5.5625 7.09375q-0.03125 -0.265625 -0.046875 -0.5q-0.015625 -0.25 -0.015625 -0.46875l0 -6.4375l1.75 0l0 10.59375l-1.03125 0q-0.234375 0 -0.390625 -0.0625q-0.140625 -0.078125 -0.296875 -0.28125l-5.53125 -7.046875q0.015625 0.234375 0.03125 0.46875q0.015625 0.21875 0.015625 0.421875l0 6.5l-1.75 0l0 -10.59375l1.046875 0l0 0zm17.501862 0l0 1.609375l-3.1875 0l0 8.984375l-1.96875 0l0 -8.984375l-3.203125 0l0 -1.609375l8.359375 0zm3.2984924 6.453125l0 4.140625l-1.96875 0l0 -10.59375l3.234375 0q1.078125 0 1.84375 0.21875q0.78125 0.21875 1.265625 0.625q0.5 0.40625 0.734375 0.96875q0.234375 0.5625 0.234375 1.234375q0 0.53125 -0.15625 1.015625q-0.15625 0.46875 -0.453125 0.859375q-0.296875 0.390625 -0.734375 0.6875q-0.4375 0.28125 -1.0 0.46875q0.375 0.203125 0.640625 0.609375l2.65625 3.90625l-1.765625 0q-0.265625 0 -0.453125 -0.09375q-0.171875 -0.109375 -0.296875 -0.296875l-2.21875 -3.390625q-0.125 -0.203125 -0.28125 -0.28125q-0.140625 -0.078125 -0.4375 -0.078125l-0.84375 0zm0 -1.40625l1.234375 0q0.546875 0 0.953125 -0.140625q0.421875 -0.140625 0.6875 -0.390625q0.28125 -0.25 0.40625 -0.578125q0.125 -0.34375 0.125 -0.75q0 -0.796875 -0.53125 -1.234375q-0.53125 -0.4375 -1.609375 -0.4375l-1.265625 0l0 3.53125zm17.372726 0.25q0 1.15625 -0.390625 2.15625q-0.390625 1.0 -1.09375 1.71875q-0.703125 0.71875 -1.6875 1.140625q-0.984375 0.40625 -2.1875 0.40625q-1.203125 0 -2.203125 -0.40625q-0.984375 -0.421875 -1.703125 -1.140625q-0.703125 -0.71875 -1.09375 -1.71875q-0.390625 -1.0 -0.390625 -2.15625q0 -1.171875 0.390625 -2.15625q0.390625 -1.0 1.09375 -1.71875q0.71875 -0.734375 1.703125 -1.140625q1.0 -0.40625 2.203125 -0.40625q1.203125 0 2.1875 0.421875q0.984375 0.40625 1.6875 1.125q0.703125 0.71875 1.09375 1.71875q0.390625 0.984375 0.390625 2.15625zm-2.015625 0q0 -0.875 -0.234375 -1.5625q-0.234375 -0.703125 -0.671875 -1.171875q-0.421875 -0.484375 -1.046875 -0.734375q-0.625 -0.265625 -1.390625 -0.265625q-0.78125 0 -1.40625 0.265625q-0.625 0.25 -1.0625 0.734375q-0.4375 0.46875 -0.671875 1.171875q-0.234375 0.6875 -0.234375 1.5625q0 0.875 0.234375 1.5625q0.234375 0.6875 0.671875 1.171875q0.4375 0.484375 1.0625 0.75q0.625 0.25 1.40625 0.25q0.765625 0 1.390625 -0.25q0.625 -0.265625 1.046875 -0.75q0.4375 -0.484375 0.671875 -1.171875q0.234375 -0.6875 0.234375 -1.5625zm5.5456543 3.671875l4.234375 0l0 1.625l-6.21875 0l0 -10.59375l1.984375 0l0 8.96875zm10.468315 -2.109375l0 3.734375l-1.9687424 0l0 -10.59375l3.4531174 0q1.0625 0 1.828125 0.25q0.78125 0.25 1.28125 0.703125q0.515625 0.4375 0.75 1.0625q0.25 0.625 0.25 1.359375q0 0.765625 -0.265625 1.40625q-0.25 0.640625 -0.765625 1.109375q-0.515625 0.453125 -1.28125 0.71875q-0.765625 0.25 -1.796875 0.25l-1.484375 0zm0 -1.53125l1.484375 0q0.53125 0 0.9375 -0.140625q0.40625 -0.140625 0.671875 -0.390625q0.265625 -0.25 0.390625 -0.609375q0.140625 -0.359375 0.140625 -0.8125q0 -0.421875 -0.140625 -0.765625q-0.125 -0.34375 -0.390625 -0.578125q-0.265625 -0.25 -0.671875 -0.375q-0.40625 -0.140625 -0.9375 -0.140625l-1.484375 0l0 3.8125zm9.097549 3.640625l4.234375 0l0 1.625l-6.21875 0l0 -10.59375l1.984375 0l0 8.96875zm14.920944 1.625l-1.53125 0q-0.25 0 -0.421875 -0.125q-0.171875 -0.125 -0.234375 -0.328125l-0.796875 -2.15625l-4.390625 0l-0.78125 2.15625q-0.0625 0.171875 -0.234375 0.3125q-0.171875 0.140625 -0.421875 0.140625l-1.53125 0l4.15625 -10.59375l2.015625 0l4.171875 10.59375zm-6.859375 -4.0l3.375 0l-1.296875 -3.53125q-0.078125 -0.234375 -0.1875 -0.546875q-0.109375 -0.3125 -0.21875 -0.6875q-0.09375 0.375 -0.203125 0.703125q-0.09375 0.3125 -0.1875 0.546875l-1.28125 3.515625zm8.9839325 -6.59375q0.125 0 0.203125 0.015625q0.09375 0 0.15625 0.03125q0.078125 0.03125 0.140625 0.09375q0.078125 0.0625 0.15625 0.171875l5.5625 7.09375q-0.03125 -0.265625 -0.046875 -0.5q-0.015625 -0.25 -0.015625 -0.46875l0 -6.4375l1.75 0l0 10.59375l-1.03125 0q-0.234375 0 -0.390625 -0.0625q-0.140625 -0.078125 -0.296875 -0.28125l-5.53125 -7.046875q0.015625 0.234375 0.03125 0.46875q0.015625 0.21875 0.015625 0.421875l0 6.5l-1.75 0l0 -10.59375l1.046875 0l0 0zm16.720612 0l0 1.5625l-4.6875 0l0 2.9375l3.6875 0l0 1.515625l-3.6875 0l0 3.0l4.6875 0l0 1.578125l-6.6875 0l0 -10.59375l6.6875 0zm5.578598 0q0.125 0 0.203125 0.015625q0.09375 0 0.15625 0.03125q0.078125 0.03125 0.140625 0.09375q0.078125 0.0625 0.15625 0.171875l5.5625 7.09375q-0.03125 -0.265625 -0.046875 -0.5q-0.015625 -0.25 -0.015625 -0.46875l0 -6.4375l1.75 0l0 10.59375l-1.03125 0q-0.234375 0 -0.390625 -0.0625q-0.140625 -0.078125 -0.296875 -0.28125l-5.53125 -7.046875q0.015625 0.234375 0.03125 0.46875q0.015625 0.21875 0.015625 0.421875l0 6.5l-1.75 0l0 -10.59375l1.046875 0l0 0zm20.204987 5.296875q0 1.15625 -0.390625 2.15625q-0.390625 1.0 -1.09375 1.71875q-0.703125 0.71875 -1.6875 1.140625q-0.984375 0.40625 -2.1875 0.40625q-1.203125 0 -2.203125 -0.40625q-0.984375 -0.421875 -1.703125 -1.140625q-0.703125 -0.71875 -1.09375 -1.71875q-0.390625 -1.0 -0.390625 -2.15625q0 -1.171875 0.390625 -2.15625q0.390625 -1.0 1.09375 -1.71875q0.71875 -0.734375 1.703125 -1.140625q1.0 -0.40625 2.203125 -0.40625q1.203125 0 2.1875 0.421875q0.984375 0.40625 1.6875 1.125q0.703125 0.71875 1.09375 1.71875q0.390625 0.984375 0.390625 2.15625zm-2.015625 0q0 -0.875 -0.234375 -1.5625q-0.234375 -0.703125 -0.671875 -1.171875q-0.421875 -0.484375 -1.046875 -0.734375q-0.625 -0.265625 -1.390625 -0.265625q-0.78125 0 -1.40625 0.265625q-0.625 0.25 -1.0625 0.734375q-0.4375 0.46875 -0.671875 1.171875q-0.234375 0.6875 -0.234375 1.5625q0 0.875 0.234375 1.5625q0.234375 0.6875 0.671875 1.171875q0.4375 0.484375 1.0625 0.75q0.625 0.25 1.40625 0.25q0.765625 0 1.390625 -0.25q0.625 -0.265625 1.046875 -0.75q0.4375 -0.484375 0.671875 -1.171875q0.234375 -0.6875 0.234375 -1.5625zm12.983154 0q0 1.15625 -0.390625 2.140625q-0.390625 0.96875 -1.09375 1.671875q-0.703125 0.703125 -1.703125 1.09375q-0.984375 0.390625 -2.1875 0.390625l-4.046875 0l0 -10.59375l4.046875 0q1.203125 0 2.1875 0.390625q1.0 0.390625 1.703125 1.09375q0.703125 0.703125 1.09375 1.671875q0.390625 0.96875 0.390625 2.140625zm-2.015625 0q0 -0.875 -0.234375 -1.5625q-0.234375 -0.703125 -0.671875 -1.171875q-0.4375 -0.484375 -1.0625 -0.734375q-0.609375 -0.265625 -1.390625 -0.265625l-2.046875 0l0 7.46875l2.046875 0q0.78125 0 1.390625 -0.25q0.625 -0.265625 1.0625 -0.75q0.4375 -0.484375 0.671875 -1.171875q0.234375 -0.6875 0.234375 -1.5625zm10.236664 -5.296875l0 1.5625l-4.6875 0l0 2.9375l3.6875 0l0 1.515625l-3.6875 0l0 3.0l4.6875 0l0 1.578125l-6.6875 0l0 -10.59375l6.6875 0z" fill-rule="nonzero"/><path fill="#ffffff" d="m58.034122 224.87709l0 0c0 -2.7455292 2.2256927 -4.971222 4.9712257 -4.971222l313.08118 0c1.3184509 0 2.5828857 0.5237427 3.5151978 1.4560394c0.9322815 0.9322815 1.4560242 2.1967316 1.4560242 3.5151825l0 19.884323c0 2.7455292 -2.2256775 4.971222 -4.971222 4.971222l-313.08118 0c-2.745533 0 -4.9712257 -2.2256927 -4.9712257 -4.971222z" fill-rule="evenodd"/><path fill="#000000" d="m171.60434 238.27425l4.234375 0l0 1.625l-6.21875 0l0 -10.59375l1.984375 0l0 8.96875zm7.827194 1.625l-1.984375 0l0 -10.59375l1.984375 0l0 10.59375zm3.414505 -10.59375q0.125 0 0.203125 0.015625q0.09375 0 0.15625 0.03125q0.078125 0.03125 0.140625 0.09375q0.078125 0.0625 0.15625 0.171875l5.5625 7.09375q-0.03125 -0.265625 -0.046875 -0.5q-0.015625 -0.25 -0.015625 -0.46875l0 -6.4375l1.75 0l0 10.59375l-1.03125 0q-0.234375 0 -0.390625 -0.0625q-0.140625 -0.078125 -0.296875 -0.28125l-5.53125 -7.046875q0.015625 0.234375 0.03125 0.46875q0.015625 0.21875 0.015625 0.421875l0 6.5l-1.75 0l0 -10.59375l1.046875 0l0 0zm14.298737 9.0q0.578125 0 1.03125 -0.1875q0.453125 -0.1875 0.765625 -0.53125q0.3125 -0.34375 0.46875 -0.828125q0.171875 -0.5 0.171875 -1.109375l0 -6.34375l1.96875 0l0 6.34375q0 0.9375 -0.3125 1.75q-0.296875 0.796875 -0.875 1.390625q-0.5625 0.578125 -1.375 0.90625q-0.8125 0.328125 -1.84375 0.328125q-1.015625 0 -1.828125 -0.328125q-0.8125 -0.328125 -1.390625 -0.90625q-0.5625 -0.59375 -0.859375 -1.390625q-0.296875 -0.8125 -0.296875 -1.75l0 -6.34375l1.96875 0l0 6.34375q0 0.59375 0.15625 1.09375q0.171875 0.484375 0.46875 0.84375q0.3125 0.34375 0.765625 0.53125q0.453125 0.1875 1.015625 0.1875zm8.950867 -3.859375l-3.375 -5.140625l1.96875 0q0.203125 0 0.296875 0.0625q0.09375 0.046875 0.15625 0.171875l2.421875 3.890625q0.03125 -0.09375 0.078125 -0.1875q0.046875 -0.09375 0.09375 -0.1875l2.203125 -3.484375q0.171875 -0.265625 0.421875 -0.265625l1.890625 0l-3.40625 5.0625l3.5 5.53125l-1.96875 0q-0.203125 0 -0.328125 -0.09375q-0.109375 -0.109375 -0.1875 -0.25l-2.453125 -4.046875q-0.03125 0.078125 -0.078125 0.15625q-0.03125 0.078125 -0.0625 0.140625l-2.359375 3.75q-0.078125 0.125 -0.203125 0.234375q-0.109375 0.109375 -0.28125 0.109375l-1.84375 0l3.515625 -5.453125zm12.28009 -0.703125l0.453125 0q0.28125 0 0.46875 -0.078125q0.1875 -0.078125 0.3125 -0.25l2.921875 -3.6875q0.1875 -0.234375 0.390625 -0.328125q0.203125 -0.09375 0.5 -0.09375l1.703125 0l-3.5625 4.40625q-0.171875 0.203125 -0.328125 0.34375q-0.15625 0.140625 -0.328125 0.21875q0.25 0.09375 0.4375 0.265625q0.1875 0.15625 0.375 0.390625l3.6875 4.96875l-1.75 0q-0.359375 0 -0.53125 -0.09375q-0.171875 -0.109375 -0.28125 -0.296875l-3.0 -3.90625q-0.140625 -0.1875 -0.328125 -0.265625q-0.1875 -0.09375 -0.515625 -0.09375l-0.625 0l0 4.65625l-1.96875 0l0 -10.609375l1.96875 0l0 4.453125zm14.870575 -4.4375l0 1.5625l-4.6875 0l0 2.9375l3.6875 0l0 1.515625l-3.6875 0l0 3.0l4.6875 0l0 1.578125l-6.6875 0l0 -10.59375l6.6875 0zm3.7499695 6.453125l0 4.140625l-1.96875 0l0 -10.59375l3.234375 0q1.078125 0 1.84375 0.21875q0.78125 0.21875 1.265625 0.625q0.5 0.40625 0.734375 0.96875q0.234375 0.5625 0.234375 1.234375q0 0.53125 -0.15625 1.015625q-0.15625 0.46875 -0.453125 0.859375q-0.296875 0.390625 -0.734375 0.6875q-0.4375 0.28125 -1.0 0.46875q0.375 0.203125 0.640625 0.609375l2.65625 3.90625l-1.765625 0q-0.265625 0 -0.453125 -0.09375q-0.171875 -0.109375 -0.296875 -0.296875l-2.21875 -3.390625q-0.125 -0.203125 -0.28125 -0.28125q-0.140625 -0.078125 -0.4375 -0.078125l-0.84375 0zm0 -1.40625l1.234375 0q0.546875 0 0.953125 -0.140625q0.421875 -0.140625 0.6875 -0.390625q0.28125 -0.25 0.40625 -0.578125q0.125 -0.34375 0.125 -0.75q0 -0.796875 -0.53125 -1.234375q-0.53125 -0.4375 -1.609375 -0.4375l-1.265625 0l0 3.53125zm8.599731 -5.046875q0.125 0 0.203125 0.015625q0.09375 0 0.15625 0.03125q0.078125 0.03125 0.140625 0.09375q0.078125 0.0625 0.15625 0.171875l5.5625 7.09375q-0.03125 -0.265625 -0.046875 -0.5q-0.015625 -0.25 -0.015625 -0.46875l0 -6.4375l1.75 0l0 10.59375l-1.03125 0q-0.234375 0 -0.390625 -0.0625q-0.140625 -0.078125 -0.296875 -0.28125l-5.53125 -7.046875q0.015625 0.234375 0.03125 0.46875q0.015625 0.21875 0.015625 0.421875l0 6.5l-1.75 0l0 -10.59375l1.046875 0l0 0zm16.720612 0l0 1.5625l-4.6875 0l0 2.9375l3.6875 0l0 1.515625l-3.6875 0l0 3.0l4.6875 0l0 1.578125l-6.6875 0l0 -10.59375l6.6875 0zm3.6874695 8.96875l4.234375 0l0 1.625l-6.21875 0l0 -10.59375l1.984375 0l0 8.96875z" fill-rule="nonzero"/><path fill="#2caac1" fill-opacity="0.7765" d="m58.034122 183.83737l0 0c0 -2.7455292 2.2256927 -4.971237 4.9712257 -4.971237l313.08118 0c1.3184509 0 2.5828857 0.52375793 3.5151978 1.4560394c0.9322815 0.93229675 1.4560242 2.1967468 1.4560242 3.5151978l0 19.884308c0 2.7455444 -2.2256775 4.971237 -4.971222 4.971237l-313.08118 0c-2.745533 0 -4.9712257 -2.2256927 -4.9712257 -4.971237z" fill-rule="evenodd"/><path fill="#ffffff" d="m205.76758 188.26578l0 1.609375l-3.1875 0l0 8.984375l-1.96875 0l0 -8.984375l-3.203125 0l0 -1.609375l8.359375 0zm9.5017395 10.59375l-1.53125 0q-0.25 0 -0.421875 -0.125q-0.171875 -0.125 -0.234375 -0.328125l-0.796875 -2.15625l-4.390625 0l-0.78125 2.15625q-0.0625 0.171875 -0.234375 0.3125q-0.171875 0.140625 -0.421875 0.140625l-1.53125 0l4.15625 -10.59375l2.015625 0l4.171875 10.59375zm-6.859375 -4.0l3.375 0l-1.296875 -3.53125q-0.078125 -0.234375 -0.1875 -0.546875q-0.109375 -0.3125 -0.21875 -0.6875q-0.09375 0.375 -0.203125 0.703125q-0.09375 0.3125 -0.1875 0.546875l-1.28125 3.515625zm9.9214325 2.375l4.234375 0l0 1.625l-6.21875 0l0 -10.59375l1.984375 0l0 8.96875zm15.178024 -3.671875q0 1.15625 -0.390625 2.15625q-0.390625 1.0 -1.09375 1.71875q-0.703125 0.71875 -1.6875 1.140625q-0.984375 0.40625 -2.1875 0.40625q-1.203125 0 -2.203125 -0.40625q-0.984375 -0.421875 -1.703125 -1.140625q-0.703125 -0.71875 -1.09375 -1.71875q-0.390625 -1.0 -0.390625 -2.15625q0 -1.171875 0.390625 -2.15625q0.390625 -1.0 1.09375 -1.71875q0.71875 -0.734375 1.703125 -1.140625q1.0 -0.40625 2.203125 -0.40625q1.203125 0 2.1875 0.421875q0.984375 0.40625 1.6875 1.125q0.703125 0.71875 1.09375 1.71875q0.390625 0.984375 0.390625 2.15625zm-2.015625 0q0 -0.875 -0.234375 -1.5625q-0.234375 -0.703125 -0.671875 -1.171875q-0.421875 -0.484375 -1.046875 -0.734375q-0.625 -0.265625 -1.390625 -0.265625q-0.78125 0 -1.40625 0.265625q-0.625 0.25 -1.0625 0.734375q-0.4375 0.46875 -0.671875 1.171875q-0.234375 0.6875 -0.234375 1.5625q0 0.875 0.234375 1.5625q0.234375 0.6875 0.671875 1.171875q0.4375 0.484375 1.0625 0.75q0.625 0.25 1.40625 0.25q0.765625 0 1.390625 -0.25q0.625 -0.265625 1.046875 -0.75q0.4375 -0.484375 0.671875 -1.171875q0.234375 -0.6875 0.234375 -1.5625zm9.248779 -3.375q-0.078125 0.15625 -0.1875 0.234375q-0.109375 0.0625 -0.25 0.0625q-0.15625 0 -0.34375 -0.109375q-0.171875 -0.125 -0.421875 -0.25q-0.25 -0.140625 -0.59375 -0.25q-0.328125 -0.125 -0.78125 -0.125q-0.40625 0 -0.71875 0.109375q-0.296875 0.09375 -0.515625 0.265625q-0.203125 0.171875 -0.3125 0.421875q-0.09375 0.25 -0.09375 0.53125q0 0.375 0.203125 0.625q0.21875 0.25 0.5625 0.4375q0.34375 0.171875 0.78125 0.3125q0.4375 0.140625 0.890625 0.296875q0.46875 0.15625 0.90625 0.359375q0.4375 0.203125 0.78125 0.53125q0.34375 0.3125 0.546875 0.78125q0.21875 0.453125 0.21875 1.125q0 0.71875 -0.25 1.34375q-0.234375 0.625 -0.71875 1.09375q-0.46875 0.453125 -1.15625 0.734375q-0.671875 0.265625 -1.546875 0.265625q-0.515625 0 -1.015625 -0.109375q-0.484375 -0.09375 -0.9375 -0.28125q-0.4375 -0.1875 -0.828125 -0.4375q-0.390625 -0.25 -0.703125 -0.578125l0.5625 -0.9375q0.09375 -0.109375 0.203125 -0.171875q0.109375 -0.078125 0.25 -0.078125q0.1875 0 0.390625 0.15625q0.21875 0.15625 0.5 0.34375q0.296875 0.171875 0.6875 0.328125q0.390625 0.140625 0.9375 0.140625q0.84375 0 1.296875 -0.390625q0.46875 -0.40625 0.46875 -1.15625q0 -0.40625 -0.203125 -0.671875q-0.203125 -0.265625 -0.546875 -0.4375q-0.34375 -0.1875 -0.796875 -0.3125q-0.4375 -0.125 -0.890625 -0.265625q-0.453125 -0.15625 -0.890625 -0.359375q-0.4375 -0.203125 -0.78125 -0.53125q-0.34375 -0.328125 -0.5625 -0.828125q-0.203125 -0.5 -0.203125 -1.21875q0 -0.578125 0.234375 -1.125q0.234375 -0.546875 0.671875 -0.96875q0.4375 -0.4375 1.078125 -0.6875q0.65625 -0.265625 1.484375 -0.265625q0.9375 0 1.71875 0.296875q0.796875 0.296875 1.359375 0.828125l-0.484375 0.921875z" fill-rule="nonzero"/><path fill="#e66b89" fill-opacity="0.8431" d="m56.569553 107.49631l0 0c0 -6.7203217 5.447899 -12.1682205 12.168224 -12.1682205l300.16748 0c3.2272034 0 6.322235 1.2820053 8.604218 3.5639877c2.2819824 2.2819824 3.5639954 5.377022 3.5639954 8.604233l0 48.671432c0 6.7203217 -5.4479065 12.168213 -12.168213 12.168213l-300.16748 0c-6.7203255 0 -12.168224 -5.447891 -12.168224 -12.168213z" fill-rule="evenodd"/><path fill="#ffffff" d="m114.41043 130.75577l0.453125 0q0.28125 0 0.46875 -0.078125q0.1875 -0.078125 0.3125 -0.25l2.921875 -3.6874924q0.1875 -0.234375 0.390625 -0.328125q0.203125 -0.09375 0.5 -0.09375l1.703125 0l-3.5625 4.4062424q-0.171875 0.203125 -0.328125 0.34375q-0.15625 0.140625 -0.328125 0.21875q0.25 0.09375 0.4375 0.265625q0.1875 0.15625 0.375 0.390625l3.6875 4.96875l-1.75 0q-0.359375 0 -0.53125 -0.09375q-0.171875 -0.109375 -0.28125 -0.296875l-3.0 -3.90625q-0.140625 -0.1875 -0.328125 -0.265625q-0.1875 -0.09375 -0.515625 -0.09375l-0.625 0l0 4.65625l-1.96875 0l0 -10.609367l1.96875 0l0 4.4531174zm12.448685 4.5625q0.578125 0 1.03125 -0.1875q0.453125 -0.1875 0.765625 -0.53125q0.3125 -0.34375 0.46875 -0.828125q0.171875 -0.5 0.171875 -1.109375l0 -6.3437424l1.96875 0l0 6.3437424q0 0.9375 -0.3125 1.75q-0.296875 0.796875 -0.875 1.390625q-0.5625 0.578125 -1.375 0.90625q-0.8125 0.328125 -1.84375 0.328125q-1.015625 0 -1.828125 -0.328125q-0.8125 -0.328125 -1.390625 -0.90625q-0.5625 -0.59375 -0.859375 -1.390625q-0.296875 -0.8125 -0.296875 -1.75l0 -6.3437424l1.96875 0l0 6.3437424q0 0.59375 0.15625 1.09375q0.171875 0.484375 0.46875 0.84375q0.3125 0.34375 0.765625 0.53125q0.453125 0.1875 1.015625 0.1875zm6.4039917 1.59375l0 -10.593742l3.671875 0q1.03125 0 1.765625 0.203125q0.734375 0.1875 1.203125 0.5625q0.484375 0.359375 0.703125 0.890625q0.21875 0.5156174 0.21875 1.1562424q0 0.375 -0.109375 0.71875q-0.109375 0.34375 -0.34375 0.640625q-0.234375 0.296875 -0.59375 0.546875q-0.34375 0.234375 -0.84375 0.40625q2.1875 0.484375 2.1875 2.359375q0 0.671875 -0.265625 1.25q-0.25 0.5625 -0.734375 0.984375q-0.484375 0.40625 -1.203125 0.640625q-0.71875 0.234375 -1.640625 0.234375l-4.015625 0zm1.984375 -4.640625l0 3.109375l2.0 0q0.546875 0 0.90625 -0.125q0.375 -0.140625 0.59375 -0.359375q0.234375 -0.234375 0.328125 -0.515625q0.09375 -0.296875 0.09375 -0.625q0 -0.34375 -0.109375 -0.609375q-0.109375 -0.28125 -0.34375 -0.46875q-0.234375 -0.203125 -0.609375 -0.296875q-0.359375 -0.109375 -0.875 -0.109375l-1.984375 0zm0 -1.375l1.5625 0q1.015625 0 1.53125 -0.359375q0.515625 -0.359375 0.515625 -1.171875q0 -0.828125 -0.46875 -1.171875q-0.46875 -0.35936737 -1.453125 -0.35936737l-1.6875 0l0 3.0624924zm14.251556 -4.5781174l0 1.5625l-4.6875 0l0 2.9374924l3.6875 0l0 1.515625l-3.6875 0l0 3.0l4.6875 0l0 1.578125l-6.6875 0l0 -10.593742l6.6875 0zm3.7499695 6.4531174l0 4.140625l-1.96875 0l0 -10.593742l3.234375 0q1.078125 0 1.84375 0.21875q0.78125 0.21875 1.265625 0.625q0.5 0.40625 0.734375 0.9687424q0.234375 0.5625 0.234375 1.234375q0 0.53125 -0.15625 1.015625q-0.15625 0.46875 -0.453125 0.859375q-0.296875 0.390625 -0.734375 0.6875q-0.4375 0.28125 -1.0 0.46875q0.375 0.203125 0.640625 0.609375l2.65625 3.90625l-1.765625 0q-0.265625 0 -0.453125 -0.09375q-0.171875 -0.109375 -0.296875 -0.296875l-2.21875 -3.390625q-0.125 -0.203125 -0.28125 -0.28125q-0.140625 -0.078125 -0.4375 -0.078125l-0.84375 0zm0 -1.40625l1.234375 0q0.546875 0 0.953125 -0.140625q0.421875 -0.140625 0.6875 -0.390625q0.28125 -0.25 0.40625 -0.578125q0.125 -0.34375 0.125 -0.75q0 -0.796875 -0.53125 -1.234375q-0.53125 -0.43749237 -1.609375 -0.43749237l-1.265625 0l0 3.5312424zm8.599731 -5.0468674q0.125 0 0.203125 0.015625q0.09375 0 0.15625 0.03125q0.078125 0.03125 0.140625 0.09375q0.078125 0.0625 0.15625 0.171875l5.5625 7.0937424q-0.03125 -0.265625 -0.046875 -0.5q-0.015625 -0.25 -0.015625 -0.46875l0 -6.4374924l1.75 0l0 10.593742l-1.03125 0q-0.234375 0 -0.390625 -0.0625q-0.140625 -0.078125 -0.296875 -0.28125l-5.53125 -7.046875q0.015625 0.234375 0.03125 0.46875q0.015625 0.21875 0.015625 0.421875l0 6.5l-1.75 0l0 -10.593742l1.046875 0l0 0zm16.720612 0l0 1.5625l-4.6875 0l0 2.9374924l3.6875 0l0 1.515625l-3.6875 0l0 3.0l4.6875 0l0 1.578125l-6.6875 0l0 -10.593742l6.6875 0zm9.1718445 0l0 1.609375l-3.1875 0l0 8.984367l-1.96875 0l0 -8.984367l-3.203125 0l0 -1.609375l8.359375 0zm7.9391174 0l0 1.5625l-4.6875 0l0 2.9374924l3.6875 0l0 1.515625l-3.6875 0l0 3.0l4.6875 0l0 1.578125l-6.6875 0l0 -10.593742l6.6875 0zm7.3905945 1.9218674q-0.078125 0.15625 -0.1875 0.234375q-0.109375 0.0625 -0.25 0.0625q-0.15625 0 -0.34375 -0.109375q-0.171875 -0.125 -0.421875 -0.25q-0.25 -0.140625 -0.59375 -0.24999237q-0.328125 -0.125 -0.78125 -0.125q-0.40625 0 -0.71875 0.109375q-0.296875 0.09374237 -0.515625 0.26561737q-0.203125 0.171875 -0.3125 0.421875q-0.09375 0.25 -0.09375 0.53125q0 0.375 0.203125 0.625q0.21875 0.25 0.5625 0.4375q0.34375 0.171875 0.78125 0.3125q0.4375 0.140625 0.890625 0.296875q0.46875 0.15625 0.90625 0.359375q0.4375 0.203125 0.78125 0.53125q0.34375 0.3125 0.546875 0.78125q0.21875 0.453125 0.21875 1.125q0 0.71875 -0.25 1.34375q-0.234375 0.625 -0.71875 1.09375q-0.46875 0.453125 -1.15625 0.734375q-0.671875 0.265625 -1.546875 0.265625q-0.515625 0 -1.015625 -0.109375q-0.484375 -0.09375 -0.9375 -0.28125q-0.4375 -0.1875 -0.828125 -0.4375q-0.390625 -0.25 -0.703125 -0.578125l0.5625 -0.9375q0.09375 -0.109375 0.203125 -0.171875q0.109375 -0.078125 0.25 -0.078125q0.1875 0 0.390625 0.15625q0.21875 0.15625 0.5 0.34375q0.296875 0.171875 0.6875 0.328125q0.390625 0.140625 0.9375 0.140625q0.84375 0 1.296875 -0.390625q0.46875 -0.40625 0.46875 -1.15625q0 -0.40625 -0.203125 -0.671875q-0.203125 -0.265625 -0.546875 -0.4375q-0.34375 -0.1875 -0.796875 -0.3125q-0.4375 -0.125 -0.890625 -0.265625q-0.453125 -0.15625 -0.890625 -0.359375q-0.4375 -0.203125 -0.78125 -0.53125q-0.34375 -0.328125 -0.5625 -0.828125q-0.203125 -0.5 -0.203125 -1.21875q0 -0.578125 0.234375 -1.125q0.234375 -0.5468674 0.671875 -0.9687424q0.4375 -0.4375 1.078125 -0.6875q0.65625 -0.265625 1.484375 -0.265625q0.9375 0 1.71875 0.296875q0.796875 0.296875 1.359375 0.828125l-0.484375 0.9218674zm12.300964 6.171875q0.15625 0 0.265625 0.125l0.78125 0.84375q-0.640625 0.796875 -1.59375 1.234375q-0.9375 0.421875 -2.25 0.421875q-1.1875 0 -2.125 -0.40625q-0.9375 -0.40625 -1.609375 -1.125q-0.65625 -0.71875 -1.015625 -1.71875q-0.359375 -1.0 -0.359375 -2.171875q0 -1.203125 0.390625 -2.1875q0.40625 -1.0 1.125 -1.7187424q0.71875 -0.71875 1.71875 -1.109375q1.0 -0.40625 2.203125 -0.40625q1.1875 0 2.0625 0.390625q0.890625 0.375 1.515625 1.0l-0.65625 0.9062424q-0.0625 0.09375 -0.15625 0.15625q-0.09375 0.0625 -0.25 0.0625q-0.171875 0 -0.34375 -0.125q-0.171875 -0.140625 -0.453125 -0.28125q-0.265625 -0.15625 -0.6875 -0.28125q-0.40625 -0.14061737 -1.046875 -0.14061737q-0.75 0 -1.375 0.26561737q-0.625 0.25 -1.078125 0.734375q-0.453125 0.484375 -0.703125 1.1875q-0.25 0.6875 -0.25 1.546875q0 0.890625 0.25 1.59375q0.25 0.6875 0.6875 1.171875q0.4375 0.46875 1.015625 0.734375q0.59375 0.25 1.265625 0.25q0.40625 0 0.71875 -0.046875q0.328125 -0.046875 0.609375 -0.140625q0.28125 -0.09375 0.515625 -0.234375q0.25 -0.15625 0.5 -0.390625q0.0625 -0.0625 0.140625 -0.09375q0.09375 -0.046875 0.1875 -0.046875zm12.701904 -2.796875q0 1.15625 -0.390625 2.15625q-0.390625 1.0 -1.09375 1.71875q-0.703125 0.71875 -1.6875 1.140625q-0.984375 0.40625 -2.1875 0.40625q-1.203125 0 -2.203125 -0.40625q-0.984375 -0.421875 -1.703125 -1.140625q-0.703125 -0.71875 -1.09375 -1.71875q-0.390625 -1.0 -0.390625 -2.15625q0 -1.171875 0.390625 -2.15625q0.390625 -1.0 1.09375 -1.7187424q0.71875 -0.734375 1.703125 -1.140625q1.0 -0.40625 2.203125 -0.40625q1.203125 0 2.1875 0.421875q0.984375 0.40625 1.6875 1.125q0.703125 0.7187424 1.09375 1.7187424q0.390625 0.984375 0.390625 2.15625zm-2.015625 0q0 -0.875 -0.234375 -1.5625q-0.234375 -0.703125 -0.671875 -1.171875q-0.421875 -0.484375 -1.046875 -0.734375q-0.625 -0.26561737 -1.390625 -0.26561737q-0.78125 0 -1.40625 0.26561737q-0.625 0.25 -1.0625 0.734375q-0.4375 0.46875 -0.671875 1.171875q-0.234375 0.6875 -0.234375 1.5625q0 0.875 0.234375 1.5625q0.234375 0.6875 0.671875 1.171875q0.4375 0.484375 1.0625 0.75q0.625 0.25 1.40625 0.25q0.765625 0 1.390625 -0.25q0.625 -0.265625 1.046875 -0.75q0.4375 -0.484375 0.671875 -1.171875q0.234375 -0.6875 0.234375 -1.5625zm4.6081543 -5.2968674q0.125 0 0.203125 0.015625q0.09375 0 0.15625 0.03125q0.078125 0.03125 0.140625 0.09375q0.078125 0.0625 0.15625 0.171875l5.5625 7.0937424q-0.03125 -0.265625 -0.046875 -0.5q-0.015625 -0.25 -0.015625 -0.46875l0 -6.4374924l1.75 0l0 10.593742l-1.03125 0q-0.234375 0 -0.390625 -0.0625q-0.140625 -0.078125 -0.296875 -0.28125l-5.53125 -7.046875q0.015625 0.234375 0.03125 0.46875q0.015625 0.21875 0.015625 0.421875l0 6.5l-1.75 0l0 -10.593742l1.046875 0l0 0zm17.501862 0l0 1.609375l-3.1875 0l0 8.984367l-1.96875 0l0 -8.984367l-3.203125 0l0 -1.609375l8.359375 0zm3.2984924 6.4531174l0 4.140625l-1.96875 0l0 -10.593742l3.234375 0q1.078125 0 1.84375 0.21875q0.78125 0.21875 1.265625 0.625q0.50001526 0.40625 0.73439026 0.9687424q0.234375 0.5625 0.234375 1.234375q0 0.53125 -0.15625 1.015625q-0.15625 0.46875 -0.453125 0.859375q-0.29689026 0.390625 -0.73439026 0.6875q-0.4375 0.28125 -1.0 0.46875q0.375 0.203125 0.640625 0.609375l2.6562653 3.90625l-1.7656403 0q-0.265625 0 -0.453125 -0.09375q-0.171875 -0.109375 -0.296875 -0.296875l-2.21875 -3.390625q-0.125 -0.203125 -0.28125 -0.28125q-0.140625 -0.078125 -0.4375 -0.078125l-0.84375 0zm0 -1.40625l1.234375 0q0.546875 0 0.953125 -0.140625q0.421875 -0.140625 0.6875 -0.390625q0.28125 -0.25 0.40625 -0.578125q0.125 -0.34375 0.125 -0.75q0 -0.796875 -0.53125 -1.234375q-0.53125 -0.43749237 -1.609375 -0.43749237l-1.265625 0l0 3.5312424zm17.372726 0.25q0 1.15625 -0.390625 2.15625q-0.390625 1.0 -1.09375 1.71875q-0.703125 0.71875 -1.6875 1.140625q-0.984375 0.40625 -2.1875 0.40625q-1.203125 0 -2.203125 -0.40625q-0.984375 -0.421875 -1.703125 -1.140625q-0.703125 -0.71875 -1.09375 -1.71875q-0.390625 -1.0 -0.390625 -2.15625q0 -1.171875 0.390625 -2.15625q0.390625 -1.0 1.09375 -1.7187424q0.71875 -0.734375 1.703125 -1.140625q1.0 -0.40625 2.203125 -0.40625q1.203125 0 2.1875 0.421875q0.984375 0.40625 1.6875 1.125q0.703125 0.7187424 1.09375 1.7187424q0.390625 0.984375 0.390625 2.15625zm-2.015625 0q0 -0.875 -0.234375 -1.5625q-0.234375 -0.703125 -0.671875 -1.171875q-0.421875 -0.484375 -1.046875 -0.734375q-0.625 -0.26561737 -1.390625 -0.26561737q-0.78125 0 -1.40625 0.26561737q-0.625 0.25 -1.0625 0.734375q-0.4375 0.46875 -0.671875 1.171875q-0.234375 0.6875 -0.234375 1.5625q0 0.875 0.234375 1.5625q0.234375 0.6875 0.671875 1.171875q0.4375 0.484375 1.0625 0.75q0.625 0.25 1.40625 0.25q0.765625 0 1.390625 -0.25q0.625 -0.265625 1.046875 -0.75q0.4375 -0.484375 0.671875 -1.171875q0.234375 -0.6875 0.234375 -1.5625zm5.5456543 3.671875l4.234375 0l0 1.625l-6.21875 0l0 -10.593742l1.984375 0l0 8.968742zm10.468323 -2.109375l0 3.734375l-1.96875 0l0 -10.593742l3.453125 0q1.0625 0 1.828125 0.25q0.78125 0.25 1.28125 0.703125q0.515625 0.4375 0.75 1.0624924q0.25 0.625 0.25 1.359375q0 0.765625 -0.265625 1.40625q-0.25 0.640625 -0.765625 1.109375q-0.515625 0.453125 -1.28125 0.71875q-0.765625 0.25 -1.796875 0.25l-1.484375 0zm0 -1.53125l1.484375 0q0.53125 0 0.9375 -0.140625q0.40625 -0.140625 0.671875 -0.390625q0.265625 -0.25 0.390625 -0.609375q0.140625 -0.359375 0.140625 -0.8125q0 -0.421875 -0.140625 -0.765625q-0.125 -0.34375 -0.390625 -0.578125q-0.265625 -0.25 -0.671875 -0.37499237q-0.40625 -0.140625 -0.9375 -0.140625l-1.484375 0l0 3.8124924zm9.097565 3.640625l4.234375 0l0 1.625l-6.21875 0l0 -10.593742l1.984375 0l0 8.968742zm14.920929 1.625l-1.53125 0q-0.25 0 -0.421875 -0.125q-0.171875 -0.125 -0.234375 -0.328125l-0.796875 -2.15625l-4.390625 0l-0.78125 2.15625q-0.0625 0.171875 -0.234375 0.3125q-0.171875 0.140625 -0.421875 0.140625l-1.53125 0l4.15625 -10.593742l2.015625 0l4.171875 10.593742zm-6.859375 -4.0l3.375 0l-1.296875 -3.53125q-0.078125 -0.234375 -0.1875 -0.546875q-0.109375 -0.3125 -0.21875 -0.6875q-0.09375 0.375 -0.203125 0.703125q-0.09375 0.3125 -0.1875 0.546875l-1.28125 3.515625zm8.983948 -6.5937424q0.125 0 0.203125 0.015625q0.09375 0 0.15625 0.03125q0.078125 0.03125 0.140625 0.09375q0.078125 0.0625 0.15625 0.171875l5.5625 7.0937424q-0.03125 -0.265625 -0.046875 -0.5q-0.015625 -0.25 -0.015625 -0.46875l0 -6.4374924l1.75 0l0 10.593742l-1.03125 0q-0.234375 0 -0.390625 -0.0625q-0.140625 -0.078125 -0.296875 -0.28125l-5.53125 -7.046875q0.015625 0.234375 0.03125 0.46875q0.015625 0.21875 0.015625 0.421875l0 6.5l-1.75 0l0 -10.593742l1.046875 0l0 0zm16.720612 0l0 1.5625l-4.6875 0l0 2.9374924l3.6875 0l0 1.515625l-3.6875 0l0 3.0l4.6875 0l0 1.578125l-6.6875 0l0 -10.593742l6.6875 0z" fill-rule="nonzero"/><path fill="#efefef" d="m72.56956 278.74802l357.95276 0l0 238.99216l-357.95276 0z" fill-rule="evenodd"/><path stroke="#ffffff" stroke-width="2.0" stroke-linejoin="round" stroke-linecap="butt" d="m72.56956 278.74802l357.95276 0l0 238.99216l-357.95276 0z" fill-rule="evenodd"/><path fill="#efefef" d="m56.569553 296.82385l357.95276 0l0 238.99213l-357.95276 0z" fill-rule="evenodd"/><path stroke="#ffffff" stroke-width="2.0" stroke-linejoin="round" stroke-linecap="butt" d="m56.569553 296.82385l357.95276 0l0 238.99213l-357.95276 0z" fill-rule="evenodd"/><path fill="#eeeeee" d="m40.569553 314.8997l357.95276 0l0 238.9921l-357.95276 0z" fill-rule="evenodd"/><path stroke="#ffffff" stroke-width="2.0" stroke-linejoin="round" stroke-linecap="butt" d="m40.569553 314.8997l357.95276 0l0 238.9921l-357.95276 0z" fill-rule="evenodd"/><path fill="#000000" fill-opacity="0.0" d="m44.572178 313.8294l212.91339 0l0 29.826752l-212.91339 0z" fill-rule="evenodd"/><path fill="#000000" d="m53.665928 326.31564l1.65625 0q0.25 0 0.421875 0.125q0.171875 0.109375 0.234375 0.3125l1.796875 6.34375q0.0625 0.234375 0.109375 0.515625q0.0625 0.265625 0.125 0.578125q0.046875 -0.3125 0.109375 -0.578125q0.078125 -0.28125 0.171875 -0.515625l2.078125 -6.34375q0.0625 -0.15625 0.234375 -0.296875q0.171875 -0.140625 0.40625 -0.140625l0.59375 0q0.25 0 0.421875 0.125q0.171875 0.109375 0.234375 0.3125l2.0625038 6.34375q0.15625 0.46875 0.28125 1.046875q0.046875 -0.296875 0.09375 -0.546875q0.0625 -0.265625 0.125 -0.5l1.796875 -6.34375q0.0625 -0.171875 0.234375 -0.296875q0.171875 -0.140625 0.421875 -0.140625l1.546875 0l-3.296875 10.59375l-1.7812538 0l-2.3125 -7.234375q-0.046875 -0.140625 -0.09375 -0.296875q-0.046875 -0.171875 -0.078125 -0.359375q-0.046875 0.1875 -0.09375 0.359375q-0.046875 0.15625 -0.09375 0.296875l-2.34375 7.234375l-1.78125 0l-3.28125 -10.59375zm26.478199 5.296875q0 1.15625 -0.390625 2.15625q-0.390625 1.0 -1.09375 1.71875q-0.703125 0.71875 -1.6875 1.140625q-0.984375 0.40625 -2.1875 0.40625q-1.203125 0 -2.203125 -0.40625q-0.984375 -0.421875 -1.703125 -1.140625q-0.703125 -0.71875 -1.09375 -1.71875q-0.390625 -1.0 -0.390625 -2.15625q0 -1.171875 0.390625 -2.15625q0.390625 -1.0 1.09375 -1.71875q0.71875 -0.734375 1.703125 -1.140625q1.0 -0.40625 2.203125 -0.40625q1.203125 0 2.1875 0.421875q0.984375 0.40625 1.6875 1.125q0.703125 0.71875 1.09375 1.71875q0.390625 0.984375 0.390625 2.15625zm-2.015625 0q0 -0.875 -0.234375 -1.5625q-0.234375 -0.703125 -0.671875 -1.171875q-0.421875 -0.484375 -1.046875 -0.734375q-0.625 -0.265625 -1.390625 -0.265625q-0.78125 0 -1.40625 0.265625q-0.625 0.25 -1.0625 0.734375q-0.4375 0.46875 -0.671875 1.171875q-0.234375 0.6875 -0.234375 1.5625q0 0.875 0.234375 1.5625q0.234375 0.6875 0.671875 1.171875q0.4375 0.484375 1.0625 0.75q0.625 0.25 1.40625 0.25q0.765625 0 1.390625 -0.25q0.625 -0.265625 1.046875 -0.75q0.4375 -0.484375 0.671875 -1.171875q0.234375 -0.6875 0.234375 -1.5625zm5.6081543 1.15625l0 4.140625l-1.96875 0l0 -10.59375l3.234375 0q1.078125 0 1.84375 0.21875q0.78125 0.21875 1.265625 0.625q0.5 0.40625 0.734375 0.96875q0.234375 0.5625 0.234375 1.234375q0 0.53125 -0.15625 1.015625q-0.15625 0.46875 -0.453125 0.859375q-0.296875 0.390625 -0.734375 0.6875q-0.4375 0.28125 -1.0 0.46875q0.375 0.203125 0.640625 0.609375l2.65625 3.90625l-1.765625 0q-0.265625 0 -0.453125 -0.09375q-0.171875 -0.109375 -0.296875 -0.296875l-2.21875 -3.390625q-0.125 -0.203125 -0.28125 -0.28125q-0.140625 -0.078125 -0.4375 -0.078125l-0.84375 0zm0 -1.40625l1.234375 0q0.546875 0 0.953125 -0.140625q0.421875 -0.140625 0.6875 -0.390625q0.28125 -0.25 0.40625 -0.578125q0.125 -0.34375 0.125 -0.75q0 -0.796875 -0.53125 -1.234375q-0.53125 -0.4375 -1.609375 -0.4375l-1.265625 0l0 3.53125zm9.599731 -0.609375l0.453125 0q0.28125 0 0.46875 -0.078125q0.1875 -0.078125 0.3125 -0.25l2.921875 -3.6875q0.1875 -0.234375 0.390625 -0.328125q0.203125 -0.09375 0.5 -0.09375l1.703125 0l-3.5625 4.40625q-0.171875 0.203125 -0.328125 0.34375q-0.15625 0.140625 -0.328125 0.21875q0.25 0.09375 0.4375 0.265625q0.1875 0.15625 0.375 0.390625l3.6875 4.96875l-1.75 0q-0.359375 0 -0.53125 -0.09375q-0.171875 -0.109375 -0.28125 -0.296875l-3.0 -3.90625q-0.140625 -0.1875 -0.328125 -0.265625q-0.1875 -0.09375 -0.515625 -0.09375l-0.625 0l0 4.65625l-1.96875 0l0 -10.609375l1.96875 0l0 4.453125zm14.87056 -4.4375l0 1.5625l-4.6875 0l0 2.9375l3.6875 0l0 1.515625l-3.6875 0l0 3.0l4.6875 0l0 1.578125l-6.6875 0l0 -10.59375l6.6875 0zm3.7499695 6.453125l0 4.140625l-1.96875 0l0 -10.59375l3.234375 0q1.078125 0 1.84375 0.21875q0.78125 0.21875 1.265625 0.625q0.5 0.40625 0.734375 0.96875q0.234375 0.5625 0.234375 1.234375q0 0.53125 -0.15625 1.015625q-0.15625 0.46875 -0.453125 0.859375q-0.296875 0.390625 -0.734375 0.6875q-0.4375 0.28125 -1.0 0.46875q0.375 0.203125 0.640625 0.609375l2.65625 3.90625l-1.765625 0q-0.265625 0 -0.453125 -0.09375q-0.171875 -0.109375 -0.296875 -0.296875l-2.21875 -3.390625q-0.125 -0.203125 -0.28125 -0.28125q-0.140625 -0.078125 -0.4375 -0.078125l-0.84375 0zm0 -1.40625l1.234375 0q0.546875 0 0.953125 -0.140625q0.421875 -0.140625 0.6875 -0.390625q0.28125 -0.25 0.40625 -0.578125q0.125 -0.34375 0.125 -0.75q0 -0.796875 -0.53125 -1.234375q-0.53125 -0.4375 -1.609375 -0.4375l-1.265625 0l0 3.53125zm11.42836 -5.046875q0.125 0 0.203125 0.015625q0.09375 0 0.15625 0.03125q0.078125 0.03125 0.140625 0.09375q0.078125 0.0625 0.15625 0.171875l5.5624924 7.09375q-0.03125 -0.265625 -0.046875 -0.5q-0.015625 -0.25 -0.015625 -0.46875l0 -6.4375l1.75 0l0 10.59375l-1.03125 0q-0.234375 0 -0.390625 -0.0625q-0.140625 -0.078125 -0.296875 -0.28125l-5.5312424 -7.046875q0.015625 0.234375 0.03125 0.46875q0.015625 0.21875 0.015625 0.421875l0 6.5l-1.75 0l0 -10.59375l1.046875 0l0 0zm20.204979 5.296875q0 1.15625 -0.390625 2.15625q-0.390625 1.0 -1.09375 1.71875q-0.703125 0.71875 -1.6875 1.140625q-0.984375 0.40625 -2.1875 0.40625q-1.203125 0 -2.203125 -0.40625q-0.984375 -0.421875 -1.703125 -1.140625q-0.703125 -0.71875 -1.09375 -1.71875q-0.390625 -1.0 -0.390625 -2.15625q0 -1.171875 0.390625 -2.15625q0.390625 -1.0 1.09375 -1.71875q0.71875 -0.734375 1.703125 -1.140625q1.0 -0.40625 2.203125 -0.40625q1.203125 0 2.1875 0.421875q0.984375 0.40625 1.6875 1.125q0.703125 0.71875 1.09375 1.71875q0.390625 0.984375 0.390625 2.15625zm-2.015625 0q0 -0.875 -0.234375 -1.5625q-0.234375 -0.703125 -0.671875 -1.171875q-0.421875 -0.484375 -1.046875 -0.734375q-0.625 -0.265625 -1.390625 -0.265625q-0.78125 0 -1.40625 0.265625q-0.625 0.25 -1.0625 0.734375q-0.4375 0.46875 -0.671875 1.171875q-0.234375 0.6875 -0.234375 1.5625q0 0.875 0.234375 1.5625q0.234375 0.6875 0.671875 1.171875q0.4375 0.484375 1.0625 0.75q0.625 0.25 1.40625 0.25q0.765625 0 1.390625 -0.25q0.625 -0.265625 1.046875 -0.75q0.4375 -0.484375 0.671875 -1.171875q0.234375 -0.6875 0.234375 -1.5625zm12.983154 0q0 1.15625 -0.390625 2.140625q-0.390625 0.96875 -1.09375 1.671875q-0.703125 0.703125 -1.703125 1.09375q-0.984375 0.390625 -2.1875 0.390625l-4.046875 0l0 -10.59375l4.046875 0q1.203125 0 2.1875 0.390625q1.0 0.390625 1.703125 1.09375q0.703125 0.703125 1.09375 1.671875q0.390625 0.96875 0.390625 2.140625zm-2.015625 0q0 -0.875 -0.234375 -1.5625q-0.234375 -0.703125 -0.671875 -1.171875q-0.4375 -0.484375 -1.0625 -0.734375q-0.609375 -0.265625 -1.390625 -0.265625l-2.046875 0l0 7.46875l2.046875 0q0.78125 0 1.390625 -0.25q0.625 -0.265625 1.0625 -0.75q0.4375 -0.484375 0.671875 -1.171875q0.234375 -0.6875 0.234375 -1.5625zm10.236664 -5.296875l0 1.5625l-4.6875 0l0 2.9375l3.6875 0l0 1.515625l-3.6875 0l0 3.0l4.6875 0l0 1.578125l-6.6875 0l0 -10.59375l6.6875 0z" fill-rule="nonzero"/><path fill="#ffffff" d="m59.16798 515.3807l0 0c0 -2.7455444 2.2256927 -4.971222 4.9712257 -4.971222l310.81348 0c1.3184509 0 2.5828857 0.5237427 3.5151672 1.4560242c0.932312 0.932312 1.4560547 2.1967163 1.4560547 3.5151978l0 19.884338c0 2.7454834 -2.225708 4.9711914 -4.971222 4.9711914l-310.81348 0l0 0c-2.745533 0 -4.9712257 -2.225708 -4.9712257 -4.9711914z" fill-rule="evenodd"/><path fill="#000000" d="m171.60434 528.77783l4.234375 0l0 1.625l-6.21875 0l0 -10.59375l1.984375 0l0 8.96875zm7.827194 1.625l-1.984375 0l0 -10.59375l1.984375 0l0 10.59375zm3.414505 -10.59375q0.125 0 0.203125 0.015625q0.09375 0 0.15625 0.03125q0.078125 0.03125 0.140625 0.09375q0.078125 0.0625 0.15625 0.171875l5.5625153 7.09375q-0.03125 -0.265625 -0.046875 -0.5q-0.015625 -0.25 -0.015625 -0.46875l0 -6.4375l1.75 0l0 10.59375l-1.03125 0q-0.234375 0 -0.390625 -0.0625q-0.140625 -0.078125 -0.296875 -0.28125l-5.5312653 -7.046875q0.015625 0.234375 0.03125 0.46875q0.015625 0.21875 0.015625 0.421875l0 6.5l-1.75 0l0 -10.59375l1.046875 0l0 0zm14.298752 9.0q0.578125 0 1.03125 -0.1875q0.453125 -0.1875 0.765625 -0.53125q0.3125 -0.34375 0.46875 -0.828125q0.171875 -0.5 0.171875 -1.109375l0 -6.34375l1.96875 0l0 6.34375q0 0.9375 -0.3125 1.75q-0.296875 0.796875 -0.875 1.390625q-0.5625 0.578125 -1.375 0.90625q-0.8125 0.328125 -1.84375 0.328125q-1.015625 0 -1.828125 -0.328125q-0.8125 -0.328125 -1.390625 -0.90625q-0.5625 -0.59375 -0.859375 -1.390625q-0.296875 -0.8125 -0.296875 -1.75l0 -6.34375l1.96875 0l0 6.34375q0 0.59375 0.15625 1.09375q0.171875 0.484375 0.46875 0.84375q0.3125 0.34375 0.765625 0.53125q0.453125 0.1875 1.015625 0.1875zm8.950867 -3.859375l-3.375 -5.140625l1.96875 0q0.203125 0 0.296875 0.0625q0.09375 0.046875 0.15625 0.171875l2.421875 3.890625q0.03125 -0.09375 0.078125 -0.1875q0.046875 -0.09375 0.09375 -0.1875l2.203125 -3.484375q0.171875 -0.265625 0.421875 -0.265625l1.890625 0l-3.40625 5.0625l3.5 5.53125l-1.96875 0q-0.203125 0 -0.328125 -0.09375q-0.109375 -0.109375 -0.1875 -0.25l-2.453125 -4.046875q-0.03125 0.078125 -0.078125 0.15625q-0.03125 0.078125 -0.0625 0.140625l-2.359375 3.75q-0.078125 0.125 -0.203125 0.234375q-0.109375 0.109375 -0.28125 0.109375l-1.84375 0l3.515625 -5.453125zm12.28009 -0.703125l0.453125 0q0.28125 0 0.46875 -0.078125q0.1875 -0.078125 0.3125 -0.25l2.921875 -3.6875q0.1875 -0.234375 0.390625 -0.328125q0.203125 -0.09375 0.5 -0.09375l1.703125 0l-3.5625 4.40625q-0.171875 0.203125 -0.328125 0.34375q-0.15625 0.140625 -0.328125 0.21875q0.25 0.09375 0.4375 0.265625q0.1875 0.15625 0.375 0.390625l3.6875 4.96875l-1.75 0q-0.359375 0 -0.53125 -0.09375q-0.171875 -0.109375 -0.28125 -0.296875l-3.0 -3.90625q-0.140625 -0.1875 -0.328125 -0.265625q-0.1875 -0.09375 -0.515625 -0.09375l-0.625 0l0 4.65625l-1.96875 0l0 -10.609375l1.96875 0l0 4.453125zm14.870575 -4.4375l0 1.5625l-4.6875 0l0 2.9375l3.6875 0l0 1.515625l-3.6875 0l0 3.0l4.6875 0l0 1.578125l-6.6875 0l0 -10.59375l6.6875 0zm3.7499695 6.453125l0 4.140625l-1.96875 0l0 -10.59375l3.234375 0q1.078125 0 1.84375 0.21875q0.78125 0.21875 1.265625 0.625q0.5 0.40625 0.734375 0.96875q0.234375 0.5625 0.234375 1.234375q0 0.53125 -0.15625 1.015625q-0.15625 0.46875 -0.453125 0.859375q-0.296875 0.390625 -0.734375 0.6875q-0.4375 0.28125 -1.0 0.46875q0.375 0.203125 0.640625 0.609375l2.65625 3.90625l-1.765625 0q-0.265625 0 -0.453125 -0.09375q-0.171875 -0.109375 -0.296875 -0.296875l-2.21875 -3.390625q-0.125 -0.203125 -0.28125 -0.28125q-0.140625 -0.078125 -0.4375 -0.078125l-0.84375 0zm0 -1.40625l1.234375 0q0.546875 0 0.953125 -0.140625q0.421875 -0.140625 0.6875 -0.390625q0.28125 -0.25 0.40625 -0.578125q0.125 -0.34375 0.125 -0.75q0 -0.796875 -0.53125 -1.234375q-0.53125 -0.4375 -1.609375 -0.4375l-1.265625 0l0 3.53125zm8.599731 -5.046875q0.125 0 0.203125 0.015625q0.09375 0 0.15625 0.03125q0.078125 0.03125 0.140625 0.09375q0.078125 0.0625 0.15625 0.171875l5.5625 7.09375q-0.03125 -0.265625 -0.046875 -0.5q-0.015625 -0.25 -0.015625 -0.46875l0 -6.4375l1.75 0l0 10.59375l-1.03125 0q-0.234375 0 -0.390625 -0.0625q-0.140625 -0.078125 -0.296875 -0.28125l-5.53125 -7.046875q0.015625 0.234375 0.03125 0.46875q0.015625 0.21875 0.015625 0.421875l0 6.5l-1.75 0l0 -10.59375l1.046875 0l0 0zm16.720596 0l0 1.5625l-4.6875 0l0 2.9375l3.6875 0l0 1.515625l-3.6875 0l0 3.0l4.6875 0l0 1.578125l-6.6874847 0l0 -10.59375l6.6874847 0zm3.6874695 8.96875l4.234375 0l0 1.625l-6.21875 0l0 -10.59375l1.984375 0l0 8.96875z" fill-rule="nonzero"/><path fill="#2caac1" fill-opacity="0.7765" d="m59.166668 475.0237l0 0c0 -2.745514 2.2256927 -4.971222 4.9712257 -4.971222l310.81348 0c1.3184509 0 2.5828857 0.5237427 3.5151672 1.4560547c0.932312 0.9322815 1.4560547 2.1967163 1.4560547 3.5151672l0 19.884338c0 2.745514 -2.225708 4.971222 -4.971222 4.971222l-310.81348 0l0 0c-2.745533 0 -4.9712257 -2.225708 -4.9712257 -4.971222z" fill-rule="evenodd"/><path fill="#ffffff" d="m205.76628 479.45212l0 1.609375l-3.1875 0l0 8.984375l-1.96875 0l0 -8.984375l-3.203125 0l0 -1.609375l8.359375 0zm9.5017395 10.59375l-1.53125 0q-0.25 0 -0.421875 -0.125q-0.171875 -0.125 -0.234375 -0.328125l-0.796875 -2.15625l-4.390625 0l-0.78125 2.15625q-0.0625 0.171875 -0.234375 0.3125q-0.171875 0.140625 -0.421875 0.140625l-1.53125 0l4.15625 -10.59375l2.015625 0l4.171875 10.59375zm-6.859375 -4.0l3.375 0l-1.296875 -3.53125q-0.078125 -0.234375 -0.1875 -0.546875q-0.109375 -0.3125 -0.21875 -0.6875q-0.09375 0.375 -0.203125 0.703125q-0.09375 0.3125 -0.1875 0.546875l-1.28125 3.515625zm9.9214325 2.375l4.234375 0l0 1.625l-6.21875 0l0 -10.59375l1.984375 0l0 8.96875zm15.178024 -3.671875q0 1.15625 -0.390625 2.15625q-0.390625 1.0 -1.09375 1.71875q-0.703125 0.71875 -1.6875 1.140625q-0.984375 0.40625 -2.1875 0.40625q-1.203125 0 -2.203125 -0.40625q-0.984375 -0.421875 -1.703125 -1.140625q-0.703125 -0.71875 -1.09375 -1.71875q-0.390625 -1.0 -0.390625 -2.15625q0 -1.171875 0.390625 -2.15625q0.390625 -1.0 1.09375 -1.71875q0.71875 -0.734375 1.703125 -1.140625q1.0 -0.40625 2.203125 -0.40625q1.203125 0 2.1875 0.421875q0.984375 0.40625 1.6875 1.125q0.703125 0.71875 1.09375 1.71875q0.390625 0.984375 0.390625 2.15625zm-2.015625 0q0 -0.875 -0.234375 -1.5625q-0.234375 -0.703125 -0.671875 -1.171875q-0.421875 -0.484375 -1.046875 -0.734375q-0.625 -0.265625 -1.390625 -0.265625q-0.78125 0 -1.40625 0.265625q-0.625 0.25 -1.0625 0.734375q-0.4375 0.46875 -0.671875 1.171875q-0.234375 0.6875 -0.234375 1.5625q0 0.875 0.234375 1.5625q0.234375 0.6875 0.671875 1.171875q0.4375 0.484375 1.0625 0.75q0.625 0.25 1.40625 0.25q0.765625 0 1.390625 -0.25q0.625 -0.265625 1.046875 -0.75q0.4375 -0.484375 0.671875 -1.171875q0.234375 -0.6875 0.234375 -1.5625zm9.248779 -3.375q-0.078125 0.15625 -0.1875 0.234375q-0.109375 0.0625 -0.25 0.0625q-0.15625 0 -0.34375 -0.109375q-0.171875 -0.125 -0.421875 -0.25q-0.25 -0.140625 -0.59375 -0.25q-0.328125 -0.125 -0.78125 -0.125q-0.40625 0 -0.71875 0.109375q-0.296875 0.09375 -0.515625 0.265625q-0.203125 0.171875 -0.3125 0.421875q-0.09375 0.25 -0.09375 0.53125q0 0.375 0.203125 0.625q0.21875 0.25 0.5625 0.4375q0.34375 0.171875 0.78125 0.3125q0.4375 0.140625 0.890625 0.296875q0.46875 0.15625 0.90625 0.359375q0.4375 0.203125 0.78125 0.53125q0.34375 0.3125 0.546875 0.78125q0.21875 0.453125 0.21875 1.125q0 0.71875 -0.25 1.34375q-0.234375 0.625 -0.71875 1.09375q-0.46875 0.453125 -1.15625 0.734375q-0.671875 0.265625 -1.546875 0.265625q-0.515625 0 -1.015625 -0.109375q-0.484375 -0.09375 -0.9375 -0.28125q-0.4375 -0.1875 -0.828125 -0.4375q-0.390625 -0.25 -0.703125 -0.578125l0.5625 -0.9375q0.09375 -0.109375 0.203125 -0.171875q0.109375 -0.078125 0.25 -0.078125q0.1875 0 0.390625 0.15625q0.21875 0.15625 0.5 0.34375q0.296875 0.171875 0.6875 0.328125q0.390625 0.140625 0.9375 0.140625q0.84375 0 1.296875 -0.390625q0.46875 -0.40625 0.46875 -1.15625q0 -0.40625 -0.203125 -0.671875q-0.203125 -0.265625 -0.546875 -0.4375q-0.34375 -0.1875 -0.796875 -0.3125q-0.4375 -0.125 -0.890625 -0.265625q-0.453125 -0.15625 -0.890625 -0.359375q-0.4375 -0.203125 -0.78125 -0.53125q-0.34375 -0.328125 -0.5625 -0.828125q-0.203125 -0.5 -0.203125 -1.21875q0 -0.578125 0.234375 -1.125q0.234375 -0.546875 0.671875 -0.96875q0.4375 -0.4375 1.078125 -0.6875q0.65625 -0.265625 1.484375 -0.265625q0.9375 0 1.71875 0.296875q0.796875 0.296875 1.359375 0.828125l-0.484375 0.921875z" fill-rule="nonzero"/><path fill="#eeeeee" d="m58.683838 353.606l40.125984 0l0 40.126007l-40.125984 0z" fill-rule="evenodd"/><path stroke="#595959" stroke-width="2.0" stroke-linejoin="round" stroke-linecap="butt" stroke-dasharray="2.0,6.0" d="m58.683838 353.606l40.125984 0l0 40.126007l-40.125984 0z" fill-rule="evenodd"/><path fill="#eeeeee" d="m114.68384 353.606l40.12599 0l0 40.126007l-40.12599 0z" fill-rule="evenodd"/><path stroke="#595959" stroke-width="2.0" stroke-linejoin="round" stroke-linecap="butt" stroke-dasharray="2.0,6.0" d="m114.68384 353.606l40.12599 0l0 40.126007l-40.12599 0z" fill-rule="evenodd"/><path fill="#eeeeee" d="m170.68384 353.606l40.12599 0l0 40.126007l-40.12599 0z" fill-rule="evenodd"/><path stroke="#595959" stroke-width="2.0" stroke-linejoin="round" stroke-linecap="butt" stroke-dasharray="2.0,6.0" d="m170.68384 353.606l40.12599 0l0 40.126007l-40.12599 0z" fill-rule="evenodd"/><path fill="#eeeeee" d="m226.68384 353.606l40.125977 0l0 40.126007l-40.125977 0z" fill-rule="evenodd"/><path stroke="#595959" stroke-width="2.0" stroke-linejoin="round" stroke-linecap="butt" stroke-dasharray="2.0,6.0" d="m226.68384 353.606l40.125977 0l0 40.126007l-40.125977 0z" fill-rule="evenodd"/><path fill="#eeeeee" d="m282.68384 353.606l40.125977 0l0 40.126007l-40.125977 0z" fill-rule="evenodd"/><path stroke="#595959" stroke-width="2.0" stroke-linejoin="round" stroke-linecap="butt" stroke-dasharray="2.0,6.0" d="m282.68384 353.606l40.125977 0l0 40.126007l-40.125977 0z" fill-rule="evenodd"/><path fill="#eeeeee" d="m338.68384 353.606l40.125977 0l0 40.126007l-40.125977 0z" fill-rule="evenodd"/><path stroke="#595959" stroke-width="2.0" stroke-linejoin="round" stroke-linecap="butt" stroke-dasharray="2.0,6.0" d="m338.68384 353.606l40.125977 0l0 40.126007l-40.125977 0z" fill-rule="evenodd"/><path fill="#000000" fill-opacity="0.0" d="m55.770454 396.91483l323.02362 0l0 29.826752l-323.02362 0z" fill-rule="evenodd"/><path fill="#666666" d="m147.49973 416.3482l-1.25 0q-0.203125 0 -0.34375 -0.09375q-0.125 -0.109375 -0.1875 -0.265625l-0.65625 -1.78125l-3.59375 0l-0.640625 1.78125q-0.046875 0.125 -0.1875 0.25q-0.140625 0.109375 -0.34375 0.109375l-1.265625 0l3.40625 -8.671875l1.65625 0l3.40625 8.671875zm-5.609375 -3.28125l2.765625 0l-1.0625 -2.875q-0.0625 -0.203125 -0.15625 -0.453125q-0.09375 -0.265625 -0.171875 -0.578125q-0.078125 0.3125 -0.171875 0.578125q-0.078125 0.265625 -0.15625 0.453125l-1.046875 2.875zm8.176315 0.234375l0 3.046875l-1.609375 0l0 -8.671875l2.8125 0q0.875 0 1.5 0.203125q0.640625 0.203125 1.046875 0.578125q0.421875 0.359375 0.625 0.875q0.203125 0.5 0.203125 1.109375q0 0.625 -0.21875 1.15625q-0.203125 0.515625 -0.625 0.90625q-0.421875 0.375 -1.046875 0.59375q-0.625 0.203125 -1.484375 0.203125l-1.203125 0zm0 -1.265625l1.203125 0q0.453125 0 0.78125 -0.109375q0.328125 -0.109375 0.546875 -0.3125q0.21875 -0.21875 0.328125 -0.515625q0.109375 -0.296875 0.109375 -0.65625q0 -0.359375 -0.109375 -0.640625q-0.109375 -0.28125 -0.328125 -0.46875q-0.21875 -0.203125 -0.546875 -0.296875q-0.328125 -0.109375 -0.78125 -0.109375l-1.203125 0l0 3.109375zm7.500046 1.265625l0 3.046875l-1.609375 0l0 -8.671875l2.8125 0q0.875 0 1.5 0.203125q0.640625 0.203125 1.046875 0.578125q0.421875 0.359375 0.625 0.875q0.203125 0.5 0.203125 1.109375q0 0.625 -0.21875 1.15625q-0.203125 0.515625 -0.625 0.90625q-0.421875 0.375 -1.046875 0.59375q-0.625 0.203125 -1.484375 0.203125l-1.203125 0zm0 -1.265625l1.203125 0q0.453125 0 0.78125 -0.109375q0.328125 -0.109375 0.546875 -0.3125q0.21875 -0.21875 0.328125 -0.515625q0.109375 -0.296875 0.109375 -0.65625q0 -0.359375 -0.109375 -0.640625q-0.109375 -0.28125 -0.328125 -0.46875q-0.21875 -0.203125 -0.546875 -0.296875q-0.328125 -0.109375 -0.78125 -0.109375l-1.203125 0l0 3.109375zm7.437546 2.984375l3.484375 0l0 1.328125l-5.09375 0l0 -8.671875l1.609375 0l0 7.34375zm6.4071655 1.328125l-1.609375 0l0 -8.671875l1.609375 0l0 8.671875zm7.9242706 -2.046875q0.125 0 0.21875 0.109375l0.640625 0.6875q-0.53125 0.65625 -1.296875 1.0q-0.765625 0.34375 -1.859375 0.34375q-0.953125 0 -1.734375 -0.328125q-0.765625 -0.328125 -1.3125 -0.90625q-0.546875 -0.59375 -0.84375 -1.40625q-0.28125 -0.828125 -0.28125 -1.796875q0 -0.96875 0.3125 -1.78125q0.328125 -0.8125 0.921875 -1.40625q0.59375 -0.59375 1.40625 -0.90625q0.8125 -0.328125 1.8125 -0.328125q0.96875 0 1.6875 0.3125q0.71875 0.296875 1.234375 0.8125l-0.53125 0.75q-0.0625 0.0625 -0.140625 0.125q-0.0625 0.046875 -0.203125 0.046875q-0.125 0 -0.28125 -0.109375q-0.140625 -0.109375 -0.359375 -0.234375q-0.21875 -0.125 -0.5625 -0.21875q-0.34375 -0.109375 -0.859375 -0.109375q-0.609375 0 -1.125 0.21875q-0.515625 0.203125 -0.890625 0.59375q-0.359375 0.390625 -0.578125 0.96875q-0.203125 0.5625 -0.203125 1.265625q0 0.734375 0.203125 1.3125q0.21875 0.5625 0.5625 0.953125q0.359375 0.390625 0.84375 0.609375q0.484375 0.203125 1.03125 0.203125q0.328125 0 0.59375 -0.03125q0.265625 -0.046875 0.484375 -0.125q0.234375 -0.078125 0.4375 -0.203125q0.203125 -0.125 0.390625 -0.296875q0.0625 -0.0625 0.125 -0.09375q0.078125 -0.03125 0.15625 -0.03125zm9.702301 2.046875l-1.25 0q-0.203125 0 -0.34375 -0.09375q-0.125 -0.109375 -0.1875 -0.265625l-0.65625 -1.78125l-3.59375 0l-0.640625 1.78125q-0.046875 0.125 -0.1875 0.25q-0.140625 0.109375 -0.34375 0.109375l-1.265625 0l3.40625 -8.671875l1.65625 0l3.40625 8.671875zm-5.609375 -3.28125l2.765625 0l-1.0625 -2.875q-0.0625 -0.203125 -0.15625 -0.453125q-0.09375 -0.265625 -0.171875 -0.578125q-0.078125 0.3125 -0.171875 0.578125q-0.078125 0.265625 -0.15625 0.453125l-1.046875 2.875zm11.731812 -5.390625l0 1.328125l-2.609375 0l0 7.34375l-1.609375 0l0 -7.34375l-2.625 0l0 -1.328125l6.84375 0zm2.8431702 8.671875l-1.609375 0l0 -8.671875l1.609375 0l0 8.671875zm10.28363 -4.34375q0 0.953125 -0.328125 1.765625q-0.3125 0.8125 -0.890625 1.421875q-0.578125 0.59375 -1.390625 0.921875q-0.796875 0.328125 -1.78125 0.328125q-0.984375 0 -1.796875 -0.328125q-0.8125 -0.328125 -1.40625 -0.921875q-0.578125 -0.609375 -0.890625 -1.421875q-0.3125 -0.8125 -0.3125 -1.765625q0 -0.953125 0.3125 -1.765625q0.3125 -0.8125 0.890625 -1.40625q0.59375 -0.59375 1.40625 -0.921875q0.8125 -0.328125 1.796875 -0.328125q0.984375 0 1.78125 0.34375q0.8125 0.328125 1.390625 0.921875q0.578125 0.578125 0.890625 1.390625q0.328125 0.8125 0.328125 1.765625zm-1.65625 0q0 -0.703125 -0.203125 -1.265625q-0.1875 -0.578125 -0.546875 -0.96875q-0.34375 -0.40625 -0.859375 -0.609375q-0.5 -0.203125 -1.125 -0.203125q-0.640625 0 -1.15625 0.203125q-0.5 0.203125 -0.859375 0.609375q-0.359375 0.390625 -0.5625 0.96875q-0.1875 0.5625 -0.1875 1.265625q0 0.71875 0.1875 1.296875q0.203125 0.5625 0.5625 0.953125q0.359375 0.390625 0.859375 0.609375q0.515625 0.203125 1.15625 0.203125q0.625 0 1.125 -0.203125q0.515625 -0.21875 0.859375 -0.609375q0.359375 -0.390625 0.546875 -0.953125q0.203125 -0.578125 0.203125 -1.296875zm3.7659607 -4.328125q0.109375 0 0.171875 0.015625q0.078125 0 0.140625 0.03125q0.0625 0.015625 0.109375 0.078125q0.0625 0.046875 0.125 0.125l4.546875 5.8125q-0.015625 -0.21875 -0.03125 -0.421875q0 -0.203125 0 -0.375l0 -5.265625l1.421875 0l0 8.671875l-0.84375 0q-0.1875 0 -0.3125 -0.0625q-0.125 -0.0625 -0.25 -0.21875l-4.53125 -5.765625q0.015625 0.1875 0.015625 0.375q0.015625 0.1875 0.015625 0.34375l0 5.328125l-1.421875 0l0 -8.671875l0.84375 0l0 0zm16.513062 6.625q0.125 0 0.21875 0.109375l0.640625 0.6875q-0.53125 0.65625 -1.296875 1.0q-0.765625 0.34375 -1.859375 0.34375q-0.953125 0 -1.734375 -0.328125q-0.765625 -0.328125 -1.3125 -0.90625q-0.546875 -0.59375 -0.84375 -1.40625q-0.28125 -0.828125 -0.28125 -1.796875q0 -0.96875 0.3125 -1.78125q0.328125 -0.8125 0.921875 -1.40625q0.59375 -0.59375 1.40625 -0.90625q0.8125 -0.328125 1.8125 -0.328125q0.96875 0 1.6875 0.3125q0.71875 0.296875 1.234375 0.8125l-0.53125 0.75q-0.0625 0.0625 -0.140625 0.125q-0.0625 0.046875 -0.203125 0.046875q-0.125 0 -0.28125 -0.109375q-0.140625 -0.109375 -0.359375 -0.234375q-0.21875 -0.125 -0.5625 -0.21875q-0.34375 -0.109375 -0.859375 -0.109375q-0.609375 0 -1.125 0.21875q-0.515625 0.203125 -0.890625 0.59375q-0.359375 0.390625 -0.578125 0.96875q-0.203125 0.5625 -0.203125 1.265625q0 0.734375 0.203125 1.3125q0.21875 0.5625 0.5625 0.953125q0.359375 0.390625 0.84375 0.609375q0.484375 0.203125 1.03125 0.203125q0.328125 0 0.59375 -0.03125q0.265625 -0.046875 0.484375 -0.125q0.234375 -0.078125 0.4375 -0.203125q0.203125 -0.125 0.390625 -0.296875q0.0625 -0.0625 0.125 -0.09375q0.078125 -0.03125 0.15625 -0.03125zm10.405426 -2.296875q0 0.953125 -0.328125 1.765625q-0.3125 0.8125 -0.890625 1.421875q-0.578125 0.59375 -1.390625 0.921875q-0.796875 0.328125 -1.78125 0.328125q-0.984375 0 -1.796875 -0.328125q-0.8125 -0.328125 -1.40625 -0.921875q-0.578125 -0.609375 -0.890625 -1.421875q-0.3125 -0.8125 -0.3125 -1.765625q0 -0.953125 0.3125 -1.765625q0.3125 -0.8125 0.890625 -1.40625q0.59375 -0.59375 1.40625 -0.921875q0.8125 -0.328125 1.796875 -0.328125q0.984375 0 1.78125 0.34375q0.8125 0.328125 1.390625 0.921875q0.578125 0.578125 0.890625 1.390625q0.328125 0.8125 0.328125 1.765625zm-1.65625 0q0 -0.703125 -0.203125 -1.265625q-0.1875 -0.578125 -0.546875 -0.96875q-0.34375 -0.40625 -0.859375 -0.609375q-0.5 -0.203125 -1.125 -0.203125q-0.640625 0 -1.15625 0.203125q-0.5 0.203125 -0.859375 0.609375q-0.359375 0.390625 -0.5625 0.96875q-0.1875 0.5625 -0.1875 1.265625q0 0.71875 0.1875 1.296875q0.203125 0.5625 0.5625 0.953125q0.359375 0.390625 0.859375 0.609375q0.515625 0.203125 1.15625 0.203125q0.625 0 1.125 -0.203125q0.515625 -0.21875 0.859375 -0.609375q0.359375 -0.390625 0.546875 -0.953125q0.203125 -0.578125 0.203125 -1.296875zm3.7659607 -4.328125q0.109375 0 0.171875 0.015625q0.078125 0 0.140625 0.03125q0.0625 0.015625 0.109375 0.078125q0.0625 0.046875 0.125 0.125l4.546875 5.8125q-0.015625 -0.21875 -0.03125 -0.421875q0 -0.203125 0 -0.375l0 -5.265625l1.421875 0l0 8.671875l-0.84375 0q-0.1875 0 -0.3125 -0.0625q-0.125 -0.0625 -0.25 -0.21875l-4.53125 -5.765625q0.015625 0.1875 0.015625 0.375q0.015625 0.1875 0.015625 0.34375l0 5.328125l-1.421875 0l0 -8.671875l0.84375 0l0 0zm14.337677 0l0 1.328125l-2.609375 0l0 7.34375l-1.609375 0l0 -7.34375l-2.625 0l0 -1.328125l6.84375 0zm7.7736816 8.671875l-1.25 0q-0.203125 0 -0.34375 -0.09375q-0.125 -0.109375 -0.1875 -0.265625l-0.65625 -1.78125l-3.59375 0l-0.640625 1.78125q-0.046875 0.125 -0.1875 0.25q-0.140625 0.109375 -0.34375 0.109375l-1.265625 0l3.40625 -8.671875l1.65625 0l3.40625 8.671875zm-5.609375 -3.28125l2.765625 0l-1.0625 -2.875q-0.0625 -0.203125 -0.15625 -0.453125q-0.09375 -0.265625 -0.171875 -0.578125q-0.078125 0.3125 -0.171875 0.578125q-0.078125 0.265625 -0.15625 0.453125l-1.046875 2.875zm8.316925 3.28125l-1.609375 0l0 -8.671875l1.609375 0l0 8.671875zm2.799286 -8.671875q0.109375 0 0.171875 0.015625q0.078125 0 0.140625 0.03125q0.0625 0.015625 0.109375 0.078125q0.0625 0.046875 0.125 0.125l4.546875 5.8125q-0.015625 -0.21875 -0.03125 -0.421875q0 -0.203125 0 -0.375l0 -5.265625l1.421875 0l0 8.671875l-0.84375 0q-0.1875 0 -0.3125 -0.0625q-0.125 -0.0625 -0.25 -0.21875l-4.53125 -5.765625q0.015625 0.1875 0.015625 0.375q0.015625 0.1875 0.015625 0.34375l0 5.328125l-1.421875 0l0 -8.671875l0.84375 0l0 0zm13.697052 0l0 1.28125l-3.84375 0l0 2.40625l3.03125 0l0 1.234375l-3.03125 0l0 2.453125l3.84375 0l0 1.296875l-5.46875 0l0 -8.671875l5.46875 0zm3.0731812 5.28125l0 3.390625l-1.609375 0l0 -8.671875l2.640625 0q0.890625 0 1.515625 0.1875q0.640625 0.171875 1.046875 0.5q0.40625 0.328125 0.59375 0.796875q0.1875 0.453125 0.1875 1.0q0 0.453125 -0.140625 0.84375q-0.125 0.375 -0.375 0.703125q-0.234375 0.3125 -0.59375 0.5625q-0.359375 0.234375 -0.8125 0.375q0.3125 0.171875 0.53125 0.5l2.171875 3.203125l-1.453125 0q-0.203125 0 -0.359375 -0.078125q-0.140625 -0.09375 -0.25 -0.25l-1.8125 -2.78125q-0.109375 -0.15625 -0.234375 -0.21875q-0.125 -0.0625 -0.359375 -0.0625l-0.6875 0zm0 -1.15625l1.0 0q0.46875 0 0.796875 -0.109375q0.34375 -0.125 0.5625 -0.3125q0.21875 -0.203125 0.328125 -0.484375q0.109375 -0.28125 0.109375 -0.609375q0 -0.65625 -0.4375 -1.0q-0.4375 -0.359375 -1.328125 -0.359375l-1.03125 0l0 2.875zm10.844421 -2.546875q-0.078125 0.125 -0.171875 0.1875q-0.078125 0.046875 -0.1875 0.046875q-0.125 0 -0.28125 -0.09375q-0.140625 -0.09375 -0.34375 -0.203125q-0.203125 -0.109375 -0.484375 -0.203125q-0.265625 -0.09375 -0.640625 -0.09375q-0.34375 0 -0.59375 0.078125q-0.234375 0.078125 -0.40625 0.21875q-0.171875 0.140625 -0.265625 0.34375q-0.078125 0.203125 -0.078125 0.453125q0 0.296875 0.171875 0.5q0.171875 0.203125 0.453125 0.359375q0.28125 0.140625 0.640625 0.25q0.359375 0.109375 0.734375 0.25q0.375 0.125 0.734375 0.296875q0.359375 0.171875 0.640625 0.4375q0.28125 0.25 0.453125 0.625q0.171875 0.375 0.171875 0.921875q0 0.59375 -0.203125 1.109375q-0.203125 0.5 -0.59375 0.890625q-0.375 0.375 -0.9375 0.59375q-0.5625 0.21875 -1.28125 0.21875q-0.40625 0 -0.8125 -0.078125q-0.40625 -0.078125 -0.78125 -0.21875q-0.359375 -0.15625 -0.6875 -0.359375q-0.3125 -0.21875 -0.5625 -0.484375l0.46875 -0.765625q0.0625 -0.09375 0.15625 -0.140625q0.09375 -0.0625 0.203125 -0.0625q0.15625 0 0.328125 0.125q0.171875 0.125 0.40625 0.28125q0.234375 0.140625 0.546875 0.265625q0.328125 0.125 0.78125 0.125q0.6875 0 1.0625 -0.328125q0.390625 -0.328125 0.390625 -0.9375q0 -0.34375 -0.171875 -0.5625q-0.171875 -0.21875 -0.453125 -0.359375q-0.28125 -0.15625 -0.640625 -0.25q-0.359375 -0.109375 -0.734375 -0.21875q-0.375 -0.125 -0.734375 -0.296875q-0.359375 -0.171875 -0.640625 -0.4375q-0.28125 -0.265625 -0.453125 -0.671875q-0.171875 -0.40625 -0.171875 -1.0q0 -0.46875 0.1875 -0.921875q0.1875 -0.453125 0.546875 -0.796875q0.375 -0.359375 0.890625 -0.5625q0.53125 -0.203125 1.21875 -0.203125q0.765625 0 1.40625 0.234375q0.65625 0.234375 1.109375 0.671875l-0.390625 0.765625z" fill-rule="nonzero"/><path fill="#000000" fill-opacity="0.0" d="m58.034122 193.77953l-34.37795 0l0 291.1811l35.511806 0" fill-rule="evenodd"/><path stroke="#999999" stroke-width="2.0" stroke-linejoin="round" stroke-linecap="butt" d="m58.034122 193.77953l-34.37795 0l0 291.1811l35.511806 0" fill-rule="evenodd"/><path fill="#000000" fill-opacity="0.0" d="m-6.5292835 357.766l0 -87.24411l53.95276 0l0 87.24411z" fill-rule="evenodd"/><path fill="#666666" d="m7.725092 345.84412q0 -0.390625 0.078125 -0.734375q0.078125 -0.359375 0.234375 -0.640625l0 -1.78125l0.5625 0q0.140625 0 0.21875 0.078125q0.078125 0.078125 0.109375 0.25l0.09375 0.546875q0.15625 -0.0625 0.328125 -0.09375q0.171875 -0.03125 0.375 -0.03125q0.453125 0 0.828125 0.1875q0.359375 0.171875 0.625 0.5q0.25 0.328125 0.390625 0.765625q0.140625 0.4375 0.140625 0.953125q0 0.34375 -0.0625 0.671875q0.171875 0.296875 0.390625 0.296875q0.1875 0 0.28125 -0.171875q0.078125 -0.171875 0.109375 -0.453125q0.03125 -0.28125 0.046875 -0.625q0.015625 -0.359375 0.046875 -0.734375q0.015625 -0.375 0.09375 -0.71875q0.078125 -0.359375 0.25 -0.640625q0.15625 -0.28125 0.4375 -0.453125q0.28125 -0.171875 0.71875 -0.171875q0.40625 0 0.78125 0.203125q0.390625 0.203125 0.6875 0.59375q0.296875 0.375 0.484375 0.9375q0.1875 0.546875 0.1875 1.25q0 0.703125 -0.140625 1.21875q-0.140625 0.515625 -0.359375 0.859375q-0.21875 0.328125 -0.515625 0.5q-0.296875 0.171875 -0.609375 0.171875q-0.4375 0 -0.734375 -0.265625q-0.296875 -0.265625 -0.46875 -0.734375q-0.125 0.234375 -0.328125 0.375q-0.21875 0.125 -0.546875 0.125q-0.140625 0 -0.28125 -0.046875q-0.15625 -0.046875 -0.296875 -0.140625q-0.140625 -0.109375 -0.265625 -0.25q-0.140625 -0.15625 -0.234375 -0.359375q-0.265625 0.46875 -0.671875 0.734375q-0.421875 0.265625 -0.984375 0.265625q-0.46875 0 -0.828125 -0.171875q-0.375 -0.1875 -0.625 -0.515625q-0.265625 -0.328125 -0.40625 -0.765625q-0.140625 -0.453125 -0.140625 -0.984375zm6.546875 -1.625q-0.1875 0 -0.296875 0.109375q-0.109375 0.109375 -0.171875 0.296875q-0.078125 0.1875 -0.09375 0.4375q-0.03125 0.234375 -0.046875 0.515625q-0.015625 0.28125 -0.03125 0.578125q-0.015625 0.296875 -0.046875 0.578125q0.125 0.25 0.328125 0.40625q0.1875 0.15625 0.421875 0.15625q0.171875 0 0.3125 -0.078125q0.140625 -0.09375 0.234375 -0.265625q0.109375 -0.171875 0.15625 -0.453125q0.0625 -0.296875 0.0625 -0.703125q0 -0.40625 -0.0625 -0.703125q-0.0625 -0.3125 -0.171875 -0.5q-0.109375 -0.203125 -0.265625 -0.28125q-0.15625 -0.09375 -0.328125 -0.09375zm-3.515625 1.625q0 -0.28125 -0.0625 -0.484375q-0.078125 -0.203125 -0.203125 -0.328125q-0.140625 -0.140625 -0.328125 -0.203125q-0.1875 -0.078125 -0.40625 -0.078125q-0.453125 0 -0.71875 0.28125q-0.265625 0.265625 -0.265625 0.8125q0 0.546875 0.265625 0.828125q0.265625 0.265625 0.71875 0.265625q0.21875 0 0.40625 -0.0625q0.1875 -0.078125 0.328125 -0.203125q0.125 -0.140625 0.203125 -0.34375q0.0625 -0.21875 0.0625 -0.484375zm-0.15625 -5.8350525l3.390625 0l0 1.609375l-8.671875 0l0 -2.640625q0 -0.890625 0.1875 -1.515625q0.171875 -0.640625 0.5 -1.046875q0.328125 -0.40625 0.796875 -0.59375q0.453125 -0.1875 1.0 -0.1875q0.453125 0 0.84375 0.140625q0.375 0.125 0.703125 0.375q0.3125 0.234375 0.5625 0.59375q0.234375 0.359375 0.375 0.8125q0.171875 -0.3125 0.5 -0.53125l3.203125 -2.171875l0 1.453125q0 0.203125 -0.078125 0.359375q-0.09375 0.140625 -0.25 0.25l-2.78125 1.8125q-0.15625 0.109375 -0.21875 0.234375q-0.0625 0.125 -0.0625 0.359375l0 0.6875zm-1.15625 0l0 -1.0q0 -0.46875 -0.109375 -0.796875q-0.125 -0.34375 -0.3125 -0.5625q-0.203125 -0.21875 -0.484375 -0.328125q-0.28125 -0.109375 -0.609375 -0.109375q-0.65625 0 -1.0 0.4375q-0.359375 0.4375 -0.359375 1.328125l0 1.03125l2.875 0zm1.5 -7.8600464l3.046875 0l0 1.609375l-8.671875 0l0 -2.8125q0 -0.875 0.203125 -1.5q0.203125 -0.640625 0.578125 -1.046875q0.359375 -0.421875 0.875 -0.625q0.5 -0.203125 1.109375 -0.203125q0.625 0 1.15625 0.21875q0.515625 0.203125 0.90625 0.625q0.375 0.421875 0.59375 1.046875q0.203125 0.625 0.203125 1.484375l0 1.203125zm-1.265625 0l0 -1.203125q0 -0.453125 -0.109375 -0.78125q-0.109375 -0.328125 -0.3125 -0.546875q-0.21875 -0.21875 -0.515625 -0.328125q-0.296875 -0.109375 -0.65625 -0.109375q-0.359375 0 -0.640625 0.109375q-0.28125 0.109375 -0.46875 0.328125q-0.203125 0.21875 -0.296875 0.546875q-0.109375 0.328125 -0.109375 0.78125l0 1.203125l3.109375 0zm2.265625 -11.796936q0 -0.125 0.109375 -0.21875l0.6875 -0.640625q0.65625 0.53125 1.0 1.296875q0.34375 0.765625 0.34375 1.859375q0 0.953125 -0.328125 1.734375q-0.328125 0.765625 -0.90625 1.3125q-0.59375 0.546875 -1.40625 0.84375q-0.828125 0.28125 -1.796875 0.28125q-0.96875 0 -1.78125 -0.3125q-0.8125 -0.328125 -1.40625 -0.921875q-0.59375 -0.59375 -0.90625 -1.40625q-0.328125 -0.8125 -0.328125 -1.8125q0 -0.96875 0.3125 -1.6875q0.296875 -0.71875 0.8125 -1.234375l0.75 0.53125q0.0625 0.0625 0.125 0.140625q0.046875 0.0625 0.046875 0.203125q0 0.125 -0.109375 0.28125q-0.109375 0.140625 -0.234375 0.359375q-0.125 0.21875 -0.21875 0.5625q-0.109375 0.34375 -0.109375 0.859375q0 0.609375 0.21875 1.125q0.203125 0.515625 0.59375 0.890625q0.390625 0.359375 0.96875 0.578125q0.5625 0.203125 1.265625 0.203125q0.734375 0 1.3125 -0.203125q0.5625 -0.21875 0.953125 -0.5625q0.390625 -0.359375 0.609375 -0.84375q0.203125 -0.484375 0.203125 -1.03125q0 -0.328125 -0.03125 -0.59375q-0.046875 -0.265625 -0.125 -0.484375q-0.078125 -0.234375 -0.203125 -0.4375q-0.125 -0.203125 -0.296875 -0.390625q-0.0625 -0.0625 -0.09375 -0.125q-0.03125 -0.078125 -0.03125 -0.15625zm2.046875 -12.018311l0 1.25q0 0.203125 -0.09375 0.34375q-0.109375 0.125 -0.265625 0.1875l-1.78125 0.65625l0 3.59375l1.78125 0.640625q0.125 0.046875 0.25 0.1875q0.109375 0.140625 0.109375 0.34375l0 1.265625l-8.671875 -3.40625l0 -1.65625l8.671875 -3.40625zm-3.28125 5.609375l0 -2.765625l-2.875 1.0625q-0.203125 0.0625 -0.453125 0.15625q-0.265625 0.09375 -0.578125 0.171875q0.3125 0.078125 0.578125 0.171875q0.265625 0.078125 0.453125 0.15625l2.875 1.046875zm0.234375 -8.1763l3.046875 0l0 1.609375l-8.671875 0l0 -2.8125q0 -0.875 0.203125 -1.5q0.203125 -0.640625 0.578125 -1.046875q0.359375 -0.421875 0.875 -0.625q0.5 -0.203125 1.109375 -0.203125q0.625 0 1.15625 0.21875q0.515625 0.203125 0.90625 0.625q0.375 0.421875 0.59375 1.046875q0.203125 0.625 0.203125 1.484375l0 1.203125zm-1.265625 0l0 -1.203125q0 -0.453125 -0.109375 -0.78125q-0.109375 -0.328125 -0.3125 -0.546875q-0.21875 -0.21875 -0.515625 -0.328125q-0.296875 -0.109375 -0.65625 -0.109375q-0.359375 0 -0.640625 0.109375q-0.28125 0.109375 -0.46875 0.328125q-0.203125 0.21875 -0.296875 0.546875q-0.109375 0.328125 -0.109375 0.78125l0 1.203125l3.109375 0zm4.3125 -7.640686l0 1.609375l-8.671875 0l0 -1.609375l8.671875 0z" fill-rule="nonzero"/><path fill="#000000" fill-opacity="0.0" d="m523.31494 145.14871l0 -13.322845l-142.2362 0" fill-rule="evenodd"/><path stroke="#999999" stroke-width="2.0" stroke-linejoin="round" stroke-linecap="butt" d="m523.31494 145.14871l0 -13.322845l-142.2362 0" fill-rule="evenodd"/><path fill="#000000" fill-opacity="0.0" d="m429.46606 103.85414l101.03937 0l0 35.02362l-101.03937 0z" fill-rule="evenodd"/><path fill="#666666" d="m440.76294 115.45227l0 5.109375l0.265625 0q0.15625 0 0.234375 -0.03125q0.09375 -0.046875 0.1875 -0.171875l1.53125 -1.875q0.09375 -0.125 0.203125 -0.1875q0.125 -0.078125 0.3125 -0.078125l1.359375 0l-1.921875 2.28125q-0.09375 0.125 -0.203125 0.234375q-0.109375 0.109375 -0.234375 0.1875q0.125 0.09375 0.21875 0.21875q0.09375 0.109375 0.1875 0.25l2.046875 2.984375l-1.328125 0q-0.171875 0 -0.296875 -0.0625q-0.125 -0.0625 -0.21875 -0.203125l-1.5625 -2.328125q-0.09375 -0.140625 -0.1875 -0.171875q-0.078125 -0.046875 -0.265625 -0.046875l-0.328125 0l0 2.8125l-1.484375 0l0 -8.921875l1.484375 0zm6.461792 2.765625l0 3.90625q0 0.5625 0.265625 0.875q0.265625 0.3125 0.78125 0.3125q0.390625 0 0.71875 -0.171875q0.34375 -0.171875 0.640625 -0.46875l0 -4.453125l1.484375 0l0 6.15625l-0.90625 0q-0.28125 0 -0.375 -0.265625l-0.109375 -0.5q-0.1875 0.203125 -0.390625 0.359375q-0.203125 0.15625 -0.4375 0.265625q-0.234375 0.109375 -0.5 0.171875q-0.265625 0.0625 -0.578125 0.0625q-0.5 0 -0.890625 -0.171875q-0.375 -0.171875 -0.640625 -0.484375q-0.265625 -0.3125 -0.40625 -0.734375q-0.125 -0.4375 -0.125 -0.953125l0 -3.90625l1.46875 0zm5.493927 6.15625l0 -8.921875l1.484375 0l0 3.515625q0.359375 -0.390625 0.8125 -0.609375q0.46875 -0.234375 1.09375 -0.234375q0.5 0 0.90625 0.203125q0.421875 0.203125 0.71875 0.609375q0.3125 0.390625 0.46875 0.984375q0.171875 0.578125 0.171875 1.328125q0 0.6875 -0.1875 1.28125q-0.171875 0.578125 -0.53125 1.015625q-0.34375 0.4375 -0.828125 0.6875q-0.484375 0.234375 -1.09375 0.234375q-0.28125 0 -0.515625 -0.0625q-0.234375 -0.0625 -0.4375 -0.15625q-0.1875 -0.109375 -0.359375 -0.25q-0.15625 -0.140625 -0.296875 -0.328125l-0.078125 0.421875q-0.03125 0.15625 -0.125 0.21875q-0.078125 0.0625 -0.234375 0.0625l-0.96875 0zm2.875 -5.09375q-0.453125 0 -0.78125 0.203125q-0.328125 0.1875 -0.609375 0.53125l0 2.765625q0.25 0.3125 0.546875 0.4375q0.296875 0.125 0.640625 0.125q0.34375 0 0.609375 -0.125q0.265625 -0.140625 0.453125 -0.390625q0.1875 -0.265625 0.28125 -0.65625q0.109375 -0.390625 0.109375 -0.921875q0 -0.546875 -0.09375 -0.921875q-0.078125 -0.375 -0.234375 -0.609375q-0.15625 -0.234375 -0.390625 -0.328125q-0.234375 -0.109375 -0.53125 -0.109375zm6.4963074 -1.15625q0.578125 0 1.0625 0.1875q0.484375 0.1875 0.84375 0.546875q0.359375 0.34375 0.546875 0.875q0.203125 0.515625 0.203125 1.171875q0 0.171875 -0.015625 0.28125q-0.015625 0.109375 -0.0625 0.171875q-0.03125 0.0625 -0.09375 0.09375q-0.0625 0.03125 -0.171875 0.03125l-3.796875 0q0.0625 0.953125 0.5 1.390625q0.453125 0.4375 1.1875 0.4375q0.359375 0 0.609375 -0.078125q0.265625 -0.078125 0.453125 -0.171875q0.203125 -0.109375 0.34375 -0.1875q0.15625 -0.09375 0.296875 -0.09375q0.078125 0 0.140625 0.03125q0.078125 0.03125 0.125 0.109375l0.4375 0.53125q-0.25 0.296875 -0.5625 0.5q-0.296875 0.1875 -0.640625 0.3125q-0.328125 0.109375 -0.671875 0.15625q-0.34375 0.046875 -0.671875 0.046875q-0.640625 0 -1.203125 -0.21875q-0.546875 -0.21875 -0.953125 -0.625q-0.40625 -0.421875 -0.640625 -1.03125q-0.234375 -0.625 -0.234375 -1.421875q0 -0.640625 0.203125 -1.1875q0.203125 -0.5625 0.578125 -0.96875q0.390625 -0.40625 0.9375 -0.640625q0.546875 -0.25 1.25 -0.25zm0.015625 1.0625q-0.640625 0 -1.015625 0.375q-0.359375 0.359375 -0.453125 1.03125l2.78125 0q0 -0.296875 -0.078125 -0.546875q-0.078125 -0.25 -0.25 -0.4375q-0.15625 -0.203125 -0.40625 -0.3125q-0.234375 -0.109375 -0.578125 -0.109375zm8.179657 0.328125q-0.078125 0.09375 -0.140625 0.140625q-0.0625 0.046875 -0.171875 0.046875q-0.125 0 -0.234375 -0.0625q-0.109375 -0.078125 -0.265625 -0.15625q-0.140625 -0.09375 -0.34375 -0.15625q-0.203125 -0.078125 -0.515625 -0.078125q-0.390625 0 -0.6875 0.140625q-0.28125 0.140625 -0.484375 0.40625q-0.1875 0.265625 -0.296875 0.640625q-0.09375 0.375 -0.09375 0.84375q0 0.5 0.109375 0.890625q0.109375 0.375 0.296875 0.640625q0.203125 0.25 0.484375 0.390625q0.28125 0.140625 0.640625 0.140625q0.359375 0 0.578125 -0.09375q0.21875 -0.09375 0.359375 -0.1875q0.15625 -0.109375 0.265625 -0.1875q0.109375 -0.09375 0.25 -0.09375q0.171875 0 0.265625 0.140625l0.421875 0.53125q-0.234375 0.296875 -0.53125 0.5q-0.28125 0.1875 -0.59375 0.3125q-0.3125 0.109375 -0.640625 0.15625q-0.328125 0.046875 -0.65625 0.046875q-0.5625 0 -1.078125 -0.21875q-0.5 -0.21875 -0.875 -0.625q-0.375 -0.40625 -0.59375 -0.984375q-0.21875 -0.59375 -0.21875 -1.359375q0 -0.671875 0.1875 -1.25q0.203125 -0.578125 0.578125 -1.0q0.390625 -0.421875 0.9375 -0.65625q0.5625 -0.25 1.28125 -0.25q0.703125 0 1.21875 0.21875q0.515625 0.21875 0.9375 0.640625l-0.390625 0.53125zm3.41156 4.953125q-0.796875 0 -1.234375 -0.453125q-0.421875 -0.453125 -0.421875 -1.25l0 -3.4375l-0.625 0q-0.125 0 -0.21875 -0.078125q-0.078125 -0.078125 -0.078125 -0.234375l0 -0.59375l0.984375 -0.15625l0.3125 -1.671875q0.03125 -0.125 0.109375 -0.1875q0.09375 -0.078125 0.21875 -0.078125l0.78125 0l0 1.9375l1.609375 0l0 1.0625l-1.609375 0l0 3.34375q0 0.28125 0.140625 0.453125q0.140625 0.15625 0.375 0.15625q0.140625 0 0.234375 -0.03125q0.09375 -0.03125 0.15625 -0.0625q0.078125 -0.046875 0.125 -0.078125q0.0625 -0.03125 0.109375 -0.03125q0.078125 0 0.109375 0.03125q0.046875 0.03125 0.09375 0.09375l0.4375 0.71875q-0.3125 0.265625 -0.734375 0.40625q-0.421875 0.140625 -0.875 0.140625zm4.2065125 -9.015625l0 8.921875l-1.484375 0l0 -8.921875l1.484375 0zm8.930939 2.671875q0.6875 0 1.25 0.21875q0.5625 0.21875 0.953125 0.640625q0.40625 0.40625 0.609375 1.0q0.21875 0.578125 0.21875 1.296875q0 0.734375 -0.21875 1.328125q-0.203125 0.578125 -0.609375 1.0q-0.390625 0.40625 -0.953125 0.640625q-0.5625 0.21875 -1.25 0.21875q-0.6875 0 -1.25 -0.21875q-0.5625 -0.234375 -0.96875 -0.640625q-0.40625 -0.421875 -0.625 -1.0q-0.21875 -0.59375 -0.21875 -1.328125q0 -0.71875 0.21875 -1.296875q0.21875 -0.59375 0.625 -1.0q0.40625 -0.421875 0.96875 -0.640625q0.5625 -0.21875 1.25 -0.21875zm0 5.203125q0.765625 0 1.125 -0.515625q0.375 -0.515625 0.375 -1.515625q0 -1.0 -0.375 -1.515625q-0.359375 -0.53125 -1.125 -0.53125q-0.78125 0 -1.15625 0.53125q-0.375 0.53125 -0.375 1.515625q0 0.984375 0.375 1.515625q0.375 0.515625 1.15625 0.515625zm4.197052 1.046875l0 -6.15625l0.859375 0q0.234375 0 0.3125 0.09375q0.09375 0.078125 0.125 0.28125l0.09375 0.734375q0.328125 -0.5625 0.765625 -0.890625q0.453125 -0.328125 1.0 -0.328125q0.46875 0 0.765625 0.203125l-0.1875 1.109375q-0.03125 0.109375 -0.09375 0.15625q-0.046875 0.046875 -0.15625 0.046875q-0.09375 0 -0.25 -0.046875q-0.15625 -0.046875 -0.40625 -0.046875q-0.46875 0 -0.796875 0.265625q-0.328125 0.25 -0.546875 0.75l0 3.828125l-1.484375 0zm14.921173 0l-1.25 0q-0.203125 0 -0.34375 -0.09375q-0.125 -0.109375 -0.1875 -0.265625l-0.65625 -1.78125l-3.59375 0l-0.640625 1.78125q-0.046875 0.125 -0.1875 0.25q-0.140625 0.109375 -0.34375 0.109375l-1.265625 0l3.40625 -8.671875l1.65625 0l3.40625 8.671875zm-5.609375 -3.28125l2.765625 0l-1.0625 -2.875q-0.0625 -0.203125 -0.15625 -0.453125q-0.09375 -0.265625 -0.171875 -0.578125q-0.078125 0.3125 -0.171875 0.578125q-0.078125 0.265625 -0.15625 0.453125l-1.046875 2.875zm8.1763 0.234375l0 3.046875l-1.609375 0l0 -8.671875l2.8125 0q0.875 0 1.5 0.203125q0.640625 0.203125 1.046875 0.578125q0.421875 0.359375 0.625 0.875q0.203125 0.5 0.203125 1.109375q0 0.625 -0.21875 1.15625q-0.203125 0.515625 -0.625 0.90625q-0.421875 0.375 -1.046875 0.59375q-0.625 0.203125 -1.484375 0.203125l-1.203125 0zm0 -1.265625l1.203125 0q0.453125 0 0.78125 -0.109375q0.328125 -0.109375 0.546875 -0.3125q0.21875 -0.21875 0.328125 -0.515625q0.109375 -0.296875 0.109375 -0.65625q0 -0.359375 -0.109375 -0.640625q-0.109375 -0.28125 -0.328125 -0.46875q-0.21875 -0.203125 -0.546875 -0.296875q-0.328125 -0.109375 -0.78125 -0.109375l-1.203125 0l0 3.109375zm7.640686 4.3125l-1.609375 0l0 -8.671875l1.609375 0l0 8.671875z" fill-rule="nonzero"/><path fill="#000000" fill-opacity="0.0" d="m523.31494 181.74713l0 12.031494l-142.2677 0" fill-rule="evenodd"/><path stroke="#999999" stroke-width="2.0" stroke-linejoin="round" stroke-linecap="butt" d="m523.31494 181.74713l0 12.031494l-142.2677 0" fill-rule="evenodd"/><path fill="#000000" fill-opacity="0.0" d="m429.73956 187.62535l109.00787 0l0 36.59842l-109.00787 0z" fill-rule="evenodd"/><path fill="#666666" d="m442.16144 201.89536q0.6875 0 1.25 0.21875q0.5625 0.21875 0.953125 0.640625q0.40625 0.40625 0.609375 1.0q0.21875 0.578125 0.21875 1.296875q0 0.734375 -0.21875 1.328125q-0.203125 0.578125 -0.609375 1.0q-0.390625 0.40625 -0.953125 0.640625q-0.5625 0.21875 -1.25 0.21875q-0.6875 0 -1.25 -0.21875q-0.5625 -0.234375 -0.96875 -0.640625q-0.40625 -0.421875 -0.625 -1.0q-0.21875 -0.59375 -0.21875 -1.328125q0 -0.71875 0.21875 -1.296875q0.21875 -0.59375 0.625 -1.0q0.40625 -0.421875 0.96875 -0.640625q0.5625 -0.21875 1.25 -0.21875zm0 5.203125q0.765625 0 1.125 -0.515625q0.375 -0.515625 0.375 -1.515625q0 -1.0 -0.375 -1.515625q-0.359375 -0.53125 -1.125 -0.53125q-0.78125 0 -1.15625 0.53125q-0.375 0.53125 -0.375 1.515625q0 0.984375 0.375 1.515625q0.375 0.515625 1.15625 0.515625zm7.853302 -3.90625q-0.0625 0.09375 -0.140625 0.140625q-0.0625 0.03125 -0.15625 0.03125q-0.109375 0 -0.234375 -0.0625q-0.125 -0.0625 -0.296875 -0.125q-0.15625 -0.078125 -0.359375 -0.140625q-0.203125 -0.0625 -0.484375 -0.0625q-0.4375 0 -0.6875 0.1875q-0.25 0.1875 -0.25 0.484375q0 0.203125 0.125 0.34375q0.125 0.125 0.328125 0.234375q0.21875 0.09375 0.484375 0.171875q0.28125 0.078125 0.5625 0.1875q0.28125 0.09375 0.546875 0.21875q0.265625 0.109375 0.484375 0.3125q0.21875 0.1875 0.34375 0.453125q0.125 0.25 0.125 0.625q0 0.453125 -0.15625 0.828125q-0.15625 0.375 -0.46875 0.65625q-0.3125 0.265625 -0.78125 0.421875q-0.453125 0.140625 -1.046875 0.140625q-0.328125 0 -0.625 -0.0625q-0.296875 -0.046875 -0.578125 -0.140625q-0.28125 -0.109375 -0.515625 -0.25q-0.234375 -0.140625 -0.421875 -0.296875l0.34375 -0.5625q0.0625 -0.109375 0.15625 -0.15625q0.09375 -0.0625 0.234375 -0.0625q0.125 0 0.25 0.078125q0.125 0.078125 0.28125 0.171875q0.171875 0.09375 0.390625 0.171875q0.21875 0.078125 0.546875 0.078125q0.265625 0 0.453125 -0.0625q0.203125 -0.0625 0.3125 -0.15625q0.125 -0.109375 0.1875 -0.25q0.0625 -0.140625 0.0625 -0.28125q0 -0.21875 -0.140625 -0.34375q-0.125 -0.140625 -0.34375 -0.234375q-0.203125 -0.109375 -0.484375 -0.1875q-0.265625 -0.09375 -0.5625 -0.1875q-0.28125 -0.09375 -0.5625 -0.21875q-0.265625 -0.140625 -0.484375 -0.328125q-0.203125 -0.203125 -0.328125 -0.484375q-0.125 -0.296875 -0.125 -0.703125q0 -0.375 0.140625 -0.71875q0.15625 -0.34375 0.4375 -0.59375q0.296875 -0.265625 0.734375 -0.40625q0.4375 -0.15625 1.0 -0.15625q0.640625 0 1.15625 0.21875q0.53125 0.203125 0.875 0.546875l-0.328125 0.53125zm5.9158936 0.09375q-0.078125 0.09375 -0.140625 0.140625q-0.0625 0.046875 -0.171875 0.046875q-0.125 0 -0.234375 -0.0625q-0.109375 -0.078125 -0.265625 -0.15625q-0.140625 -0.09375 -0.34375 -0.15625q-0.203125 -0.078125 -0.515625 -0.078125q-0.390625 0 -0.6875 0.140625q-0.28125 0.140625 -0.484375 0.40625q-0.1875 0.265625 -0.296875 0.640625q-0.09375 0.375 -0.09375 0.84375q0 0.5 0.109375 0.890625q0.109375 0.375 0.296875 0.640625q0.203125 0.25 0.484375 0.390625q0.28125 0.140625 0.640625 0.140625q0.359375 0 0.578125 -0.09375q0.21875 -0.09375 0.359375 -0.1875q0.15625 -0.109375 0.265625 -0.1875q0.109375 -0.09375 0.25 -0.09375q0.171875 0 0.265625 0.140625l0.421875 0.53125q-0.234375 0.296875 -0.53125 0.5q-0.28125 0.1875 -0.59375 0.3125q-0.3125 0.109375 -0.640625 0.15625q-0.328125 0.046875 -0.65625 0.046875q-0.5625 0 -1.078125 -0.21875q-0.5 -0.21875 -0.875 -0.625q-0.375 -0.40625 -0.59375 -0.984375q-0.21875 -0.59375 -0.21875 -1.359375q0 -0.671875 0.1875 -1.25q0.203125 -0.578125 0.578125 -1.0q0.390625 -0.421875 0.9375 -0.65625q0.5625 -0.25 1.28125 -0.25q0.703125 0 1.21875 0.21875q0.515625 0.21875 0.9375 0.640625l-0.390625 0.53125zm3.41156 4.953125q-0.796875 0 -1.234375 -0.453125q-0.421875 -0.453125 -0.421875 -1.25l0 -3.4375l-0.625 0q-0.125 0 -0.21875 -0.078125q-0.078125 -0.078125 -0.078125 -0.234375l0 -0.59375l0.984375 -0.15625l0.3125 -1.671875q0.03125 -0.125 0.109375 -0.1875q0.09375 -0.078125 0.21875 -0.078125l0.78125 0l0 1.9375l1.609375 0l0 1.0625l-1.609375 0l0 3.34375q0 0.28125 0.140625 0.453125q0.140625 0.15625 0.375 0.15625q0.140625 0 0.234375 -0.03125q0.09375 -0.03125 0.15625 -0.0625q0.078125 -0.046875 0.125 -0.078125q0.0625 -0.03125 0.109375 -0.03125q0.078125 0 0.109375 0.03125q0.046875 0.03125 0.09375 0.09375l0.4375 0.71875q-0.3125 0.265625 -0.734375 0.40625q-0.421875 0.140625 -0.875 0.140625zm4.2065125 -9.015625l0 8.921875l-1.484375 0l0 -8.921875l1.484375 0zm10.036804 6.875q0.125 0 0.21875 0.109375l0.640625 0.6875q-0.53125 0.65625 -1.296875 1.0q-0.765625 0.34375 -1.859375 0.34375q-0.953125 0 -1.734375 -0.328125q-0.765625 -0.328125 -1.3125 -0.90625q-0.546875 -0.59375 -0.84375 -1.40625q-0.28125 -0.828125 -0.28125 -1.796875q0 -0.96875 0.3125 -1.78125q0.328125 -0.8125 0.921875 -1.40625q0.59375 -0.59375 1.40625 -0.90625q0.8125 -0.328125 1.8125 -0.328125q0.96875 0 1.6875 0.3125q0.71875 0.296875 1.234375 0.8125l-0.53125 0.75q-0.0625 0.0625 -0.140625 0.125q-0.0625 0.046875 -0.203125 0.046875q-0.125 0 -0.28125 -0.109375q-0.140625 -0.109375 -0.359375 -0.234375q-0.21875 -0.125 -0.5625 -0.21875q-0.34375 -0.109375 -0.859375 -0.109375q-0.609375 0 -1.125 0.21875q-0.515625 0.203125 -0.890625 0.59375q-0.359375 0.390625 -0.578125 0.96875q-0.203125 0.5625 -0.203125 1.265625q0 0.734375 0.203125 1.3125q0.21875 0.5625 0.5625 0.953125q0.359375 0.390625 0.84375 0.609375q0.484375 0.203125 1.03125 0.203125q0.328125 0 0.59375 -0.03125q0.265625 -0.046875 0.484375 -0.125q0.234375 -0.078125 0.4375 -0.203125q0.203125 -0.125 0.390625 -0.296875q0.0625 -0.0625 0.125 -0.09375q0.078125 -0.03125 0.15625 -0.03125zm3.686676 0.71875l3.484375 0l0 1.328125l-5.09375 0l0 -8.671875l1.609375 0l0 7.34375zm6.4071655 1.328125l-1.609375 0l0 -8.671875l1.609375 0l0 8.671875zm6.81839 -6.25q0.6875 0 1.25 0.21875q0.5625 0.21875 0.953125 0.640625q0.40625 0.40625 0.609375 1.0q0.21875 0.578125 0.21875 1.296875q0 0.734375 -0.21875 1.328125q-0.203125 0.578125 -0.609375 1.0q-0.390625 0.40625 -0.953125 0.640625q-0.5625 0.21875 -1.25 0.21875q-0.6875 0 -1.25 -0.21875q-0.5625 -0.234375 -0.96875 -0.640625q-0.40625 -0.421875 -0.625 -1.0q-0.21875 -0.59375 -0.21875 -1.328125q0 -0.71875 0.21875 -1.296875q0.21875 -0.59375 0.625 -1.0q0.40625 -0.421875 0.96875 -0.640625q0.5625 -0.21875 1.25 -0.21875zm0 5.203125q0.765625 0 1.125 -0.515625q0.375 -0.515625 0.375 -1.515625q0 -1.0 -0.375 -1.515625q-0.359375 -0.53125 -1.125 -0.53125q-0.78125 0 -1.15625 0.53125q-0.375 0.53125 -0.375 1.515625q0 0.984375 0.375 1.515625q0.375 0.515625 1.15625 0.515625zm4.197052 1.046875l0 -6.15625l0.859375 0q0.234375 0 0.3125 0.09375q0.09375 0.078125 0.125 0.28125l0.09375 0.734375q0.328125 -0.5625 0.765625 -0.890625q0.453125 -0.328125 1.0 -0.328125q0.46875 0 0.765625 0.203125l-0.1875 1.109375q-0.03125 0.109375 -0.09375 0.15625q-0.046875 0.046875 -0.15625 0.046875q-0.09375 0 -0.25 -0.046875q-0.15625 -0.046875 -0.40625 -0.046875q-0.46875 0 -0.796875 0.265625q-0.328125 0.25 -0.546875 0.75l0 3.828125l-1.484375 0zm14.921173 0l-1.25 0q-0.203125 0 -0.34375 -0.09375q-0.125 -0.109375 -0.1875 -0.265625l-0.65625 -1.78125l-3.59375 0l-0.640625 1.78125q-0.046875 0.125 -0.1875 0.25q-0.140625 0.109375 -0.34375 0.109375l-1.265625 0l3.40625 -8.671875l1.65625 0l3.40625 8.671875zm-5.609375 -3.28125l2.765625 0l-1.0625 -2.875q-0.0625 -0.203125 -0.15625 -0.453125q-0.09375 -0.265625 -0.171875 -0.578125q-0.078125 0.3125 -0.171875 0.578125q-0.078125 0.265625 -0.15625 0.453125l-1.046875 2.875zm8.176331 0.234375l0 3.046875l-1.609375 0l0 -8.671875l2.8125 0q0.875 0 1.5 0.203125q0.640625 0.203125 1.046875 0.578125q0.421875 0.359375 0.625 0.875q0.203125 0.5 0.203125 1.109375q0 0.625 -0.21875 1.15625q-0.203125 0.515625 -0.625 0.90625q-0.421875 0.375 -1.046875 0.59375q-0.625 0.203125 -1.484375 0.203125l-1.203125 0zm0 -1.265625l1.203125 0q0.453125 0 0.78125 -0.109375q0.328125 -0.109375 0.546875 -0.3125q0.21875 -0.21875 0.328125 -0.515625q0.109375 -0.296875 0.109375 -0.65625q0 -0.359375 -0.109375 -0.640625q-0.109375 -0.28125 -0.328125 -0.46875q-0.21875 -0.203125 -0.546875 -0.296875q-0.328125 -0.109375 -0.78125 -0.109375l-1.203125 0l0 3.109375zm7.640686 4.3125l-1.609375 0l0 -8.671875l1.609375 0l0 8.671875z" fill-rule="nonzero"/><path fill="#e66b89" fill-opacity="0.8431" d="m59.166668 434.66678l0 0c0 -2.7455444 2.2256927 -4.9712524 4.9712257 -4.9712524l310.81348 0c1.3184509 0 2.5828857 0.5237732 3.5151672 1.4560547c0.932312 0.9322815 1.4560547 2.1967468 1.4560547 3.5151978l0 19.884308c0 2.745514 -2.225708 4.971222 -4.971222 4.971222l-310.81348 0l0 0c-2.745533 0 -4.9712257 -2.225708 -4.9712257 -4.971222z" fill-rule="evenodd"/><path fill="#ffffff" d="m190.89064 443.53268l0.453125 0q0.28125 0 0.46875 -0.078125q0.1875 -0.078125 0.3125 -0.25l2.921875 -3.6875q0.1875 -0.234375 0.390625 -0.328125q0.203125 -0.09375 0.5 -0.09375l1.703125 0l-3.5625 4.40625q-0.171875 0.203125 -0.328125 0.34375q-0.15625 0.140625 -0.328125 0.21875q0.25 0.09375 0.4375 0.265625q0.1875 0.15625 0.375 0.390625l3.6875 4.96875l-1.75 0q-0.359375 0 -0.53125 -0.09375q-0.171875 -0.109375 -0.28125 -0.296875l-3.0 -3.90625q-0.140625 -0.1875 -0.328125 -0.265625q-0.1875 -0.09375 -0.515625 -0.09375l-0.625 0l0 4.65625l-1.96875 0l0 -10.609375l1.96875 0l0 4.453125zm12.448685 4.5625q0.578125 0 1.03125 -0.1875q0.453125 -0.1875 0.765625 -0.53125q0.3125 -0.34375 0.46875 -0.828125q0.171875 -0.5 0.171875 -1.109375l0 -6.34375l1.96875 0l0 6.34375q0 0.9375 -0.3125 1.75q-0.296875 0.796875 -0.875 1.390625q-0.5625 0.578125 -1.375 0.90625q-0.8125 0.328125 -1.84375 0.328125q-1.015625 0 -1.828125 -0.328125q-0.8125 -0.328125 -1.390625 -0.90625q-0.5625 -0.59375 -0.859375 -1.390625q-0.296875 -0.8125 -0.296875 -1.75l0 -6.34375l1.96875 0l0 6.34375q0 0.59375 0.15625 1.09375q0.171875 0.484375 0.46875 0.84375q0.3125 0.34375 0.765625 0.53125q0.453125 0.1875 1.015625 0.1875zm6.4039917 1.59375l0 -10.59375l3.671875 0q1.03125 0 1.765625 0.203125q0.734375 0.1875 1.203125 0.5625q0.484375 0.359375 0.703125 0.890625q0.21875 0.515625 0.21875 1.15625q0 0.375 -0.109375 0.71875q-0.109375 0.34375 -0.34375 0.640625q-0.234375 0.296875 -0.59375 0.546875q-0.34375 0.234375 -0.84375 0.40625q2.1875 0.484375 2.1875 2.359375q0 0.671875 -0.265625 1.25q-0.25 0.5625 -0.734375 0.984375q-0.484375 0.40625 -1.203125 0.640625q-0.71875 0.234375 -1.640625 0.234375l-4.015625 0zm1.984375 -4.640625l0 3.109375l2.0 0q0.546875 0 0.90625 -0.125q0.375 -0.140625 0.59375 -0.359375q0.234375 -0.234375 0.328125 -0.515625q0.09375 -0.296875 0.09375 -0.625q0 -0.34375 -0.109375 -0.609375q-0.109375 -0.28125 -0.34375 -0.46875q-0.234375 -0.203125 -0.609375 -0.296875q-0.359375 -0.109375 -0.875 -0.109375l-1.984375 0zm0 -1.375l1.5625 0q1.015625 0 1.53125 -0.359375q0.515625 -0.359375 0.515625 -1.171875q0 -0.828125 -0.46875 -1.171875q-0.46875 -0.359375 -1.453125 -0.359375l-1.6875 0l0 3.0625zm14.251556 -4.578125l0 1.5625l-4.6875 0l0 2.9375l3.6875 0l0 1.515625l-3.6875 0l0 3.0l4.6875 0l0 1.578125l-6.6875 0l0 -10.59375l6.6875 0zm3.6874695 8.96875l4.234375 0l0 1.625l-6.21875 0l0 -10.59375l1.984375 0l0 8.96875zm12.280319 -8.96875l0 1.5625l-4.6875 0l0 2.9375l3.6875 0l0 1.515625l-3.6875 0l0 3.0l4.6875 0l0 1.578125l-6.6875 0l0 -10.59375l6.6875 0zm9.1718445 0l0 1.609375l-3.1875 0l0 8.984375l-1.96875 0l0 -8.984375l-3.203125 0l0 -1.609375l8.359375 0z" fill-rule="nonzero"/><path fill="#eeeeee" d="m475.77167 151.24857l0 0c0 -3.368866 2.7309875 -6.0998535 6.0998535 -6.0998535l82.8869 0c1.6177979 0 3.1693115 0.6426544 4.3132324 1.7866058c1.1439209 1.1439362 1.7866211 2.695465 1.7866211 4.3132477l0 24.398712c0 3.3688507 -2.731018 6.0998535 -6.0998535 6.0998535l-82.8869 0l0 0c-3.368866 0 -6.0998535 -2.7310028 -6.0998535 -6.0998535z" fill-rule="evenodd"/><path fill="#000000" d="m496.77698 163.43542q0 1.046875 -0.359375 1.953125q-0.34375 0.90625 -0.984375 1.5625q-0.640625 0.65625 -1.546875 1.03125q-0.890625 0.375 -1.984375 0.375q-1.09375 0 -2.0 -0.375q-0.90625 -0.375 -1.546875 -1.03125q-0.640625 -0.65625 -1.0 -1.5625q-0.34375 -0.90625 -0.34375 -1.953125q0 -1.0625 0.34375 -1.96875q0.359375 -0.90625 1.0 -1.5625q0.640625 -0.65625 1.546875 -1.03125q0.90625 -0.375 2.0 -0.375q1.09375 0 1.984375 0.375q0.90625 0.375 1.546875 1.03125q0.640625 0.65625 0.984375 1.5625q0.359375 0.90625 0.359375 1.96875zm-1.84375 0q0 -0.796875 -0.21875 -1.421875q-0.203125 -0.640625 -0.59375 -1.078125q-0.390625 -0.4375 -0.953125 -0.671875q-0.5625 -0.234375 -1.265625 -0.234375q-0.71875 0 -1.28125 0.234375q-0.5625 0.234375 -0.96875 0.671875q-0.390625 0.4375 -0.609375 1.078125q-0.203125 0.625 -0.203125 1.421875q0 0.78125 0.203125 1.421875q0.21875 0.625 0.609375 1.0625q0.40625 0.4375 0.96875 0.671875q0.5625 0.234375 1.28125 0.234375q0.703125 0 1.265625 -0.234375q0.5625 -0.234375 0.953125 -0.671875q0.390625 -0.4375 0.59375 -1.0625q0.21875 -0.640625 0.21875 -1.421875zm5.108917 1.421875l0 3.390625l-1.796875 0l0 -9.640625l3.140625 0q0.96875 0 1.671875 0.234375q0.703125 0.21875 1.15625 0.625q0.46875 0.40625 0.6875 0.984375q0.21875 0.5625 0.21875 1.234375q0 0.703125 -0.234375 1.28125q-0.234375 0.578125 -0.703125 1.0q-0.453125 0.421875 -1.15625 0.65625q-0.703125 0.234375 -1.640625 0.234375l-1.34375 0zm0 -1.40625l1.34375 0q0.5 0 0.859375 -0.109375q0.359375 -0.125 0.59375 -0.359375q0.25 -0.234375 0.375 -0.5625q0.125 -0.328125 0.125 -0.734375q0 -0.390625 -0.125 -0.703125q-0.125 -0.3125 -0.375 -0.53125q-0.234375 -0.21875 -0.59375 -0.328125q-0.359375 -0.125 -0.859375 -0.125l-1.34375 0l0 3.453125zm12.548798 -4.84375l0 1.4375l-4.265625 0l0 2.671875l3.359375 0l0 1.375l-3.359375 0l0 2.71875l4.265625 0l0 1.4375l-6.078125 0l0 -9.640625l6.078125 0zm3.41156 5.875l0 3.765625l-1.796875 0l0 -9.640625l2.9375 0q0.984375 0 1.6875 0.203125q0.703125 0.203125 1.15625 0.578125q0.453125 0.359375 0.65625 0.875q0.21875 0.5 0.21875 1.125q0 0.484375 -0.15625 0.921875q-0.140625 0.421875 -0.40625 0.78125q-0.265625 0.34375 -0.671875 0.625q-0.390625 0.265625 -0.890625 0.421875q0.328125 0.1875 0.578125 0.546875l2.421875 3.5625l-1.625 0q-0.234375 0 -0.390625 -0.09375q-0.15625 -0.09375 -0.28125 -0.265625l-2.015625 -3.078125q-0.125 -0.1875 -0.265625 -0.25q-0.125 -0.078125 -0.390625 -0.078125l-0.765625 0zm0 -1.28125l1.109375 0q0.515625 0 0.890625 -0.125q0.375 -0.125 0.609375 -0.34375q0.25 -0.234375 0.375 -0.53125q0.125 -0.3125 0.125 -0.6875q0 -0.734375 -0.484375 -1.125q-0.484375 -0.390625 -1.484375 -0.390625l-1.140625 0l0 3.203125zm15.339294 5.046875l-1.375 0q-0.234375 0 -0.390625 -0.109375q-0.140625 -0.125 -0.21875 -0.296875l-0.71875 -1.96875l-3.984375 0l-0.71875 1.96875q-0.0625 0.15625 -0.21875 0.28125q-0.15625 0.125 -0.375 0.125l-1.390625 0l3.78125 -9.640625l1.828125 0l3.78125 9.640625zm-6.234375 -3.640625l3.078125 0l-1.171875 -3.203125q-0.078125 -0.21875 -0.1875 -0.5q-0.09375 -0.296875 -0.1875 -0.640625q-0.09375 0.34375 -0.1875 0.640625q-0.078125 0.296875 -0.171875 0.515625l-1.171875 3.1875zm13.04541 -6.0l0 1.484375l-2.90625 0l0 8.15625l-1.78125 0l0 -8.15625l-2.921875 0l0 -1.484375l7.609375 0zm9.863342 4.828125q0 1.046875 -0.359375 1.953125q-0.34375 0.90625 -0.984375 1.5625q-0.640625 0.65625 -1.546875 1.03125q-0.890625 0.375 -1.984375 0.375q-1.09375 0 -2.0 -0.375q-0.90625 -0.375 -1.546875 -1.03125q-0.640625 -0.65625 -1.0 -1.5625q-0.34375 -0.90625 -0.34375 -1.953125q0 -1.0625 0.34375 -1.96875q0.359375 -0.90625 1.0 -1.5625q0.640625 -0.65625 1.546875 -1.03125q0.90625 -0.375 2.0 -0.375q1.09375 0 1.984375 0.375q0.90625 0.375 1.546875 1.03125q0.640625 0.65625 0.984375 1.5625q0.359375 0.90625 0.359375 1.96875zm-1.84375 0q0 -0.796875 -0.21875 -1.421875q-0.203125 -0.640625 -0.59375 -1.078125q-0.390625 -0.4375 -0.953125 -0.671875q-0.5625 -0.234375 -1.265625 -0.234375q-0.71875 0 -1.28125 0.234375q-0.5625 0.234375 -0.96875 0.671875q-0.390625 0.4375 -0.609375 1.078125q-0.203125 0.625 -0.203125 1.421875q0 0.78125 0.203125 1.421875q0.21875 0.625 0.609375 1.0625q0.40625 0.4375 0.96875 0.671875q0.5625 0.234375 1.28125 0.234375q0.703125 0 1.265625 -0.234375q0.5625 -0.234375 0.953125 -0.671875q0.390625 -0.4375 0.59375 -1.0625q0.21875 -0.640625 0.21875 -1.421875zm5.1089478 1.046875l0 3.765625l-1.796875 0l0 -9.640625l2.9375 0q0.984375 0 1.6875 0.203125q0.703125 0.203125 1.15625 0.578125q0.453125 0.359375 0.65625 0.875q0.21875 0.5 0.21875 1.125q0 0.484375 -0.15625 0.921875q-0.140625 0.421875 -0.40625 0.78125q-0.265625 0.34375 -0.671875 0.625q-0.390625 0.265625 -0.890625 0.421875q0.328125 0.1875 0.578125 0.546875l2.421875 3.5625l-1.625 0q-0.234375 0 -0.390625 -0.09375q-0.15625 -0.09375 -0.28125 -0.265625l-2.015625 -3.078125q-0.125 -0.1875 -0.265625 -0.25q-0.125 -0.078125 -0.390625 -0.078125l-0.765625 0zm0 -1.28125l1.109375 0q0.515625 0 0.890625 -0.125q0.375 -0.125 0.609375 -0.34375q0.25 -0.234375 0.375 -0.53125q0.125 -0.3125 0.125 -0.6875q0 -0.734375 -0.484375 -1.125q-0.484375 -0.390625 -1.484375 -0.390625l-1.140625 0l0 3.203125z" fill-rule="nonzero"/></g></svg>